<?xml version="1.0" encoding="utf-8"?>
<!-- Generator: Adobe Illustrator 22.1.0, SVG Export Plug-In . SVG Version: 6.00 Build 0)  -->
<svg version="1.1" id="Livello_1" xmlns="http://www.w3.org/2000/svg" xmlns:xlink="http://www.w3.org/1999/xlink" x="0px" y="0px"
	 viewBox="0 0 466 186.9" style="enable-background:new 0 0 466 186.9;" xml:space="preserve">
<style type="text/css">
	.st0{fill:#FFFFFF;}
</style>
<path class="st0" d="M372.5,20c-17.6,0-33.8,6.2-46.4,16.6C313.4,26.2,297.1,20,279.5,20s-33.8,6.2-46.5,16.6
	C220.3,26.2,204.1,20,186.5,20s-33.8,6.2-46.5,16.6C127.3,26.2,111.1,20,93.4,20C52.9,20,20,52.9,20,93.4s32.9,73.4,73.4,73.4
	c17.6,0,33.8-6.2,46.5-16.6c12.7,10.4,28.9,16.6,46.5,16.6s33.8-6.2,46.5-16.6c12.7,10.4,28.9,16.6,46.5,16.6s33.8-6.2,46.5-16.6
	c12.7,10.4,28.8,16.6,46.5,16.6c40.6,0,73.4-32.9,73.4-73.4S413,20,372.5,20z M325.9,125.9c-6.4-9.2-10.2-20.3-10.2-32.3
	s3.8-23.2,10.2-32.4c6.4,9.2,10.2,20.4,10.2,32.4S332.3,116.8,325.9,125.9z M232.9,126c-6.5-9.2-10.2-20.4-10.2-32.4
	s3.8-23.3,10.2-32.4c6.5,9.2,10.2,20.4,10.3,32.4C243.2,105.6,239.4,116.8,232.9,126z M140,125.9c-6.4-9.2-10.2-20.3-10.2-32.3
	s3.8-23.2,10.2-32.4c6.4,9.2,10.2,20.4,10.2,32.4S146.3,116.8,140,125.9z M36.7,93.5c0-31.4,25.4-56.7,56.7-56.7
	c13.1,0,25.2,4.4,34.7,11.9C118.7,61.1,113,76.6,113,93.4s5.7,32.3,15.2,44.7c-9.7,7.4-21.7,12-34.8,12
	C62.1,150.2,36.7,124.8,36.7,93.5z M151.7,138.2c9.6-12.4,15.2-27.9,15.2-44.7s-5.7-32.3-15.2-44.7c9.6-7.4,21.6-11.9,34.7-11.9
	c13.1,0,25.2,4.4,34.7,12c-9.5,12.4-15.2,27.9-15.2,44.7c0,16.8,5.7,32.3,15.2,44.7c-9.7,7.4-21.7,12-34.8,12
	C173.4,150.2,161.2,145.7,151.7,138.2z M279.4,150.2c-13.1,0-25.2-4.4-34.7-11.9c9.6-12.4,15.2-27.9,15.2-44.8
	c0-16.8-5.7-32.3-15.2-44.7c9.7-7.4,21.7-11.9,34.7-11.9c13.1,0,25.2,4.4,34.7,11.9C304.7,61.1,299,76.6,299,93.4
	s5.7,32.3,15.2,44.7C304.6,145.7,292.5,150.2,279.4,150.2z M372.5,150.2c-13.1,0-25.2-4.4-34.7-11.9c9.6-12.4,15.2-27.9,15.2-44.8
	c0-16.8-5.7-32.3-15.2-44.7c9.7-7.4,21.7-11.9,34.7-11.9c31.3,0,56.7,25.3,56.7,56.7C429.2,124.8,403.8,150.2,372.5,150.2z"/>
</svg>
