<?xml version="1.0" encoding="utf-8"?>
<!-- Generator: Adobe Illustrator 22.1.0, SVG Export Plug-In . SVG Version: 6.00 Build 0)  -->
<svg version="1.1" id="Livello_1" xmlns="http://www.w3.org/2000/svg" xmlns:xlink="http://www.w3.org/1999/xlink" x="0px" y="0px"
	 viewBox="0 0 480.7 165.8" style="enable-background:new 0 0 480.7 165.8;" xml:space="preserve">
<style type="text/css">
	.st0{fill:#FFFFFF;}
</style>
<path class="st0" d="M397.8,0c-19.9,0-38.2,7-52.4,18.7C331.1,7,312.8,0,292.9,0s-38.2,7-52.5,18.7C226.1,7,207.8,0,187.9,0
	s-38.2,7-52.5,18.7C121.1,7,102.8,0,82.9,0C37.1,0,0,37.1,0,82.9s37.1,82.9,82.9,82.9c19.9,0,38.2-7,52.5-18.7
	c14.3,11.7,32.6,18.7,52.5,18.7s38.2-7,52.5-18.7c14.3,11.7,32.6,18.7,52.5,18.7s38.2-7,52.5-18.7c14.3,11.7,32.5,18.7,52.5,18.7
	c45.8,0,82.9-37.1,82.9-82.9S443.6,0,397.8,0z M345.3,119.5c-7.2-10.4-11.5-22.9-11.5-36.5s4.3-26.2,11.5-36.6
	c7.2,10.4,11.5,23,11.5,36.6S352.5,109.2,345.3,119.5z M240.3,119.6c-7.3-10.4-11.5-23-11.5-36.6s4.3-26.3,11.5-36.6
	c7.3,10.4,11.5,23,11.6,36.6C251.9,96.6,247.6,109.2,240.3,119.6z M135.4,119.5c-7.2-10.4-11.5-22.9-11.5-36.5s4.3-26.2,11.5-36.6
	c7.2,10.4,11.5,23,11.5,36.6S142.6,109.2,135.4,119.5z M18.9,83c0-35.4,28.7-64,64-64c14.8,0,28.4,5,39.2,13.4
	c-10.7,14-17.1,31.5-17.1,50.5s6.4,36.5,17.2,50.5c-10.9,8.4-24.5,13.5-39.3,13.5C47.5,146.9,18.9,118.3,18.9,83z M148.6,133.4
	c10.8-14,17.2-31.5,17.2-50.5s-6.4-36.5-17.1-50.5C159.5,24,173.1,19,187.9,19c14.8,0,28.4,5,39.2,13.5C216.4,46.5,210,64,210,82.9
	c0,19,6.4,36.5,17.2,50.5c-10.9,8.4-24.5,13.5-39.3,13.5C173.1,146.9,159.4,141.9,148.6,133.4z M292.8,146.9
	c-14.8,0-28.4-5-39.2-13.4c10.8-14,17.2-31.5,17.2-50.6c0-19-6.4-36.5-17.2-50.5C264.5,24,278.1,19,292.8,19
	c14.8,0,28.4,5,39.2,13.4c-10.7,14-17.1,31.5-17.1,50.5s6.4,36.5,17.2,50.5C321.2,141.9,307.6,146.9,292.8,146.9z M397.8,146.9
	c-14.8,0-28.4-5-39.2-13.4c10.8-14,17.2-31.5,17.2-50.6c0-19-6.4-36.5-17.2-50.5C369.5,24,383.1,19,397.8,19c35.3,0,64,28.6,64,64
	C461.8,118.3,433.2,146.9,397.8,146.9z"/>
</svg>
