<?xml version="1.0" encoding="utf-8"?>
<!-- Generator: Adobe Illustrator 22.1.0, SVG Export Plug-In . SVG Version: 6.00 Build 0)  -->
<svg version="1.1" id="Layer_1" xmlns="http://www.w3.org/2000/svg" xmlns:xlink="http://www.w3.org/1999/xlink" x="0px" y="0px"
	 viewBox="0 0 498.5 498.5" style="enable-background:new 0 0 498.5 498.5;" xml:space="preserve">
<style type="text/css">
	.st0{fill:#FFFFFF;}
</style>
<g>
	<path class="st0" d="M111.4,249.3h137.9V111.4C173.1,111.4,111.4,173.1,111.4,249.3z"/>
	<path class="st0" d="M249.3,387.1c76.2,0,137.9-61.7,137.9-137.9H249.3V387.1z"/>
	<path class="st0" d="M108.2,104.6c-3-2.5-7.7-2.6-9.7-0.2l-17.8,21.2l11,9.2l17.6-21C111.5,111.3,111.5,107.4,108.2,104.6z"/>
	<path class="st0" d="M129.8,129.2c2.5-2.9,2.1-7.5-1.5-10.5c-3.2-2.7-7.9-1.9-10,0.6l-18.7,22.3l11.6,9.8L129.8,129.2z"/>
	<path class="st0" d="M249.3,18.5c-127.4,0-230.7,103.3-230.7,230.7S121.8,480,249.3,480S480,376.7,480,249.3S376.7,18.5,249.3,18.5
		z M215.5,31.1h18.3l16.5,43.3l16.5-43.3h18.3v60.7H273V49.5l-16,42.4h-13.3l-16-42.4v42.4h-12.2V31.1z M62.4,131L92,95.7
		c6.1-7.3,14.7-13.1,22.9-6.3c2.5,2.1,3.6,2.8,6.6,8.4c0.7,2,1.3,5.6-0.1,9.1c7.1-4.4,14.6-3,19.5,1.8c7.5,7.3,6.4,15.7-0.7,24.2
		L109,170.1L62.4,131z M249.3,396.6c-81.4,0-147.4-66-147.4-147.4c0-81.4,66-147.4,147.4-147.4s147.4,66,147.4,147.4
		C396.6,330.6,330.6,396.6,249.3,396.6z M386.6,171.4l-11-13.7l22-32.1l-0.1-0.2l-36,14.8l-11.1-13.6l38.1-49l9.4,11.6l-23.9,31.2
		l36.5-15.7l10.1,12.4l-22.9,32.4l35.5-16.8l9.4,11.6L386.6,171.4z"/>
	<path class="st0" d="M425.5,73C378.4,25.9,315.8,0,249.3,0C111.8,0,0,111.8,0,249.3c0,66.6,25.9,129.2,73,176.2
		c47.1,47.1,109.7,73,176.2,73s129.2-25.9,176.2-73c47.1-47.1,73-109.7,73-176.2S472.6,120.1,425.5,73z M249.3,489.9
		c-64.3,0-124.7-25-170.1-70.5C33.7,374,8.6,313.5,8.6,249.3c0-64.3,25-124.7,70.5-170.1C124.6,33.7,185,8.6,249.3,8.6
		s124.7,25,170.1,70.5c45.4,45.4,70.5,105.9,70.5,170.1C489.9,381.9,381.9,489.9,249.3,489.9z"/>
</g>
</svg>
