<?xml version="1.0" encoding="utf-8"?>
<!-- Generator: Adobe Illustrator 22.1.0, SVG Export Plug-In . SVG Version: 6.00 Build 0)  -->
<svg version="1.1" id="Layer_1" xmlns="http://www.w3.org/2000/svg" xmlns:xlink="http://www.w3.org/1999/xlink" x="0px" y="0px"
	 viewBox="0 0 21 21" style="enable-background:new 0 0 21 21;" xml:space="preserve">
<style type="text/css">
	.st0{fill:#FFFFFF;}
</style>
<path class="st0" d="M21,4L21,4V3.2h-1.2H1.2H0v1.2v12.2v1.3l0,0h21l0,0v-1.2V4.4V4L21,4z M19.8,15.8l-5.7-4.9l5.7-5.7V15.8z
	 M1.2,5.3l5.7,5.7l-5.7,4.9C1.2,15.8,1.2,5.3,1.2,5.3z M10.5,12.8L2.1,4.4h16.8L10.5,12.8z M7.8,11.8l1.8,1.8l0,0l0.9,0.9l0,0
	l0.9-0.9l1.8-1.8l5.5,4.8H2.2L7.8,11.8z"/>
</svg>
