<?xml version="1.0" encoding="utf-8"?>
<!-- Generator: Adobe Illustrator 16.0.0, SVG Export Plug-In . SVG Version: 6.00 Build 0)  -->
<!DOCTYPE svg PUBLIC "-//W3C//DTD SVG 1.1//EN" "http://www.w3.org/Graphics/SVG/1.1/DTD/svg11.dtd">
<svg version="1.1" id="Layer_1" xmlns="http://www.w3.org/2000/svg" xmlns:xlink="http://www.w3.org/1999/xlink" x="0px" y="0px"
	 width="21px" height="21px" viewBox="0 0 21 21" enable-background="new 0 0 21 21" xml:space="preserve">
<path fill-rule="evenodd" clip-rule="evenodd" fill="#FFFFFF" d="M20.776,8.389c-0.138-0.674-0.344-1.338-0.612-1.972
	c-0.263-0.623-0.588-1.222-0.967-1.783c-0.376-0.555-0.807-1.078-1.281-1.552c-0.475-0.475-0.997-0.906-1.553-1.281
	c-0.56-0.379-1.16-0.705-1.782-0.968c-0.634-0.267-1.298-0.474-1.972-0.611c-0.691-0.142-1.402-0.214-2.113-0.214
	c-0.711,0-1.422,0.072-2.114,0.214C7.708,0.359,7.045,0.566,6.411,0.833C5.789,1.097,5.189,1.422,4.628,1.801
	C4.072,2.176,3.55,2.607,3.075,3.083C2.601,3.557,2.17,4.079,1.795,4.634C1.417,5.195,1.09,5.794,0.828,6.417
	C0.56,7.051,0.354,7.715,0.215,8.389c-0.142,0.69-0.213,1.401-0.213,2.112c0,0.712,0.071,1.424,0.213,2.114
	c0.138,0.674,0.344,1.338,0.612,1.972c0.263,0.622,0.589,1.223,0.967,1.783c0.375,0.556,0.806,1.077,1.28,1.552
	c0.475,0.475,0.997,0.904,1.553,1.28c0.561,0.379,1.161,0.704,1.783,0.968c0.634,0.269,1.298,0.473,1.972,0.611
	c0.691,0.143,1.402,0.214,2.114,0.214c0.71,0,1.421-0.071,2.113-0.214c0.674-0.139,1.338-0.343,1.972-0.611
	c0.622-0.264,1.223-0.589,1.782-0.968c0.556-0.376,1.078-0.806,1.553-1.28s0.905-0.996,1.281-1.552
	c0.379-0.561,0.704-1.161,0.967-1.783c0.269-0.634,0.475-1.298,0.612-1.972c0.142-0.69,0.214-1.402,0.214-2.114
	C20.99,9.791,20.918,9.079,20.776,8.389z M19.455,10.412c-0.13-0.028-3.163-0.681-6.242-0.293c-0.062-0.154-0.127-0.308-0.193-0.463
	c-0.187-0.438-0.387-0.873-0.596-1.3c3.539-1.444,4.977-3.521,4.993-3.546C18.674,6.336,19.435,8.286,19.455,10.412z M16.415,3.776
	c-0.021,0.035-1.298,1.978-4.681,3.245c-1.532-2.815-3.215-5.051-3.35-5.228c0.677-0.164,1.384-0.253,2.112-0.253
	C12.766,1.541,14.836,2.386,16.415,3.776z M8.35,1.801c0,0-0.001,0.001-0.001,0.001s-0.01,0.002-0.027,0.006
	C8.33,1.806,8.34,1.804,8.35,1.801z M6.672,2.397C6.792,2.557,8.449,4.804,10,7.56C5.697,8.704,1.963,8.659,1.726,8.654
	C2.308,5.879,4.173,3.578,6.672,2.397z M1.535,10.501c0-0.095,0.004-0.189,0.007-0.283c0.158,0.003,4.586,0.104,9.2-1.277
	c0.257,0.502,0.503,1.013,0.728,1.523c-0.119,0.033-0.236,0.068-0.354,0.106c-4.836,1.562-7.29,5.915-7.29,5.915
	S3.83,16.488,3.83,16.49C2.403,14.902,1.535,12.804,1.535,10.501z M10.497,19.463c-2.169,0-4.159-0.771-5.709-2.053
	c0.118,0.095,0.2,0.156,0.2,0.156s1.718-3.747,7.034-5.598c0.02-0.008,0.039-0.014,0.059-0.02c1.262,3.276,1.782,6.021,1.915,6.805
	C12.92,19.21,11.737,19.463,10.497,19.463z M15.504,17.935c-0.091-0.542-0.568-3.171-1.744-6.401
	c2.893-0.463,5.399,0.331,5.585,0.392C18.945,14.422,17.517,16.575,15.504,17.935z"/>
</svg>
