<?xml version="1.0" encoding="utf-8"?>
<!-- Generator: Adobe Illustrator 16.0.0, SVG Export Plug-In . SVG Version: 6.00 Build 0)  -->
<!DOCTYPE svg PUBLIC "-//W3C//DTD SVG 1.1//EN" "http://www.w3.org/Graphics/SVG/1.1/DTD/svg11.dtd">
<svg version="1.1" id="Layer_1" xmlns="http://www.w3.org/2000/svg" xmlns:xlink="http://www.w3.org/1999/xlink" x="0px" y="0px"
	 width="25px" height="25px" viewBox="0 0 25 25" enable-background="new 0 0 25 25" xml:space="preserve">
<path fill="#FFFFFF" d="M21.466,11.44c1.949-1.062,3.169-2.945,3.169-5.264C24.635,2.582,21.706,0,17.673,0h-1.789H1.237
	C0.643,0,0,0.43,0,1.024v9.727v1.04v11.77C0,24.155,0.643,25,1.237,25h14.646c0,0,0.001,0,0.002,0h1.787
	c3.709,0,6.962-3.555,6.962-7.401C24.635,15.178,23.346,12.763,21.466,11.44z M2,2h10.601L2,9.664V2z M2,23v-9.876L13.017,23H2z
	 M17.673,23h-1.386L3.602,11.597L16.236,2h1.437c3.305,0,4.809,2.149,4.809,4.099c0,1.95-1.504,4.074-4.809,4.074
	c-0.594,0-1.076,0.495-1.076,1.089s0.482,1.083,1.076,1.083c2.517,0,4.809,2.676,4.809,5.328S20.189,23,17.673,23z"/>
</svg>
