<?xml version="1.0" encoding="utf-8"?>
<!-- Generator: Adobe Illustrator 16.0.0, SVG Export Plug-In . SVG Version: 6.00 Build 0)  -->
<!DOCTYPE svg PUBLIC "-//W3C//DTD SVG 1.1//EN" "http://www.w3.org/Graphics/SVG/1.1/DTD/svg11.dtd">
<svg version="1.1" id="Layer_1" xmlns="http://www.w3.org/2000/svg" xmlns:xlink="http://www.w3.org/1999/xlink" x="0px" y="0px"
	 width="82px" height="19px" viewBox="0 0 82 19" enable-background="new 0 0 82 19" xml:space="preserve">
<g>
	<g>
		<path fill="#FFFFFF" d="M18.605,13.477c0-1.838-0.978-3.556-2.406-4.561c1.479-0.807,2.406-2.351,2.406-4.112
			c0-2.728-2.223-4.803-5.286-4.803h-1.36H0.837c-0.452,0-0.758,0.535-0.758,0.986v7.386v0.79V18.1c0,0.453,0.306,0.9,0.758,0.9
			h11.122c0.001,0,0.001,0,0.002,0h1.357C16.135,19,18.605,16.396,18.605,13.477z M12.267,17.48l-0.029-0.211v0.211H9.783H1.599
			v-7.306V7.548V1.521h7.869h2.761h0.018h1.073c2.509,0,3.651,1.736,3.651,3.216s-1.143,3.146-3.651,3.146
			c-0.452,0-0.817,0.401-0.817,0.854c0,0.453,0.365,0.835,0.817,0.835c1.911,0,3.651,1.942,3.651,3.956
			c0,2.013-1.74,3.955-3.651,3.955h-1.053V17.48z"/>
		<path opacity="0.15" fill="#FFFFFF" enable-background="new    " d="M12.238,17.27L2.629,8.718l9.599-7.197h0.011v-1.52H11.96
			H0.837c-0.452,0-0.758,0.535-0.758,0.986V1.52h1.594h7.794L9.066,1.96l0.002,0.071L8.644,2.402L0,8.728l1.599,1.452v-0.004
			l8.185,7.305h-8.11H0.079v0.621C0.079,18.553,0.385,19,0.837,19h11.122c0.001,0,0.001,0,0.002,0h0.277V17.27z"/>
	</g>
	<g>
		<path opacity="0.15" fill="#FFFFFF" enable-background="new    " d="M49.454,13.477c0-1.838-0.979-3.556-2.406-4.561
			c1.479-0.807,2.406-2.351,2.406-4.112c0-2.728-2.224-4.803-5.285-4.803h-1.36H31.687c-0.451,0-0.449,0.535-0.449,0.986v7.386v0.79
			V18.1c0,0.452-0.002,0.899,0.449,0.899h11.122h0.002h1.358C46.984,19,49.454,16.396,49.454,13.477z M43.116,17.48l-0.479-0.211
			v0.211h-2.005h-7.874v-7.306V7.548V1.521h7.558h2.763h0.017h1.072c2.509,0,3.65,1.736,3.65,3.216s-1.143,3.146-3.65,3.146
			c-0.451,0-0.816,0.401-0.816,0.854c0,0.453,0.365,0.835,0.816,0.835c1.912,0,3.65,1.942,3.65,3.956
			c0,2.013-1.738,3.955-3.65,3.955h-1.052V17.48z"/>
		<path fill="#FFFFFF" d="M42.637,17.27l-9.385-8.552l9.827-7.197h-0.44v-1.52h0.172H31.687c-0.451,0-0.449,0.535-0.449,0.986V1.52
			h1.284h7.794l-0.402,0.44l0.002,0.071l-0.423,0.372l-8.489,6.326l1.753,1.451v-0.003l7.874,7.306h-8.11h-1.284v0.619
			c0,0.453-0.002,0.899,0.449,0.899h11.123h0.002h-0.175L42.637,17.27L42.637,17.27z"/>
	</g>
	<g>
		<g>
			<path opacity="0.15" fill="#FFFFFF" enable-background="new    " d="M80.303,13.477c0-1.838-0.979-3.556-2.406-4.561
				c1.48-0.807,2.406-2.351,2.406-4.112C80.303,2.076,78.079,0,75.016,0h-1.357H62.535c-0.451,0.001-0.899,0.536-0.899,0.987v7.386
				v0.79V18.1c0,0.452,0.448,0.899,0.899,0.899h11.122c0.002,0,0.002,0,0.003,0h1.357C77.833,19,80.303,16.396,80.303,13.477z
				 M73.965,17.48l-0.169-0.211v0.211h-2.313h-7.565v-7.306V7.548V1.521h7.249h2.762h0.016h1.074c2.51,0,3.652,1.736,3.652,3.216
				s-1.145,3.146-3.652,3.146c-0.451,0-0.816,0.401-0.816,0.854c0,0.453,0.365,0.835,0.816,0.835c1.912,0,3.652,1.942,3.652,3.956
				c0,2.013-1.74,3.955-3.652,3.955h-1.053V17.48z"/>
			<path display="none" opacity="0.15" fill="#FFFFFF" enable-background="new    " d="M73.796,17.27l-9.54-8.552l9.671-7.197
				h-0.131v-1.52h-0.139H62.535c-0.451,0-0.899,0.535-0.899,0.986V1.52h1.735h7.794l-0.401,0.44l0.004,0.071l-0.425,0.372
				l-8.334,6.326l1.907,1.451v-0.003l7.564,7.306h-8.109h-1.735v0.619c0,0.453,0.448,0.899,0.899,0.899h11.122
				c0.002,0,0.002,0,0.003,0h0.136V17.27z"/>
		</g>
		<path fill="#FFFFFF" d="M80.291,13.477c0-1.838-0.979-3.556-2.407-4.561c1.481-0.807,2.407-2.351,2.407-4.112
			C80.291,2.076,78.066,0,75.004,0h-1.65l-2.215,1.52h0.014l-7.235,6.028V7.547l-1.888,1.226L73.389,19h1.615
			C77.818,19,80.291,16.396,80.291,13.477z M73.951,17.48l-9.635-8.667l9.597-7.294h1.091c2.51,0,3.653,1.736,3.653,3.216
			s-1.146,3.146-3.653,3.146c-0.451,0-0.816,0.401-0.816,0.854c0,0.453,0.365,0.835,0.816,0.835c1.912,0,3.653,1.941,3.653,3.955
			s-1.741,3.955-3.653,3.955H73.951L73.951,17.48z"/>
	</g>
	<path fill="#FFFFFF" d="M26.926,8.537h-1.513V7.024c0-0.384-0.312-0.695-0.696-0.695c-0.384,0-0.694,0.311-0.694,0.695v1.513
		h-1.457c-0.384,0-0.695,0.312-0.695,0.695c0,0.383,0.312,0.694,0.695,0.694h1.457v1.458c0,0.384,0.311,0.695,0.694,0.695
		c0.383,0,0.696-0.312,0.696-0.695V9.926h1.513c0.383,0,0.695-0.311,0.695-0.694C27.622,8.848,27.309,8.537,26.926,8.537z"/>
	<g>
		<path fill="#FFFFFF" d="M53.414,8.414h4.361c0.383,0,0.693-0.312,0.693-0.695c0-0.383-0.312-0.695-0.693-0.695h-4.361
			c-0.383,0-0.691,0.312-0.691,0.695C52.723,8.102,53.031,8.414,53.414,8.414z"/>
		<path fill="#FFFFFF" d="M57.775,9.993h-4.361c-0.383,0-0.691,0.312-0.691,0.694c0,0.381,0.31,0.694,0.691,0.694h4.361
			c0.383,0,0.693-0.312,0.693-0.694S58.158,9.993,57.775,9.993z"/>
	</g>
</g>
</svg>
