<?xml version="1.0" encoding="utf-8"?>
<!-- Generator: Adobe Illustrator 22.1.0, SVG Export Plug-In . SVG Version: 6.00 Build 0)  -->
<svg version="1.1" id="Layer_1" xmlns="http://www.w3.org/2000/svg" xmlns:xlink="http://www.w3.org/1999/xlink" x="0px" y="0px"
	 viewBox="0 0 80.3 18.6" style="enable-background:new 0 0 80.3 18.6;" xml:space="preserve">
<style type="text/css">
	.st0{opacity:0.2;fill:#FFFFFF;}
	.st1{fill:#FFFFFF;}
</style>
<path class="st0" d="M10.7,7.5v1.4h7.9V0H0v7.7v3.2v7.7h18.6V9.7h-7.9v1.4h6.4v6.1h-6.8L1.8,9.3l8.6-7.9h6.8v6.1H10.7z M1.4,17.2
	v-6.2l6.9,6.2H1.4z M1.4,7.7V1.4h6.9L1.4,7.7z"/>
<polygon class="st1" points="10.7,7.5 10.7,8.9 18.6,8.9 18.6,0 0,0 0,7.7 0,10.9 0,18.6 18.6,18.6 18.6,9.7 10.7,9.7 10.7,11.1 
	17.2,11.1 17.2,17.2 10.4,17.2 10.4,17.2 8.3,17.2 1.4,17.2 1.4,10.9 1.4,7.7 1.4,1.4 8.3,1.4 10.4,1.4 10.4,1.4 17.2,1.4 17.2,7.5 
	"/>
<polygon class="st1" points="25.4,8.6 25.4,6.4 24,6.4 24,8.6 22.6,8.6 21.9,8.6 21.9,10 22.6,10 24,10 24,12.2 25.4,12.2 25.4,10 
	27.6,10 27.6,8.6 "/>
<g>
	<rect x="52.7" y="7.1" class="st1" width="5.7" height="1.4"/>
	<rect x="52.7" y="10.1" class="st1" width="5.7" height="1.4"/>
</g>
<path class="st0" d="M42,7.5v1.4h7.9V0H31.2v7.7v3.2v7.7h18.6V9.7H42v1.4h6.4v6.1h-6.8L33,9.3l8.6-7.9h6.8v6.1H42z M32.7,17.2v-6.2
	l6.9,6.2H32.7z M32.7,7.7V1.4h6.9L32.7,7.7z"/>
<path class="st0" d="M72.4,7.5v1.4h7.9V0H61.7v7.7v3.2v7.7h18.6V9.7h-7.9v1.4h6.4v6.1H72l-8.6-7.9L72,1.4h6.8v6.1H72.4z M63.1,17.2
	v-6.2l6.9,6.2H63.1z M63.1,7.7V1.4H70L63.1,7.7z"/>
<polygon class="st1" points="41.6,17.2 33,9.3 41.6,1.4 41.6,0 31.2,0 31.2,1.4 39.5,1.4 31.2,9 31.2,9.7 39.5,17.2 31.2,17.2 
	31.2,18.6 41.6,18.6 "/>
<polygon class="st1" points="80.3,9.7 72.4,9.7 72.4,11.1 78.8,11.1 78.8,17.2 72,17.2 63.5,9.3 72,1.4 78.8,1.4 78.8,7.5 72.4,7.5 
	72.4,8.9 80.3,8.9 80.3,0 72,0 71.5,0 61.7,9 61.7,9.7 71.5,18.6 72,18.6 80.3,18.6 "/>
</svg>
