<?xml version="1.0" encoding="utf-8"?>
<!-- Generator: Adobe Illustrator 19.2.1, SVG Export Plug-In . SVG Version: 6.00 Build 0)  -->
<svg version="1.1" id="Layer_1" xmlns="http://www.w3.org/2000/svg" xmlns:xlink="http://www.w3.org/1999/xlink" x="0px" y="0px"
	 viewBox="0 0 33 23" style="enable-background:new 0 0 33 23;" xml:space="preserve">
<style type="text/css">
	.st0{fill:#FFFFFF;}
</style>
<path class="st0" d="M33,1.3L33,1.3L33,0h-1.9H1.9H0v1.9v19.1V23v0h33v0v-1.9V1.9L33,1.3L33,1.3z M31.1,19.9l-8.9-7.7l8.9-8.9V19.9z
	 M1.9,3.3l8.9,8.9l-8.9,7.7V3.3z M16.5,15.1L3.3,1.9h26.4L16.5,15.1z M12.2,13.6l2.9,2.9l0,0l1.4,1.4l0,0l1.4-1.4l2.9-2.9l8.7,7.5
	H3.5L12.2,13.6z"/>
</svg>
