<?xml version="1.0" encoding="utf-8"?>
<!-- Generator: Adobe Illustrator 22.1.0, SVG Export Plug-In . SVG Version: 6.00 Build 0)  -->
<svg version="1.1" id="Livello_1" xmlns="http://www.w3.org/2000/svg" xmlns:xlink="http://www.w3.org/1999/xlink" x="0px" y="0px"
	 viewBox="0 0 2834.6 1518.1" style="enable-background:new 0 0 2834.6 1518.1;" xml:space="preserve">
<style type="text/css">
	.st0{fill:#FFFFFF;}
</style>
<g>
	<path class="st0" d="M316.9,563c45,15.4,119.3,10,163.7,4.9c43.4-98.6,96.2-189.5,160.5-276c-91.1,35.1-213.4,89.9-292.7,150
		c-12.7,9.6-24.8,19.6-35.9,30.9c-8.3,8.4-15.8,17-21.9,27.2C272,531.2,284.5,551.9,316.9,563z"/>
	<path class="st0" d="M2383.5,665.1c-4.7,0-8.5,3.8-8.5,8.5c0,42.5,0,85,0,127.6c0,3.2-1.8,6.2-4.7,7.7c-2.9,1.5-6.4,1.2-9-0.8
		c-58.4-43.5-116.9-86.9-175.3-130.4c-16.3-12.1-38-14-56.1-4.9c-18.1,9.1-29.5,27.6-29.5,47.9c0,41.3,0,82.5,0,123.8
		c0,4.7,3.8,8.5,8.5,8.5c8.8,0,17.6,0,26.4,0c4.7,0,8.5-3.8,8.5-8.5c0-42.4,0-84.8,0-127.1c0-3.2,1.8-6.2,4.7-7.7
		c2.9-1.5,6.4-1.2,9,0.8c58.4,43.5,116.9,86.9,175.3,130.4c16.3,12.1,38,14,56.1,4.9c18.1-9.1,29.5-27.6,29.5-47.9
		c0-41.4,0-82.8,0-124.2c0-4.7-3.8-8.5-8.5-8.5C2401.1,665.1,2392.3,665.1,2383.5,665.1z"/>
	<path class="st0" d="M2605,665.1c-8.8,0-17.6,0-26.4,0c-4.7,0-8.5,3.8-8.5,8.5c0,57,0,113.9,0,170.9c0,4.7,3.8,8.5,8.5,8.5
		c8.8,0,17.6,0,26.4,0c4.7,0,8.5-3.8,8.5-8.5c0-57,0-113.9,0-170.9C2613.5,668.9,2609.7,665.1,2605,665.1z"/>
	<path class="st0" d="M1233,708.4c79.1,0,158.2,0,237.3,0c4.7,0,8.5-3.8,8.5-8.5c0-5.9,0-11.8,0-17.7c0-9.5-7.7-17.2-17.2-17.2
		c-76.2,0-152.4,0-228.6,0c-39.9,0-72.3,32.4-72.3,72.3c0,14.5,0,28.9,0,43.4c0,39.9,32.4,72.3,72.3,72.3c69.5,0,139.1,0,208.6,0
		c23.7,0,42.9-19.2,42.9-42.9c0-17.1,0-34.2,0-51.3c0-5.7-2.3-11.1-6.3-15.2c-4-4-9.5-6.3-15.2-6.3c-43,0-86,0-129.1,0
		c-9.5,0-17.2,7.7-17.2,17.2c0,5.9,0,11.8,0,17.7c0,4.7,3.8,8.5,8.5,8.5c37.3,0,74.6,0,111.9,0c5.3,0,9.7,4.3,9.7,9.6
		c0,3.2,0,6.4,0,9.6c0,2.8-0.8,4.9-2.8,6.9c-2,2-4,2.8-6.8,2.8c-68.1,0-136.2,0-204.3,0c-16,0-28.9-12.9-28.9-28.9
		c0-14.5,0-28.9,0-43.4C1204.1,721.4,1217,708.4,1233,708.4z"/>
	<circle class="st0" cx="2273.5" cy="536.3" r="19.4"/>
	<path class="st0" d="M1452.2,215c7.7-7.4,8-19.6,0.7-27.4c-7.4-7.7-19.6-8-27.4-0.7c-7.7,7.4-8,19.6-0.7,27.4
		C1432.2,222.1,1444.4,222.4,1452.2,215z"/>
	
		<ellipse transform="matrix(0.9579 -0.2871 0.2871 0.9579 -206.7361 553.5226)" class="st0" cx="1784.2" cy="981.8" rx="19.4" ry="19.4"/>
	<path class="st0" d="M1357.1,358.6c9.8-4.2,14.5-15.5,10.3-25.4c-4.2-9.8-15.5-14.5-25.4-10.3c-9.8,4.2-14.5,15.5-10.3,25.4
		C1335.9,358.1,1347.2,362.7,1357.1,358.6z"/>
	
		<ellipse transform="matrix(0.7071 -0.7071 0.7071 0.7071 215.0278 1591.7003)" class="st0" cx="2028.9" cy="536.3" rx="19.4" ry="19.4"/>
	
		<ellipse transform="matrix(0.7071 -0.7071 0.7071 0.7071 -386.5634 1030.2935)" class="st0" cx="1050.4" cy="981.8" rx="19.4" ry="19.4"/>
	<path class="st0" d="M504.8,622.5c75.5-133.1,161.4-256.8,259.8-374c-35.1,11.2-69.9,23.3-104.4,36.2
		c-78.7,103.3-142.8,217-190.5,337.8C481.4,622.5,493.1,622.5,504.8,622.5z"/>
	<path class="st0" d="M2518.1,962.4c-10.7,0-19.4,8.7-19.4,19.4c0,10.7,8.7,19.4,19.4,19.4c10.7,0,19.4-8.7,19.4-19.4
		C2537.5,971.1,2528.8,962.4,2518.1,962.4z"/>
	<circle class="st0" cx="2273.5" cy="981.8" r="19.4"/>
	
		<ellipse transform="matrix(0.7071 -0.7071 0.7071 0.7071 -314.9164 1203.2646)" class="st0" cx="1295" cy="981.8" rx="19.4" ry="19.4"/>
	
		<ellipse transform="matrix(0.9728 -0.2317 0.2317 0.9728 -205.5267 213.3852)" class="st0" cx="805.8" cy="981.8" rx="19.4" ry="19.4"/>
	<path class="st0" d="M597.9,529.4c-4.7,7.4-9.4,14.8-14,22.2c31.5-6.2,62.7-13.3,93.9-21.1c-14.6,30.2-28.1,60.9-40.6,92
		c14.1,0,28.2,0,42.3,0c22.2-37.8,45.4-74.9,69.6-111.4c133.6-38.7,299.5-101.3,419.6-174.2c18.2-11,35.9-22.6,52.9-35.4
		c13.4-10.1,26.3-20.6,38.1-32.6c31-31.3,49.8-69.6-1.1-88.9c-57.9-22-170.7-7-225.9,2.1c-10.6,13.9-21,28-31.3,42.2
		c22.7-1.5,45.3-2,68.1-0.6c14.6,0.9,29,2.6,43.3,6.2c7,1.8,17.8,4.2,16.9,14.3c-0.4,4.1-2.3,7.2-4.6,10.3
		c-3.1,4.2-6.5,8.2-10.1,12.1c-9.4,10.1-19.6,19-30.3,27.6c-17.8,14.2-36.5,27-55.8,39.2c-72.6,46.1-164.1,90-242.8,123.7
		c67.5-95.9,141.2-185.6,222-270.6c-41.9,7.7-83.3,17-124.4,27.6c-73.6,86.6-135.4,178.6-187.6,279.5
		C663.6,506.1,630.9,518.1,597.9,529.4z"/>
	
		<ellipse transform="matrix(0.9732 -0.2298 0.2298 0.9732 -184.3782 379.9985)" class="st0" cx="1539.6" cy="981.8" rx="19.4" ry="19.4"/>
	
		<ellipse transform="matrix(0.7071 -0.7071 0.7071 0.7071 -529.8577 684.3505)" class="st0" cx="561.2" cy="981.8" rx="19.4" ry="19.4"/>
	<path class="st0" d="M1681.1,229.2c8.4-6.6,9.9-18.8,3.3-27.2c-6.6-8.4-18.8-9.9-27.2-3.3c-8.4,6.6-9.9,18.8-3.3,27.2
		C1660.5,234.4,1672.7,235.8,1681.1,229.2z"/>
	
		<ellipse transform="matrix(0.9732 -0.2298 0.2298 0.9732 -88.5711 311.8795)" class="st0" cx="1295" cy="536.3" rx="19.4" ry="19.4"/>
	<path class="st0" d="M2518.1,555.6c10.7,0,19.4-8.7,19.4-19.4c0-10.7-8.7-19.4-19.4-19.4c-10.7,0-19.4,8.7-19.4,19.4
		C2498.7,547,2507.4,555.6,2518.1,555.6z"/>
	
		<ellipse transform="matrix(0.7071 -0.7071 0.7071 0.7071 -99.9751 1722.1788)" class="st0" cx="2028.9" cy="981.8" rx="19.4" ry="19.4"/>
	<path class="st0" d="M1228,469.6c10.5-1.9,17.5-12,15.5-22.5c-1.9-10.5-12-17.5-22.5-15.6c-10.5,1.9-17.5,12-15.5,22.5
		C1207.4,464.5,1217.5,471.5,1228,469.6z"/>
	<path class="st0" d="M316.5,962.4c-10.7,0-19.3,8.7-19.3,19.4c0,10.7,8.7,19.3,19.4,19.3c10.7,0,19.3-8.7,19.3-19.4
		C335.9,971,327.2,962.4,316.5,962.4z"/>
	<path class="st0" d="M1907.3,266.2c9.1-5.7,11.8-17.6,6.1-26.7c-5.7-9.1-17.6-11.8-26.7-6.1c-9.1,5.7-11.8,17.6-6.1,26.7
		C1886.3,269.1,1898.2,271.8,1907.3,266.2z"/>
	
		<ellipse transform="matrix(0.7071 -0.7071 0.7071 0.7071 71.7336 1245.7573)" class="st0" cx="1539.6" cy="536.3" rx="19.4" ry="19.4"/>
	
		<ellipse transform="matrix(0.9829 -0.1843 0.1843 0.9829 -68.2652 337.9422)" class="st0" cx="1784.2" cy="536.3" rx="19.4" ry="19.4"/>
	
		<ellipse transform="matrix(0.7071 -0.7071 0.7071 0.7071 -62.3869 921.9619)" class="st0" cx="1081.7" cy="536.3" rx="19.4" ry="19.4"/>
	<path class="st0" d="M2336,421.4c10.3-2.9,16.3-13.6,13.4-23.9c-2.9-10.3-13.6-16.3-23.9-13.4c-10.3,2.9-16.3,13.6-13.4,23.9
		C2315,418.2,2325.7,424.3,2336,421.4z"/>
	<path class="st0" d="M2127.6,328.4c9.7-4.5,13.9-16.1,9.3-25.7c-4.5-9.7-16.1-13.9-25.7-9.3c-9.7,4.5-13.9,16.1-9.3,25.7
		C2106.4,328.8,2117.9,333,2127.6,328.4z"/>
	<path class="st0" d="M2802.2,597.5c-24.7-60.7-61.4-115.4-104.6-164c-52.2-58.9-114.3-109.5-179.6-152.6
		c-77.7-51.3-159.1-92.1-245.2-127C2007.2,46.2,1700.9,0,1417.3,0C1133.7,0,827.6,46.2,562,153.8c-86,34.9-167.5,75.7-245.2,127
		c-65.4,43.2-127.4,93.7-179.7,152.6C93.9,482.1,57.2,536.7,32.5,597.4C11.5,649,0,703.1,0,759c0,55.9,11.5,110,32.5,161.6
		c24.7,60.7,61.4,115.4,104.6,164c52.2,58.9,114.3,109.5,179.6,152.6c77.7,51.3,159.1,92.1,245.2,127
		c265.6,107.7,571.9,153.9,855.5,153.9c283.6,0,589.8-46.2,855.4-153.8c86-34.9,167.5-75.7,245.2-127
		c65.4-43.2,127.4-93.7,179.7-152.6c43.2-48.7,79.9-103.3,104.6-164.1c21-51.6,32.5-105.7,32.5-161.6
		C2834.6,703.1,2823.1,649,2802.2,597.5z M2747.2,771.5c-0.7,18.4-3,36.7-6.8,54.6c-6.9,32.9-18.8,64.7-34.2,94.6
		c-10.7,20.8-23.1,40.7-36.7,59.7c-15.4,21.4-32.3,41.7-50.4,60.9c-20.2,21.5-41.9,41.6-64.6,60.5c-25,20.9-51.2,40.3-78.3,58.4
		c-28.2,18.9-57.4,36.5-87.2,52.8c-30.6,16.8-61.9,32.2-93.7,46.6c-42.4,19.2-85.8,36.3-129.7,51.8c-39.5,13.9-79.5,26.3-119.9,37.5
		c-52.3,14.5-105.2,26.9-158.5,37.3c-89.6,17.5-180.2,29.6-271.2,36.8c-62.6,4.9-125.4,7.5-188.2,7.7c-98.2,0.4-196.4-4.8-294-15.9
		c-102.2-11.6-203.7-29.5-303.3-54.9c-76.8-19.5-152.5-43.5-226.1-72.8c-60.4-24-119.3-51.6-175.8-83.7
		c-29.7-16.9-58.6-35-86.6-54.5c-26.1-18.3-51.4-37.8-75.5-58.8c-21.7-19-42.5-39.1-61.7-60.6c-17.2-19.2-33.3-39.4-47.8-60.8
		c-20.3-30.1-37.5-62.4-49.7-96.5c-5.4-15.2-9.9-30.8-13.2-46.6c-3.9-18.7-6.2-37.7-6.8-56.7c-0.6-18.1,0.4-36.3,2.9-54.3
		c2.6-18.5,6.7-36.8,12.3-54.6c4.1-13.1,8.9-26,14.4-38.6c8.9-20.4,19.5-40,31.3-58.9c13.5-21.4,28.6-41.6,44.9-60.9
		c18.2-21.4,37.8-41.6,58.5-60.6c22.9-21,47-40.6,72-59c27.5-20.2,56-38.9,85.3-56.3c53.4-31.7,109.3-59.2,166.5-83.3
		c53.1-22.3,107.4-41.8,162.5-58.7c43.7-13.4,87.9-25.2,132.4-35.6c55.2-12.9,110.8-23.6,166.8-32.2c42.6-6.6,85.3-12,128.2-16.3
		c83.7-8.4,167.8-12.5,251.8-12.5c84.1,0,168.3,4.1,252,12.5c78,7.8,155.6,19.3,232.4,34.9c51.6,10.5,102.9,22.8,153.6,37.1
		c37.2,10.5,74.2,22.1,110.7,35c37.1,13.1,73.8,27.4,109.9,43.1c30.5,13.2,60.5,27.5,89.9,42.8c25.9,13.5,51.3,27.9,76.2,43.2
		c28.7,17.7,56.6,36.7,83.4,57.2c24.5,18.7,48.1,38.7,70.3,60.1c19.9,19.2,38.7,39.5,56,61c15.3,19.1,29.4,39.1,41.8,60.2
		c9.6,16.3,18.2,33.1,25.6,50.6c5.3,12.5,9.9,25.2,13.9,38.2c5.3,17.6,9.3,35.6,11.7,53.8C2747,735,2747.9,753.3,2747.2,771.5z"/>
	<path class="st0" d="M940.9,665.1c-60.7,0-121.3,0-182,0c-37.6,0-68,30.5-68,68c0,37.1,0,74.3,0,111.4c0,4.7,3.8,8.5,8.5,8.5
		c8.8,0,17.5,0,26.3,0c4.7,0,8.5-3.8,8.5-8.5c0-7.8,0-15.6,0-23.5c0-4.7,3.8-8.5,8.5-8.5c71.5,0,143,0,214.5,0
		c4.7,0,8.5,3.8,8.5,8.5c0,7.8,0,15.6,0,23.5c0,4.7,3.8,8.5,8.5,8.5c8.8,0,17.5,0,26.3,0c4.7,0,8.5-3.8,8.5-8.5
		c0-37.1,0-74.3,0-111.4C1008.9,695.5,978.5,665.1,940.9,665.1z M965.7,760.7c0,4.7-3.8,8.5-8.5,8.5c-71.5,0-143,0-214.5,0
		c-4.7,0-8.5-3.8-8.5-8.5c0-9.9,0-19.8,0-29.7c0-12.5,10.2-22.7,22.7-22.7c62,0,124.1,0,186.1,0c12.5,0,22.7,10.2,22.7,22.7
		C965.7,740.9,965.7,750.8,965.7,760.7z"/>
	<path class="st0" d="M1913.8,853c8.8,0,17.5,0,26.3,0c4.7,0,8.5-3.8,8.5-8.5c0-37.1,0-74.3,0-111.4c0-37.6-30.5-68-68-68
		c-60.7,0-121.3,0-182,0c-37.6,0-68,30.5-68,68c0,37.1,0,74.3,0,111.4c0,4.7,3.8,8.5,8.5,8.5c8.8,0,17.5,0,26.3,0
		c4.7,0,8.5-3.8,8.5-8.5c0-7.8,0-15.6,0-23.5c0-4.7,3.8-8.5,8.5-8.5c71.5,0,143,0,214.5,0c4.7,0,8.5,3.8,8.5,8.5
		c0,7.8,0,15.6,0,23.5C1905.3,849.2,1909.1,853,1913.8,853z M1896.8,769.2c-71.5,0-143,0-214.5,0c-4.7,0-8.5-3.8-8.5-8.5
		c0-9.9,0-19.8,0-29.7c0-12.5,10.2-22.7,22.7-22.7c62,0,124.1,0,186.1,0c12.5,0,22.7,10.2,22.7,22.7c0,9.9,0,19.8,0,29.6
		C1905.3,765.3,1901.5,769.2,1896.8,769.2z"/>
	<path class="st0" d="M264.5,844.5c0-7.8,0-15.6,0-23.5c0-4.7,3.8-8.5,8.5-8.5c64.1,0,128.3,0,192.4,0c40.7,0,73.7-33,73.7-73.7
		c0-40.7-33-73.7-73.7-73.7c-78.6,0-157.2,0-235.8,0c-4.7,0-8.5,3.8-8.5,8.5c0,57,0,113.9,0,170.9c0,4.7,3.8,8.5,8.5,8.5
		c8.8,0,17.6,0,26.4,0C260.7,853,264.5,849.2,264.5,844.5z M264.5,716.9c0-4.7,3.8-8.5,8.5-8.5c64.1,0,128.3,0,192.4,0
		c16.8,0,30.4,13.6,30.4,30.4c0,16.8-13.6,30.4-30.4,30.4c-64.1,0-128.3,0-192.4,0c-4.7,0-8.5-3.8-8.5-8.5
		C264.5,746.1,264.5,731.5,264.5,716.9z"/>
	<path class="st0" d="M1181.7,427.1c-23.3,15.8-47.3,30.6-71.8,44.5c-26.3,14.9-53.3,28.8-80.6,41.8c-2.9,1.4-5.8,2.8-8.8,4.1
		c-0.9,0.4-1.7,0.8-2.6,1.3c-18.6,10.8-22,36.2-6.8,51.5c6.1,6.1,14.5,9.6,23.1,9.6c503.3,0,1006.5,0,1509.8,0
		c8.7,0,17-3.4,23.1-9.6c10.5-10.5,12.6-26.7,5.2-39.5c-1.3-2.2-2.8-4.2-4.5-6.1c-15.3-16.2-31.5-31.6-48.4-46.2
		c-21.8-18.8-44.6-36.4-68.2-52.8c-25.1-17.5-51.1-33.8-77.7-49c-28.4-16.3-57.6-31.3-87.2-45.2c-35.6-16.8-71.8-32-108.6-45.8
		c-37.8-14.2-76-27.1-114.7-38.6c-45.2-13.5-90.9-25.3-136.9-35.5c-30.5-6.8-61.1-12.9-91.9-18.3c-42.3-7.5-84.8-13.8-127.5-18.8
		c-38.2-4.6-76.6-8.2-114.9-10.9c-51.3-3.6-102.7-5.6-154.1-6.1c-2.1,0-4.3,0-6.4,0c-6.7,0-13.3,2-18.9,5.9
		c-5.5,3.8-9.7,9.3-12.1,15.6c-2.6,7-5.4,14-8.4,20.8c-6.6,14.8-14.3,29.1-22.8,42.9c-9.7,15.7-20.4,30.7-31.9,45.1
		c-13,16.3-27,31.7-41.7,46.5c-16.5,16.5-33.9,32.1-51.9,46.9C1223.9,397.3,1203.1,412.7,1181.7,427.1z M1281.2,363.1
		c10.4-9.5,20.6-19.4,30.4-29.5c9.4-9.8,18.5-19.8,27.2-30.2c8-9.5,15.6-19.4,22.8-29.5c13.1-18.2,24.8-37.4,34.8-57.5
		c5.4-11,10.3-22.2,14.5-33.8c3.2-8.6,11.4-14.4,20.6-14.3c35.7,0.2,71.4,1.2,107.1,2.9c70.4,3.5,140.7,9.9,210.5,19.6
		c32.5,4.5,64.9,9.7,97.1,15.6c33.8,6.2,67.4,13.2,100.8,21c34.2,8,68.2,16.9,101.9,26.7c32.4,9.5,64.5,19.8,96.2,31.1
		c31.1,11.1,62,23.1,92.3,36.1c26.9,11.5,53.4,23.9,79.4,37.1c21.2,10.8,42,22.1,62.5,34.1c11,6.5,22,13.1,32.7,20
		c20.9,13.3,41.2,27.4,60.9,42.3c14.8,11.2,29.2,22.9,43.1,35.1c15.3,13.4,30,27.5,43.9,42.2c13.1,13.9,3.3,36.8-15.9,36.8
		c-503.3,0-1006.5,0-1509.8,0c-10.2,0-19.1-7.1-21.3-17.1c-2.2-10,2.8-20.2,12.1-24.5c38.9-18.1,77-38,113.8-60.1
		c15.3-9.1,30.3-18.7,45-28.6c27.2-18.3,53.5-37.9,78.5-59.2C1268.8,374.2,1275,368.7,1281.2,363.1z"/>
	<path class="st0" d="M2544.2,938.2c-751.2,0-1502.5,0-2253.7,0c-8.7,0-17,3.4-23.1,9.6c-12.5,12.5-12.8,32.7-0.7,45.6
		c3.5,3.7,7.1,7.4,10.7,11.1c9,9,18.2,17.8,27.7,26.3c20.8,18.7,42.7,36.1,65.3,52.5c23.8,17.2,48.4,33.2,73.6,48.3
		c19.1,11.4,38.5,22.1,58.2,32.4c26.6,13.8,53.6,26.7,81,38.7c14,6.1,28.1,12,42.3,17.8c16.7,6.7,33.5,13.1,50.4,19.3
		c34.5,12.5,69.4,23.9,104.6,34.2c39.7,11.6,79.7,22,120,31.1c46.4,10.5,93.2,19.4,140.2,26.8c47.2,7.5,94.7,13.4,142.2,18
		c84.7,8.1,169.8,11.7,254.8,11c51.4-0.4,102.8-2.4,154.1-6.1c38.4-2.7,76.7-6.3,114.9-10.9c42.7-5.1,85.2-11.4,127.5-18.8
		c30.7-5.4,61.4-11.5,91.9-18.3c46-10.2,91.7-22,136.9-35.5c38.7-11.6,76.9-24.4,114.7-38.6c36.8-13.9,73-29.1,108.6-45.8
		c29.6-14,58.7-29,87.2-45.2c26.6-15.2,52.6-31.5,77.7-49c23.6-16.5,46.4-34,68.2-52.8c16.9-14.6,33.1-30,48.4-46.2
		c12.1-12.9,11.8-33.1-0.7-45.6C2561.2,941.6,2552.8,938.2,2544.2,938.2z M2560,985.8c-13.9,14.8-28.6,28.8-43.9,42.2
		c-13.9,12.2-28.3,23.9-43.1,35.1c-19.7,14.9-40.1,29-60.9,42.3c-10.8,6.9-21.7,13.5-32.7,20c-20.5,12-41.3,23.4-62.5,34.1
		c-26.1,13.2-52.6,25.6-79.4,37.1c-30.4,13-61.2,25-92.3,36.1c-31.8,11.3-63.9,21.6-96.2,31.1c-33.7,9.8-67.7,18.7-101.9,26.7
		c-33.4,7.8-67.1,14.8-100.8,21c-32.3,5.9-64.6,11.1-97.1,15.6c-69.8,9.7-140.1,16.1-210.5,19.6c-54.7,2.7-109.5,3.6-164.2,2.6
		c-72.4-1.3-144.7-5.7-216.7-13.4c-39.9-4.3-79.6-9.5-119.2-15.9c-38-6.1-75.8-13.1-113.4-21.2c-35.6-7.7-71.1-16.2-106.2-25.8
		c-28.1-7.7-56.1-16-83.9-25c-24.3-7.9-48.4-16.3-72.3-25.3c-13.9-5.2-27.8-10.7-41.6-16.3c-34.7-14.2-68.9-29.7-102.3-46.6
		c-20.3-10.3-40.3-21.2-60-32.6c-19.5-11.3-38.6-23.3-57.2-35.8c-17.1-11.5-33.7-23.6-50-36.2c-15-11.7-29.6-24-43.6-36.8
		c-11.5-10.5-22.6-21.4-33.2-32.7c-13.1-13.9-3.3-36.8,15.9-36.8c751.2,0,1502.5,0,2253.7,0C2563.3,949.1,2573.2,971.9,2560,985.8z"
		/>
	<path class="st0" d="M669.7,1144.9c-3.8,10-9.8,17.4-20.2,13.5c-10.4-3.9-9.9-13.4-6.1-23.4c5.6-14.5,11.1-29,16.6-43.5
		c-6.7-2.6-13.5-5.1-20.2-7.7c-6,15.6-12,31.2-18,46.8c-8,20.6,2,35.1,21.9,42.6c19.9,7.5,37.1,3.3,44.9-17.4
		c5.9-15.6,11.9-31.3,17.8-46.9c-6.8-2.5-13.5-5.1-20.3-7.6C680.8,1115.9,675.2,1130.4,669.7,1144.9z"/>
	<path class="st0" d="M1709.9,1204.8c-3.9,18.5-7.8,37-11.8,55.5c-0.1,0-0.2,0-0.2,0c-7.9-17.1-15.7-34.3-23.5-51.4
		c-11.4,1.3-22.8,2.6-34.2,3.8c3,26.8,6.1,53.6,9.2,80.3c7.1-0.8,14.2-1.6,21.4-2.4c-2.6-20.5-5.1-41.1-7.6-61.6c0.1,0,0.2,0,0.2,0
		c9,19.8,18,39.6,27.1,59.4c6.7-0.8,13.4-1.5,20-2.3c4.5-21.4,9-42.7,13.4-64.1c0.1,0,0.2,0,0.2,0c2.4,20.6,4.7,41.1,7.1,61.7
		c7.1-0.8,14.2-1.7,21.3-2.5c-3.3-26.8-6.6-53.5-9.8-80.3C1731.8,1202.2,1720.9,1203.5,1709.9,1204.8z"/>
	<path class="st0" d="M2172,1092.8c6.6,17.1,13.1,34.2,19.8,51.2c-0.1,0-0.1,0.1-0.2,0.1c-15.1-13.9-30.2-27.8-45.2-41.8
		c-8.6,3.2-17.2,6.4-25.9,9.6c9.4,25.3,18.9,50.5,28.4,75.7c6.3-2.3,12.5-4.6,18.8-6.9c-6.7-17.2-13.5-34.3-20.2-51.5
		c0.1,0,0.1-0.1,0.2-0.1c15.4,14,30.8,27.9,46.2,41.8c8.4-3.2,16.9-6.3,25.3-9.5c-9.6-25.2-19.2-50.4-28.8-75.6
		C2184.3,1088.1,2178.2,1090.5,2172,1092.8z"/>
	<path class="st0" d="M1502.8,1221.1c1.1,26.9,2.1,53.8,3.2,80.8c7.3-0.3,14.6-0.6,21.9-0.9c-1.1-26.9-2.2-53.8-3.3-80.8
		C1517.3,1220.5,1510.1,1220.8,1502.8,1221.1z"/>
	<path class="st0" d="M1331.7,1302c7.3,0.2,14.6,0.4,21.9,0.6c0.8-26.9,1.6-53.8,2.4-80.8c-7.3-0.2-14.5-0.4-21.8-0.7
		C1333.4,1248.1,1332.5,1275,1331.7,1302z"/>
	<path class="st0" d="M737.6,1136.3c6.4,2,12.8,4,19.2,5.9c-6.5,20.6-13,41.3-19.5,61.9c6.9,2.2,13.9,4.3,20.8,6.4
		c6.5-20.6,13-41.3,19.4-61.9c6.4,2,12.8,3.9,19.2,5.9c1.6-5.1,3.2-10.2,4.7-15.3c-19.7-6-39.4-12.1-59-18.2
		C740.8,1126.2,739.2,1131.3,737.6,1136.3z"/>
	<path class="st0" d="M1427.6,1287.4c-0.2-21.6-0.3-43.2-0.5-64.8c-7.3,0.1-14.6,0.1-21.8,0.2c0.2,26.9,0.3,53.9,0.5,80.8
		c18.7-0.1,37.3-0.3,56-0.5c-0.1-5.3-0.1-10.6-0.2-16C1450.2,1287.2,1438.9,1287.3,1427.6,1287.4z"/>
	<path class="st0" d="M996.5,1239.6c-0.1,0-0.2,0-0.2,0c-2.5-18.6-4.9-37.3-7.4-55.9c-11.2-2-22.5-4.1-33.7-6.2
		c-5,26.5-9.9,53-14.9,79.4c7,1.3,14.1,2.6,21.1,3.9c3.7-20.4,7.3-40.8,10.9-61.1c0.1,0,0.2,0,0.2,0c2.8,21.5,5.5,43.1,8.3,64.6
		c6.6,1.2,13.2,2.4,19.8,3.6c10.6-19.1,21.2-38.3,31.7-57.4c0.1,0,0.2,0,0.2,0c-3.8,20.4-7.6,40.7-11.4,61c7,1.2,14.1,2.5,21.1,3.7
		c4.8-26.5,9.5-53.1,14.3-79.6c-10.8-1.9-21.7-3.8-32.5-5.7C1014.9,1206.5,1005.7,1223,996.5,1239.6z"/>
	<path class="st0" d="M2063.3,1198.7c-1.8-5.8-3.6-11.7-5.4-17.5c10.8-3.2,21.6-6.5,32.4-9.8c-1.5-4.9-3-9.7-4.5-14.6
		c-10.8,3.3-21.5,6.5-32.3,9.8c-1.6-5.3-3.2-10.6-4.9-16c11.4-3.4,22.8-6.9,34.2-10.3c-1.5-4.9-3-9.7-4.5-14.6
		c-18.3,5.6-36.6,11.1-54.9,16.5c7.8,25.8,15.6,51.6,23.5,77.4c18.9-5.6,37.7-11.3,56.5-17c-1.5-4.9-3-9.7-4.5-14.6
		C2087,1191.6,2075.2,1195.2,2063.3,1198.7z"/>
	<path class="st0" d="M491.9,1105.7c6.6,3.2,13.2,6.3,19.9,9.4c4.4-4.3,8.8-8.6,13.2-12.9c9.2,4.4,18.4,8.7,27.6,13
		c-0.6,6.1-1.3,12.1-1.9,18.2c7.2,3.4,14.4,6.7,21.6,10.1c2.1-28.8,4.1-57.6,6.2-86.4c-8-3.7-16-7.5-23.9-11.3
		C533.7,1065.9,512.8,1085.8,491.9,1105.7z M559.3,1066.6c-1.6,10.9-3.2,21.8-4.8,32.7c-6.2-2.9-12.3-5.8-18.4-8.7
		c7.7-8,15.4-16.1,23-24.1C559.2,1066.5,559.3,1066.6,559.3,1066.6z"/>
	<path class="st0" d="M1260.3,1217.5c-12.5-0.8-25-1.7-37.6-2.6c-1.9,26.9-3.9,53.8-5.8,80.6c11.5,0.8,23.1,1.6,34.6,2.4
		c14.7,1,32.3-1.9,33.6-21.2c0.7-9.8-4.6-15.9-15.4-18.9c0-0.1,0-0.2,0-0.2c9.4-2.4,15-7.7,15.7-17.9
		C1286.5,1225.8,1275.5,1218.5,1260.3,1217.5z M1263.4,1274c-0.6,8.2-9,8.8-17,8.2c-2.1-0.1-4.3-0.3-6.4-0.4
		c0.4-6.3,0.9-12.6,1.3-19c2.2,0.2,4.5,0.3,6.7,0.5C1255.5,1263.8,1264,1265.2,1263.4,1274z M1263.5,1241.1c-0.5,6.8-8,8.1-15.1,7.6
		c-2-0.1-4.1-0.3-6.1-0.4c0.4-5.5,0.8-11.1,1.2-16.6c2.1,0.1,4.2,0.3,6.3,0.4C1257.1,1232.6,1264,1233.7,1263.5,1241.1z"/>
	<path class="st0" d="M1935.7,1164.7c-9.6,2.3-19.2,4.6-28.9,6.8c6.3,26.2,12.6,52.4,18.9,78.6c9.7-2.3,19.4-4.6,29.1-6.9
		c27.2-6.5,44.6-21.6,37.4-50.9C1984.6,1162,1963.3,1158.2,1935.7,1164.7z M1951.4,1227.6c-2.7,0.7-5.5,1.3-8.2,2
		c-3.9-15.8-7.7-31.7-11.5-47.5c2.7-0.6,5.5-1.3,8.2-1.9c15.5-3.7,26.7,2.2,30.5,17.9C1974.2,1213.6,1967.3,1223.9,1951.4,1227.6z"
		/>
	<path class="st0" d="M874.9,1157.4c-26.1-6.4-43.5,5.5-50,30.6c-6.4,24.9,3.5,44,29.5,50.5c26,6.4,43.9-5.8,50.1-30.8
		C910.7,1182.5,900.9,1163.8,874.9,1157.4z M882.6,1202.3c-3.2,12.9-11.4,23.8-24.3,20.6c-12.9-3.2-14.9-16.6-11.6-29.5
		c3.4-13.6,11.5-23.7,24.3-20.6C883.8,1176.1,886,1188.8,882.6,1202.3z"/>
	<path class="st0" d="M1139.1,1205c-26.7-3.1-42.6,10.9-45.8,36.6c-3.2,25.5,9.1,43.2,35.8,46.4c26.7,3.1,42.9-11.2,45.9-36.7
		C1178,1225.5,1165.9,1208.2,1139.1,1205z M1152.6,1248.7c-1.6,13.2-8.3,25-21.6,23.5c-13.2-1.6-17-14.6-15.3-27.8
		c1.7-13.9,8.4-25,21.6-23.5C1150.4,1222.5,1154.2,1234.8,1152.6,1248.7z"/>
	<path class="st0" d="M2255.9,1057.5c2.2,28.7,4.3,57.4,6.5,86.2c6.7-3.1,13.3-6.2,20-9.3c-0.5-6.1-1.1-12.2-1.6-18.3
		c9.2-4.3,18.4-8.6,27.6-13c4.3,4.3,8.6,8.7,12.9,13c7.2-3.4,14.3-6.8,21.5-10.2c-21.1-19.8-42.1-39.7-63-59.6
		C2271.9,1050,2263.9,1053.8,2255.9,1057.5z M2278.8,1100.1c-1.4-11-2.7-22-4.1-33c0.1,0,0.1-0.1,0.2-0.1
		c7.4,8.2,14.8,16.3,22.3,24.5C2291.1,1094.3,2285,1097.2,2278.8,1100.1z"/>
	<path class="st0" d="M1824.6,1186.1c-26.5,4.7-37.6,22.7-33,48.3c4.5,25.3,21.5,38.7,48,34c26.5-4.7,37.6-23.1,32.9-48.4
		C1867.8,1194.4,1851.1,1181.4,1824.6,1186.1z M1836.7,1252.6c-13.1,2.3-20.6-9.1-22.9-22.2c-2.5-13.8,0.6-26.3,13.7-28.6
		c13-2.3,20.3,8.3,22.9,22.1C1852.7,1237.1,1849.8,1250.3,1836.7,1252.6z"/>
</g>
</svg>
