<?xml version="1.0" encoding="utf-8"?>
<!-- Generator: Adobe Illustrator 22.1.0, SVG Export Plug-In . SVG Version: 6.00 Build 0)  -->
<svg version="1.1" xmlns="http://www.w3.org/2000/svg" xmlns:xlink="http://www.w3.org/1999/xlink" x="0px" y="0px"
	 viewBox="0 0 283.5 142.8" style="enable-background:new 0 0 283.5 142.8;" xml:space="preserve">
<style type="text/css">
	.st0{fill:#FFFFFF;}
</style>
<g id="Hammerpraegung">
	<path class="st0" d="M108.2,72.7c0.2,0.4,0,0.9-0.4,1c-0.4,0.2-0.9,0-1-0.4c-0.2-0.5,0.5,0.1,0.9,0C108.1,73.2,108,72.2,108.2,72.7
		z"/>
	<path class="st0" d="M110.3,74.7c0.2,0.4,0,0.9-0.4,1.1c-0.4,0.2-0.9,0-1.1-0.4c-0.3-0.5,0.5,0.1,0.9-0.1
		C110.2,75.2,110,74.2,110.3,74.7z"/>
	<path class="st0" d="M109.9,73c0.2,0.4,0,0.9-0.3,1.1c-0.4,0.2-0.9,0-1.1-0.3c-0.3-0.5,0.5,0.1,0.9-0.1
		C109.9,73.5,109.7,72.5,109.9,73z"/>
	<path class="st0" d="M108.6,70.9c0.2,0.4,0,0.9-0.4,1.1c-0.4,0.2-0.9,0-1.1-0.4c-0.3-0.5,0.5,0.1,0.9-0.1
		C108.6,71.4,108.4,70.4,108.6,70.9z"/>
	<path class="st0" d="M107.4,69.7c0.2,0.4,0,0.9-0.4,1c-0.4,0.2-0.9,0-1-0.4c-0.2-0.5,0.5,0.1,0.9,0
		C107.3,70.2,107.2,69.2,107.4,69.7z"/>
	<path class="st0" d="M106.7,67.9c0.2,0.4,0.1,0.9-0.3,1.1c-0.4,0.2-0.9,0.1-1.1-0.3c-0.3-0.5,0.5,0,0.9-0.1
		C106.7,68.4,106.5,67.5,106.7,67.9z"/>
	<path class="st0" d="M106.6,66.2c0.2,0.4,0.1,0.9-0.3,1.1c-0.4,0.2-0.9,0.1-1.1-0.3c-0.3-0.5,0.5,0,0.9-0.1
		C106.6,66.7,106.4,65.8,106.6,66.2z"/>
	<path class="st0" d="M108.6,66.6c0.2,0.4,0.1,0.9-0.3,1.1c-0.4,0.2-0.9,0.1-1.1-0.3c-0.3-0.5,0.5,0,0.9-0.1
		C108.6,67.1,108.4,66.1,108.6,66.6z"/>
	<path class="st0" d="M109,68.5c0.2,0.4,0.1,0.9-0.3,1.1c-0.4,0.2-0.9,0.1-1.1-0.3c-0.3-0.5,0.5,0,0.9-0.1
		C109,68.9,108.8,68,109,68.5z"/>
	<path class="st0" d="M110.4,70.6c0.3,0.4,0.2,0.9-0.2,1.1c-0.4,0.3-0.9,0.2-1.1-0.2c-0.4-0.5,0.5,0,0.9-0.2
		C110.4,71.1,110.1,70.2,110.4,70.6z"/>
	<path class="st0" d="M110.6,66.8c0.3,0.4,0.2,0.9-0.2,1.1c-0.4,0.3-0.9,0.2-1.1-0.2c-0.4-0.5,0.5,0,0.9-0.2
		C110.6,67.3,110.3,66.4,110.6,66.8z"/>
	<path class="st0" d="M111.1,68.7c0.2,0.4,0.1,0.9-0.3,1.1c-0.4,0.2-0.9,0.1-1.1-0.3c-0.3-0.5,0.5,0,0.9-0.1
		C111.1,69.2,110.8,68.3,111.1,68.7z"/>
	<path class="st0" d="M112.4,70.6c0.3,0.4,0.2,0.9-0.2,1.1c-0.4,0.3-0.9,0.2-1.1-0.2c-0.3-0.5,0.5,0,0.9-0.2
		C112.4,71.1,112.1,70.2,112.4,70.6z"/>
	<path class="st0" d="M111.9,72.7c0.2,0.4,0.1,0.9-0.3,1.1c-0.4,0.2-0.9,0.1-1.1-0.3c-0.3-0.5,0.5,0.1,0.9-0.1
		C111.9,73.2,111.6,72.2,111.9,72.7z"/>
	<path class="st0" d="M112.6,74.2c0.2,0.4,0,0.9-0.4,1.1c-0.4,0.2-0.9,0-1.1-0.4c-0.3-0.5,0.5,0.1,0.9-0.1
		C112.5,74.7,112.3,73.7,112.6,74.2z"/>
	<path class="st0" d="M111.5,75.8c0.2,0.4,0.1,0.9-0.3,1.1c-0.4,0.2-0.9,0.1-1.1-0.3c-0.3-0.5,0.5,0.1,0.9-0.1
		C111.5,76.3,111.2,75.4,111.5,75.8z"/>
	<path class="st0" d="M114.2,74.8c0.2,0.4,0.1,0.9-0.3,1.1s-0.9,0.1-1.1-0.3c-0.3-0.5,0.5,0,0.9-0.2
		C114.2,75.3,113.9,74.4,114.2,74.8z"/>
	<path class="st0" d="M115.8,75.5c0.3,0.3,0.2,0.8-0.1,1.1c-0.3,0.3-0.8,0.2-1.1-0.1c-0.4-0.5,0.5,0,0.9-0.3
		C115.8,76,115.4,75.1,115.8,75.5z"/>
	<path class="st0" d="M118.1,75.9c0.2,0.4,0,0.9-0.4,1.1s-0.9,0-1.1-0.4c-0.3-0.5,0.5,0.1,0.9-0.1C118,76.4,117.9,75.5,118.1,75.9z"
		/>
	<path class="st0" d="M113.7,72.3c0.2,0.4,0.1,0.9-0.2,1.1c-0.4,0.2-0.9,0.1-1.1-0.2c-0.3-0.5,0.5,0,0.9-0.2
		C113.7,72.8,113.4,71.9,113.7,72.3z"/>
	<path class="st0" d="M115.4,72.8c0.2,0.4,0.1,0.9-0.2,1.1s-0.9,0.1-1.1-0.2c-0.3-0.5,0.5,0,0.9-0.2
		C115.4,73.3,115.1,72.4,115.4,72.8z"/>
	<path class="st0" d="M116.9,73.4c0.3,0.3,0.2,0.8-0.1,1.1c-0.3,0.3-0.8,0.2-1.1-0.1c-0.4-0.5,0.5-0.1,0.9-0.3
		C116.9,73.9,116.5,73,116.9,73.4z"/>
	<path class="st0" d="M112.9,66.6c0.3,0.4,0.2,0.9-0.2,1.1c-0.4,0.3-0.9,0.2-1.1-0.2c-0.3-0.5,0.5,0,0.9-0.2
		C112.9,67.1,112.6,66.1,112.9,66.6z"/>
	<path class="st0" d="M113.3,68.3c0.2,0.4,0.1,0.9-0.3,1.1c-0.4,0.2-0.9,0.1-1.1-0.3c-0.3-0.5,0.5,0,0.9-0.1
		C113.3,68.7,113,67.8,113.3,68.3z"/>
	<path class="st0" d="M114.4,70c0.3,0.3,0.2,0.9-0.1,1.1s-0.9,0.2-1.1-0.1c-0.4-0.5,0.5,0,0.9-0.3C114.4,70.5,114,69.6,114.4,70z"/>
	<path class="st0" d="M116.6,69c0.2,0.4,0,0.9-0.4,1.1c-0.4,0.2-0.9,0-1.1-0.4c-0.3-0.5,0.5,0.1,0.9-0.1
		C116.5,69.5,116.3,68.5,116.6,69z"/>
	<path class="st0" d="M117.2,66.9c0.3,0.3,0.2,0.8-0.1,1.1c-0.3,0.3-0.8,0.2-1.1-0.1c-0.4-0.5,0.5-0.1,0.9-0.3
		C117.3,67.4,116.9,66.5,117.2,66.9z"/>
	<path class="st0" d="M119.5,66.5c0.3,0.4,0.2,0.9-0.2,1.1c-0.4,0.3-0.9,0.2-1.1-0.2c-0.3-0.5,0.5,0,0.9-0.2
		C119.6,67,119.2,66.1,119.5,66.5z"/>
	<path class="st0" d="M118.5,68.6c0.3,0.3,0.2,0.9-0.1,1.1c-0.3,0.3-0.9,0.2-1.1-0.1c-0.4-0.5,0.5,0,0.9-0.3
		C118.6,69.1,118.2,68.2,118.5,68.6z"/>
	<path class="st0" d="M118.4,71.1c0.2,0.4,0,0.9-0.4,1c-0.4,0.2-0.9,0-1-0.4c-0.2-0.5,0.5,0.1,0.9,0
		C118.3,71.6,118.2,70.6,118.4,71.1z"/>
	<path class="st0" d="M119.6,72.4c0.2,0.4,0,0.9-0.4,1.1s-0.9,0-1.1-0.4c-0.3-0.5,0.5,0.1,0.9-0.1C119.6,72.9,119.4,71.9,119.6,72.4
		z"/>
	<path class="st0" d="M118.6,74.1c0.3,0.3,0.2,0.9-0.1,1.1c-0.3,0.3-0.9,0.2-1.1-0.1c-0.4-0.5,0.5,0,0.9-0.3
		C118.7,74.6,118.3,73.7,118.6,74.1z"/>
	<path class="st0" d="M120.8,74.2c0.2,0.4,0.1,0.9-0.3,1.1c-0.4,0.2-0.9,0.1-1.1-0.3c-0.3-0.5,0.5,0,0.9-0.1
		C120.8,74.7,120.5,73.7,120.8,74.2z"/>
	<path class="st0" d="M121.5,71.9c0.2,0.4,0,0.9-0.5,1c-0.4,0.2-0.9,0-1-0.5c-0.2-0.6,0.5,0.1,0.9,0
		C121.4,72.3,121.3,71.4,121.5,71.9z"/>
	<path class="st0" d="M119.9,69.5c0.2,0.4,0.1,0.9-0.2,1.1c-0.4,0.2-0.9,0.1-1.1-0.2c-0.3-0.5,0.5,0,0.9-0.2
		C119.9,70,119.6,69.1,119.9,69.5z"/>
	<path class="st0" d="M121.7,69.6c0.3,0.3,0.2,0.8-0.1,1.1s-0.8,0.2-1.1-0.1c-0.4-0.5,0.5,0,0.9-0.3C121.7,70,121.4,69.1,121.7,69.6
		z"/>
	<path class="st0" d="M121.5,67.5c0.2,0.4,0,0.9-0.5,1c-0.4,0.2-0.9,0-1-0.5c-0.2-0.6,0.5,0.1,0.9,0C121.4,67.9,121.3,67,121.5,67.5
		z"/>
	<path class="st0" d="M128.9,66.9c0.2,0.4,0,0.9-0.5,1s-0.9,0-1-0.5c-0.2-0.6,0.5,0.1,0.9,0C128.8,67.4,128.7,66.4,128.9,66.9z"/>
	<path class="st0" d="M130.2,68.6c0.2,0.4,0,0.9-0.4,1.1c-0.4,0.2-0.9,0-1.1-0.4c-0.3-0.5,0.5,0.1,0.9-0.1
		C130.1,69.1,130,68.2,130.2,68.6z"/>
	<path class="st0" d="M128.7,69.9c0.2,0.4-0.1,0.9-0.5,1c-0.4,0.2-0.9-0.1-1-0.5c-0.2-0.6,0.5,0.1,0.9,0
		C128.6,70.4,128.5,69.4,128.7,69.9z"/>
	<path class="st0" d="M128.9,71.4c0.3,0.3,0.2,0.8-0.1,1.1c-0.3,0.3-0.8,0.2-1.1-0.1c-0.4-0.5,0.5,0,0.9-0.3
		C128.9,71.9,128.5,71,128.9,71.4z"/>
	<path class="st0" d="M129.8,73c0.3,0.4,0.2,0.9-0.2,1.1c-0.4,0.3-0.9,0.2-1.1-0.2c-0.3-0.5,0.5,0,0.9-0.2
		C129.8,73.5,129.5,72.6,129.8,73z"/>
	<path class="st0" d="M128.1,74.5c0.2,0.4,0.1,0.9-0.3,1.1c-0.4,0.2-0.9,0.1-1.1-0.3c-0.3-0.5,0.5,0,0.9-0.1
		C128.1,75,127.9,74,128.1,74.5z"/>
	<path class="st0" d="M130.7,74.8c0.3,0.4,0.2,0.9-0.1,1.1c-0.4,0.3-0.9,0.2-1.1-0.1c-0.4-0.5,0.5,0,0.9-0.3
		C130.8,75.2,130.4,74.3,130.7,74.8z"/>
	<path class="st0" d="M132.5,73.8c0.2,0.4,0,0.9-0.4,1.1c-0.4,0.2-0.9,0-1.1-0.4c-0.3-0.5,0.5,0.1,0.9-0.1
		C132.4,74.2,132.3,73.3,132.5,73.8z"/>
	<path class="st0" d="M132.4,75.7c0.2,0.4,0,0.9-0.4,1.1c-0.4,0.2-0.9,0-1.1-0.4c-0.3-0.5,0.5,0.1,0.9-0.1
		C132.4,76.2,132.2,75.2,132.4,75.7z"/>
	<path class="st0" d="M138.3,76c0.2,0.4-0.1,0.9-0.5,1c-0.4,0.2-0.9-0.1-1-0.5c-0.2-0.6,0.5,0.1,0.9,0
		C138.2,76.5,138.1,75.5,138.3,76z"/>
	<path class="st0" d="M136.2,75.2c0.3,0.4,0.2,0.9-0.2,1.1c-0.4,0.3-0.9,0.2-1.1-0.2c-0.3-0.5,0.5,0,0.9-0.2
		C136.3,75.7,135.9,74.8,136.2,75.2z"/>
	<path class="st0" d="M134.2,75.1c0.2,0.4,0.1,0.9-0.3,1.1c-0.4,0.2-0.9,0.1-1.1-0.3c-0.3-0.5,0.5,0,0.9-0.2
		C134.2,75.6,133.9,74.7,134.2,75.1z"/>
	<path class="st0" d="M134,72.2c0.2,0.4,0.1,0.9-0.3,1.1c-0.4,0.2-0.9,0.1-1.1-0.3c-0.3-0.5,0.5,0,0.9-0.1
		C134,72.7,133.7,71.7,134,72.2z"/>
	<path class="st0" d="M131.7,72.1c0.3,0.4,0.2,0.9-0.2,1.1c-0.4,0.3-0.9,0.2-1.1-0.2c-0.3-0.5,0.5,0,0.9-0.2
		C131.7,72.5,131.4,71.6,131.7,72.1z"/>
	<path class="st0" d="M130.8,70.4c0.3,0.3,0.2,0.9-0.1,1.1c-0.3,0.3-0.9,0.2-1.1-0.1c-0.4-0.5,0.5,0,0.9-0.3
		C130.9,70.9,130.5,70,130.8,70.4z"/>
	<path class="st0" d="M133.2,70.6c0.2,0.4,0.1,0.9-0.3,1.1c-0.4,0.2-0.9,0.1-1.1-0.3c-0.3-0.5,0.5,0,0.9-0.1
		C133.2,71.1,132.9,70.2,133.2,70.6z"/>
	<path class="st0" d="M132.3,68.6c0.3,0.3,0.2,0.8-0.1,1.1c-0.3,0.3-0.8,0.2-1.1-0.1c-0.4-0.5,0.5-0.1,0.9-0.3
		C132.3,69.1,131.9,68.2,132.3,68.6z"/>
	<path class="st0" d="M131.3,67.1c0.2,0.4,0,0.9-0.5,1c-0.4,0.2-0.9,0-1-0.5c-0.2-0.6,0.5,0.1,0.9,0
		C131.2,67.5,131.1,66.6,131.3,67.1z"/>
	<path class="st0" d="M134.4,69.2c0.2,0.4,0.1,0.9-0.3,1.1c-0.4,0.2-0.9,0.1-1.1-0.3c-0.3-0.5,0.5,0,0.9-0.1
		C134.4,69.6,134.1,68.7,134.4,69.2z"/>
	<path class="st0" d="M135.8,70.8c0.2,0.4,0.1,0.9-0.3,1.1c-0.4,0.2-0.9,0.1-1.1-0.3c-0.3-0.5,0.5,0,0.9-0.2
		C135.8,71.3,135.5,70.3,135.8,70.8z"/>
	<path class="st0" d="M140.1,71.1c0.2,0.4,0.2,0.9-0.2,1.1c-0.4,0.2-0.9,0.2-1.1-0.2c-0.3-0.5,0.5,0,0.9-0.2
		C140.1,71.6,139.8,70.7,140.1,71.1z"/>
	<path class="st0" d="M138.1,70.7c0.2,0.4,0,0.9-0.4,1.1c-0.4,0.2-0.9,0-1.1-0.4c-0.2-0.5,0.5,0.1,0.9,0
		C138,71.2,137.8,70.2,138.1,70.7z"/>
	<path class="st0" d="M137.1,72.3c0.3,0.4,0.2,0.9-0.2,1.1c-0.4,0.3-0.9,0.2-1.1-0.2c-0.4-0.5,0.5,0,0.9-0.2
		C137.2,72.8,136.8,71.9,137.1,72.3z"/>
	<path class="st0" d="M135.4,73.6c0.2,0.4,0,0.9-0.4,1.1c-0.4,0.2-0.9,0-1.1-0.4c-0.3-0.5,0.5,0.1,0.9-0.1
		C135.4,74.1,135.2,73.1,135.4,73.6z"/>
	<path class="st0" d="M138,74.1c0.2,0.4,0,0.9-0.4,1.1c-0.4,0.2-0.9,0-1.1-0.4c-0.3-0.5,0.5,0.1,0.9-0.1
		C138,74.6,137.8,73.7,138,74.1z"/>
	<path class="st0" d="M140.2,75c0.2,0.4,0.1,0.9-0.2,1.1c-0.4,0.2-0.9,0.1-1.1-0.2c-0.3-0.5,0.5,0,0.9-0.2
		C140.2,75.5,139.9,74.6,140.2,75z"/>
	<path class="st0" d="M141.5,73.7c0.2,0.4,0,0.9-0.4,1.1c-0.4,0.2-0.9,0-1.1-0.4c-0.2-0.5,0.5,0.1,0.9,0
		C141.4,74.1,141.3,73.2,141.5,73.7z"/>
	<path class="st0" d="M139.7,72.9c0.2,0.4,0,0.9-0.4,1.1c-0.4,0.2-0.9,0-1.1-0.4c-0.3-0.5,0.5,0.1,0.9-0.1
		C139.6,73.4,139.4,72.4,139.7,72.9z"/>
	<path class="st0" d="M125.9,66.9c0.2,0.4,0,0.9-0.4,1.1c-0.4,0.2-0.9,0-1.1-0.4c-0.3-0.5,0.5,0.1,0.9-0.1
		C125.9,67.4,125.7,66.4,125.9,66.9z"/>
	<path class="st0" d="M127.5,68.2c0.2,0.4,0.1,0.9-0.2,1.1c-0.4,0.2-0.9,0.1-1.1-0.2c-0.3-0.5,0.5,0,0.9-0.2
		C127.5,68.7,127.2,67.8,127.5,68.2z"/>
	<path class="st0" d="M125.5,68.9c0.3,0.4,0.2,0.9-0.2,1.1c-0.4,0.3-0.9,0.2-1.1-0.2c-0.3-0.5,0.5,0,0.9-0.2
		C125.5,69.3,125.1,68.4,125.5,68.9z"/>
	<path class="st0" d="M126.1,70.8c0.3,0.3,0.2,0.8-0.1,1.1c-0.3,0.3-0.8,0.2-1.1-0.1c-0.4-0.5,0.5,0,0.9-0.3
		C126.1,71.3,125.7,70.4,126.1,70.8z"/>
	<path class="st0" d="M125,72.7c0.2,0.4,0.1,0.9-0.3,1.1c-0.4,0.2-0.9,0.1-1.1-0.3c-0.3-0.5,0.5,0,0.9-0.2
		C125,73.1,124.8,72.2,125,72.7z"/>
	<path class="st0" d="M125.9,74.2c0.3,0.3,0.2,0.9-0.1,1.1c-0.3,0.3-0.9,0.2-1.1-0.1c-0.4-0.5,0.5,0,0.9-0.3
		C125.9,74.7,125.6,73.8,125.9,74.2z"/>
	<path class="st0" d="M127.2,72.5c0.3,0.4,0.2,0.9-0.2,1.1c-0.4,0.3-0.9,0.2-1.1-0.2c-0.3-0.5,0.5,0,0.9-0.2
		C127.3,73,126.9,72.1,127.2,72.5z"/>
	<path class="st0" d="M126.5,75.8c0.2,0.4,0.1,0.9-0.3,1.1c-0.4,0.2-0.9,0.1-1.1-0.3c-0.3-0.5,0.5,0,0.9-0.1
		C126.4,76.3,126.2,75.4,126.5,75.8z"/>
	<path class="st0" d="M128.8,76c0.3,0.4,0.2,0.9-0.2,1.1c-0.4,0.3-0.9,0.2-1.1-0.2c-0.3-0.5,0.5,0,0.9-0.2
		C128.9,76.5,128.5,75.6,128.8,76z"/>
	<path class="st0" d="M123.6,67.3c0.3,0.4,0.2,0.9-0.2,1.1c-0.4,0.3-0.9,0.2-1.1-0.2c-0.3-0.5,0.5,0,0.9-0.2
		C123.6,67.8,123.3,66.9,123.6,67.3z"/>
	<path class="st0" d="M123.6,69.3c0.3,0.4,0.2,0.9-0.1,1.1c-0.4,0.3-0.9,0.2-1.1-0.1c-0.4-0.5,0.5,0,0.9-0.2
		C123.6,69.8,123.2,68.9,123.6,69.3z"/>
	<path class="st0" d="M123.7,71.5c0.2,0.4,0,0.9-0.4,1.1c-0.4,0.2-0.9,0-1.1-0.4c-0.2-0.5,0.5,0.1,0.9,0
		C123.7,72,123.5,71,123.7,71.5z"/>
	<path class="st0" d="M122.9,73.5c0.2,0.4,0.1,0.9-0.3,1.1c-0.4,0.2-0.9,0.1-1.1-0.3c-0.3-0.5,0.5,0,0.9-0.1
		C122.9,73.9,122.6,73,122.9,73.5z"/>
	<path class="st0" d="M123.8,74.9c0.3,0.4,0.2,0.9-0.2,1.1c-0.4,0.3-0.9,0.2-1.1-0.2c-0.3-0.5,0.5,0,0.9-0.2
		C123.8,75.4,123.4,74.5,123.8,74.9z"/>
	<path class="st0" d="M121.7,75.7c0.2,0.4,0.1,0.9-0.3,1.1c-0.4,0.2-0.9,0.1-1.1-0.3c-0.3-0.5,0.5,0,0.9-0.1
		C121.7,76.2,121.4,75.2,121.7,75.7z"/>
	<path class="st0" d="M115.1,67.3c0.2,0.4,0.1,0.9-0.2,1.1c-0.4,0.2-0.9,0.1-1.1-0.2c-0.3-0.5,0.5,0,0.9-0.2
		C115.1,67.8,114.8,66.8,115.1,67.3z"/>
	<path class="st0" d="M159.1,45.4c0.3,0.4,0.2,0.9-0.2,1.1c-0.4,0.3-0.9,0.2-1.1-0.2c-0.4-0.5,0.5,0,0.9-0.2
		C159.1,45.8,158.8,44.9,159.1,45.4z"/>
	<path class="st0" d="M162.1,46c0.2,0.4,0.1,0.9-0.2,1.1c-0.4,0.2-0.9,0.1-1.1-0.2c-0.3-0.5,0.5,0,0.9-0.2
		C162.2,46.5,161.8,45.5,162.1,46z"/>
	<path class="st0" d="M160.8,47.7c0.2,0.4,0.1,0.9-0.2,1.1c-0.4,0.2-0.9,0.1-1.1-0.2c-0.3-0.5,0.5,0,0.9-0.2
		C160.9,48.2,160.6,47.3,160.8,47.7z"/>
	<path class="st0" d="M162.3,49.4c0.2,0.4,0,0.9-0.4,1c-0.4,0.2-0.9,0-1-0.4c-0.2-0.5,0.5,0.1,0.9,0
		C162.2,49.8,162.1,48.9,162.3,49.4z"/>
	<path class="st0" d="M163.5,51c0.2,0.4,0,0.9-0.4,1c-0.4,0.2-0.9,0-1-0.4c-0.2-0.5,0.5,0.1,0.9,0C163.4,51.5,163.3,50.5,163.5,51z"
		/>
	<path class="st0" d="M165.6,51.2c0.2,0.4,0,0.9-0.4,1c-0.4,0.2-0.9,0-1-0.4c-0.2-0.5,0.5,0.1,0.9,0
		C165.6,51.7,165.4,50.7,165.6,51.2z"/>
	<path class="st0" d="M165.6,53.1c0.2,0.4,0,0.9-0.4,1.1c-0.4,0.2-0.9,0-1.1-0.4c-0.3-0.5,0.5,0.1,0.9-0.1
		C165.6,53.6,165.4,52.6,165.6,53.1z"/>
	<path class="st0" d="M167.6,53.7c0.2,0.4,0,0.9-0.3,1.1c-0.4,0.2-0.9,0-1.1-0.3c-0.3-0.5,0.5,0.1,0.9-0.1
		C167.5,54.2,167.3,53.2,167.6,53.7z"/>
	<path class="st0" d="M169.8,53.5c0.2,0.4,0.1,0.9-0.3,1.1s-0.9,0.1-1.1-0.3c-0.3-0.5,0.5,0,0.9-0.2C169.8,53.9,169.5,53,169.8,53.5
		z"/>
	<path class="st0" d="M167.4,51.8c0.2,0.4,0.1,0.9-0.2,1.1c-0.4,0.2-0.9,0.1-1.1-0.2c-0.3-0.5,0.5,0,0.9-0.2
		C167.4,52.2,167.1,51.3,167.4,51.8z"/>
	<path class="st0" d="M164.6,49.1c0.3,0.4,0.2,0.9-0.2,1.1c-0.4,0.3-0.9,0.2-1.1-0.2c-0.4-0.5,0.5,0,0.9-0.2
		C164.6,49.5,164.3,48.6,164.6,49.1z"/>
	<path class="st0" d="M163.7,47.6c0.2,0.4,0.1,0.9-0.3,1.1c-0.4,0.2-0.9,0.1-1.1-0.3c-0.3-0.5,0.5,0,0.9-0.1
		C163.7,48.1,163.5,47.2,163.7,47.6z"/>
	<path class="st0" d="M163.2,44.5c0.3,0.4,0.2,0.9-0.2,1.1c-0.4,0.3-0.9,0.2-1.1-0.2c-0.4-0.5,0.5,0,0.9-0.2
		C163.2,45,162.9,44.1,163.2,44.5z"/>
	<path class="st0" d="M164.8,45.9c0.2,0.4,0,0.9-0.4,1.1c-0.4,0.2-0.9,0-1.1-0.4c-0.3-0.5,0.5,0.1,0.9-0.1
		C164.8,46.4,164.6,45.4,164.8,45.9z"/>
	<path class="st0" d="M166.2,47.5c0.2,0.4,0.2,0.9-0.2,1.1c-0.4,0.2-0.9,0.2-1.1-0.2c-0.3-0.5,0.5,0,0.9-0.2
		C166.2,47.9,165.9,47,166.2,47.5z"/>
	<path class="st0" d="M166.7,49.4c0.2,0.4,0,0.9-0.4,1.1c-0.4,0.2-0.9,0-1.1-0.4c-0.2-0.5,0.5,0.1,0.9,0
		C166.7,49.9,166.5,48.9,166.7,49.4z"/>
	<path class="st0" d="M168.3,49.9c0.3,0.3,0.2,0.8-0.1,1.1c-0.3,0.3-0.8,0.2-1.1-0.1c-0.4-0.5,0.5,0,0.9-0.3
		C168.4,50.4,168,49.5,168.3,49.9z"/>
	<path class="st0" d="M166.5,44.7c0.2,0.4,0.1,0.9-0.3,1.1c-0.4,0.2-0.9,0.1-1.1-0.3c-0.3-0.5,0.5,0,0.9-0.2
		C166.5,45.2,166.3,44.2,166.5,44.7z"/>
	<path class="st0" d="M168.1,45.8c0.2,0.4,0,0.9-0.4,1.1c-0.4,0.2-0.9,0-1.1-0.4c-0.3-0.5,0.5,0.1,0.9-0.1
		C168.1,46.3,167.9,45.3,168.1,45.8z"/>
	<path class="st0" d="M168.3,47.7c0.2,0.4,0.2,0.9-0.2,1.1c-0.4,0.2-0.9,0.2-1.1-0.2c-0.3-0.5,0.5,0,0.9-0.2
		C168.3,48.2,168,47.2,168.3,47.7z"/>
	<path class="st0" d="M169.8,48.9c0.3,0.3,0.2,0.9-0.1,1.1c-0.3,0.3-0.9,0.2-1.1-0.1c-0.4-0.5,0.5,0,0.9-0.3
		C169.8,49.4,169.5,48.5,169.8,48.9z"/>
	<path class="st0" d="M170.2,51.5c0.2,0.4,0,0.9-0.4,1.1c-0.4,0.2-0.9,0-1.1-0.4c-0.2-0.5,0.5,0.1,0.9,0
		C170.2,51.9,170,51,170.2,51.5z"/>
	<path class="st0" d="M171.9,53c0.2,0.4,0,0.9-0.4,1.1c-0.4,0.2-0.9,0-1.1-0.4c-0.3-0.5,0.5,0.1,0.9-0.1
		C171.8,53.5,171.6,52.5,171.9,53z"/>
	<path class="st0" d="M173.4,53.6c0.3,0.4,0.2,0.9-0.1,1.1c-0.4,0.3-0.9,0.2-1.1-0.1c-0.4-0.5,0.5,0,0.9-0.3
		C173.4,54.1,173,53.2,173.4,53.6z"/>
	<path class="st0" d="M173,51.5c0.2,0.4,0.2,0.9-0.2,1.1c-0.4,0.2-0.9,0.2-1.1-0.2c-0.3-0.5,0.5,0,0.9-0.2
		C173.1,51.9,172.8,51,173,51.5z"/>
	<path class="st0" d="M171.7,50c0.2,0.4,0.1,0.9-0.3,1.1c-0.4,0.2-0.9,0.1-1.1-0.3c-0.3-0.5,0.5,0,0.9-0.1
		C171.7,50.5,171.4,49.5,171.7,50z"/>
	<path class="st0" d="M171.5,48.1c0.2,0.4,0,0.9-0.4,1.1c-0.4,0.2-0.9,0-1.1-0.4c-0.2-0.5,0.5,0.1,0.9,0
		C171.4,48.6,171.3,47.6,171.5,48.1z"/>
	<path class="st0" d="M170.1,46.7c0.2,0.4,0.1,0.9-0.3,1.1c-0.4,0.2-0.9,0.1-1.1-0.3c-0.3-0.5,0.5,0,0.9-0.1
		C170.1,47.2,169.8,46.3,170.1,46.7z"/>
	<path class="st0" d="M169.7,44.4c0.3,0.4,0.2,0.9-0.2,1.1c-0.4,0.3-0.9,0.2-1.1-0.2c-0.3-0.5,0.5,0,0.9-0.2
		C169.7,44.9,169.4,44,169.7,44.4z"/>
	<path class="st0" d="M171.9,45.8c0.2,0.4,0,0.9-0.4,1c-0.4,0.2-0.9,0-1-0.4c-0.2-0.5,0.5,0.1,0.9,0
		C171.8,46.3,171.7,45.3,171.9,45.8z"/>
	<path class="st0" d="M173.4,47.2c0.3,0.3,0.2,0.9-0.1,1.1c-0.3,0.3-0.9,0.2-1.1-0.1c-0.4-0.5,0.5,0,0.9-0.3
		C173.4,47.6,173.1,46.7,173.4,47.2z"/>
	<path class="st0" d="M173.4,49.5c0.2,0.4,0.1,0.9-0.3,1.1c-0.4,0.2-0.9,0.1-1.1-0.3c-0.3-0.5,0.5,0,0.9-0.1
		C173.4,50,173.1,49,173.4,49.5z"/>
	<path class="st0" d="M172.4,43.9c0.2,0.4,0.1,0.9-0.3,1.1c-0.4,0.2-0.9,0.1-1.1-0.3c-0.3-0.5,0.5,0,0.9-0.1
		C172.3,44.4,172.1,43.4,172.4,43.9z"/>
	<path class="st0" d="M174,44.9c0.2,0.4,0.1,0.9-0.3,1.1c-0.4,0.2-0.9,0.1-1.1-0.3c-0.3-0.5,0.5,0,0.9-0.1
		C173.9,45.4,173.7,44.4,174,44.9z"/>
	<path class="st0" d="M175.7,46.7c0.2,0.4,0,0.9-0.4,1.1c-0.4,0.2-0.9,0-1.1-0.4c-0.2-0.5,0.5,0.1,0.9,0
		C175.6,47.2,175.5,46.2,175.7,46.7z"/>
	<path class="st0" d="M175.2,48.8c0.2,0.4,0.1,0.9-0.3,1.1c-0.4,0.2-0.9,0.1-1.1-0.3c-0.3-0.5,0.5,0,0.9-0.1
		C175.2,49.3,175,48.3,175.2,48.8z"/>
	<path class="st0" d="M175.3,51c0.2,0.4,0.1,0.9-0.3,1.1c-0.4,0.2-0.9,0.1-1.1-0.3c-0.3-0.5,0.5,0,0.9-0.1
		C175.3,51.5,175,50.6,175.3,51z"/>
	<path class="st0" d="M175.4,53c0.2,0.4,0.1,0.9-0.2,1.1c-0.4,0.2-0.9,0.1-1.1-0.2c-0.3-0.5,0.5,0,0.9-0.2
		C175.4,53.4,175.1,52.5,175.4,53z"/>
	<path class="st0" d="M176.6,44.9c0.2,0.4,0,0.9-0.4,1.1c-0.4,0.2-0.9,0-1.1-0.4c-0.3-0.5,0.5,0.1,0.9-0.1
		C176.6,45.4,176.4,44.4,176.6,44.9z"/>
	<path class="st0" d="M178.8,44.4c0.2,0.4,0,0.9-0.4,1.1c-0.4,0.2-0.9,0-1.1-0.4c-0.3-0.5,0.5,0.1,0.9-0.1
		C178.8,44.9,178.6,43.9,178.8,44.4z"/>
	<path class="st0" d="M180.9,44.9c0.2,0.4,0.1,0.9-0.2,1.1c-0.4,0.2-0.9,0.1-1.1-0.2c-0.3-0.5,0.5,0,0.9-0.2
		C180.9,45.4,180.6,44.5,180.9,44.9z"/>
	<path class="st0" d="M179.7,46.7c0.2,0.4-0.1,0.9-0.5,1c-0.4,0.2-0.9-0.1-1-0.5c-0.2-0.6,0.5,0.1,0.9,0
		C179.6,47.1,179.5,46.2,179.7,46.7z"/>
	<path class="st0" d="M177.6,46.4c0.3,0.3,0.2,0.8-0.1,1.1c-0.3,0.3-0.8,0.2-1.1-0.1c-0.4-0.5,0.5-0.1,0.9-0.3
		C177.7,46.9,177.3,46,177.6,46.4z"/>
	<path class="st0" d="M177.2,49c0.2,0.4,0,0.9-0.5,1c-0.4,0.2-0.9,0-1-0.5c-0.2-0.6,0.5,0.1,0.9,0C177.1,49.5,177,48.5,177.2,49z"/>
	<path class="st0" d="M179.1,48.5c0.2,0.4,0.1,0.9-0.3,1.1c-0.4,0.2-0.9,0.1-1.1-0.3c-0.3-0.5,0.5,0,0.9-0.1
		C179.1,49,178.8,48,179.1,48.5z"/>
	<path class="st0" d="M177.3,50.9c0.2,0.4,0.1,0.9-0.3,1.1s-0.9,0.1-1.1-0.3c-0.3-0.5,0.5,0,0.9-0.1C177.3,51.4,177,50.5,177.3,50.9
		z"/>
	<path class="st0" d="M177.4,53c0.2,0.4,0,0.9-0.4,1.1c-0.4,0.2-0.9,0-1.1-0.4c-0.3-0.5,0.5,0.1,0.9-0.1
		C177.4,53.5,177.2,52.5,177.4,53z"/>
	<path class="st0" d="M179.6,53.5c0.2,0.4,0.1,0.9-0.3,1.1c-0.4,0.2-0.9,0.1-1.1-0.3c-0.3-0.5,0.5,0,0.9-0.1
		C179.6,54,179.3,53.1,179.6,53.5z"/>
	<path class="st0" d="M179.3,51.9c0.2,0.4,0,0.9-0.4,1.1c-0.4,0.2-0.9,0-1.1-0.4c-0.2-0.5,0.5,0.1,0.9,0
		C179.3,52.4,179.1,51.5,179.3,51.9z"/>
	<path class="st0" d="M179.1,50.1c0.2,0.4,0.1,0.9-0.2,1.1s-0.9,0.1-1.1-0.2c-0.3-0.5,0.5,0,0.9-0.2
		C179.1,50.6,178.8,49.7,179.1,50.1z"/>
	<path class="st0" d="M180.8,49c0.3,0.4,0.2,0.9-0.1,1.1c-0.4,0.3-0.9,0.2-1.1-0.1c-0.4-0.5,0.5,0,0.9-0.3
		C180.8,49.4,180.5,48.5,180.8,49z"/>
	<path class="st0" d="M181,52c0.3,0.3,0.2,0.9-0.1,1.1c-0.3,0.3-0.9,0.2-1.1-0.1c-0.4-0.5,0.5,0,0.9-0.3
		C181.1,52.5,180.7,51.6,181,52z"/>
	<path class="st0" d="M181.2,46.8c0.3,0.3,0.2,0.8-0.1,1.1c-0.3,0.3-0.8,0.2-1.1-0.1c-0.4-0.5,0.5-0.1,0.9-0.3
		C181.3,47.2,180.9,46.3,181.2,46.8z"/>
	<path class="st0" d="M161,44.6c0.2,0.4,0.1,0.9-0.2,1.1c-0.4,0.2-0.9,0.1-1.1-0.2c-0.3-0.5,0.5,0,0.9-0.2
		C161,45.1,160.7,44.2,161,44.6z"/>
	<path class="st0" d="M159,47.3c0.2,0.4,0,0.9-0.4,1.1c-0.4,0.2-0.9,0-1.1-0.4c-0.3-0.5,0.5,0.1,0.9-0.1
		C158.9,47.8,158.7,46.9,159,47.3z"/>
	<path class="st0" d="M159.2,49.3c0.3,0.4,0.2,0.9-0.2,1.1c-0.4,0.3-0.9,0.2-1.1-0.2c-0.4-0.5,0.5,0,0.9-0.2
		C159.2,49.7,158.8,48.8,159.2,49.3z"/>
	<path class="st0" d="M160.6,50.5c0.3,0.3,0.2,0.8-0.1,1.1c-0.3,0.3-0.8,0.2-1.1-0.1c-0.4-0.5,0.5-0.1,0.9-0.3
		C160.6,51,160.2,50.1,160.6,50.5z"/>
	<path class="st0" d="M159,52c0.2,0.4,0.1,0.9-0.2,1.1c-0.4,0.2-0.9,0.1-1.1-0.2c-0.3-0.5,0.5,0,0.9-0.2
		C159.1,52.5,158.8,51.6,159,52z"/>
	<path class="st0" d="M160,53.5c0.3,0.4,0.2,0.9-0.1,1.1c-0.4,0.3-0.9,0.2-1.1-0.1c-0.4-0.5,0.5,0,0.9-0.3
		C160.1,54,159.7,53.1,160,53.5z"/>
	<path class="st0" d="M161.6,52.1c0.2,0.4,0.1,0.9-0.2,1.1c-0.4,0.2-0.9,0.1-1.1-0.2c-0.3-0.5,0.5,0,0.9-0.2
		C161.6,52.6,161.3,51.7,161.6,52.1z"/>
	<path class="st0" d="M163.1,53.2c0.2,0.4,0.1,0.9-0.3,1.1c-0.4,0.2-0.9,0.1-1.1-0.3c-0.3-0.5,0.5,0,0.9-0.1
		C163,53.6,162.8,52.7,163.1,53.2z"/>
	<path class="st0" d="M142.9,24.1c0.2,0.4-0.1,0.9-0.5,1c-0.4,0.2-0.9-0.1-1-0.5c-0.2-0.6,0.5,0.1,0.9,0
		C142.8,24.6,142.7,23.6,142.9,24.1z"/>
	<path class="st0" d="M144.1,25.8c0.2,0.4-0.1,0.9-0.5,1c-0.4,0.2-0.9-0.1-1-0.5c-0.2-0.6,0.5,0.1,0.9,0
		C144,26.3,143.9,25.3,144.1,25.8z"/>
	<path class="st0" d="M145,23.8c0.2,0.4,0,0.9-0.4,1.1c-0.4,0.2-0.9,0-1.1-0.4c-0.3-0.5,0.5,0.1,0.9-0.1
		C144.9,24.3,144.8,23.3,145,23.8z"/>
	<path class="st0" d="M147,23.9c0.3,0.4,0.2,0.9-0.2,1.1c-0.4,0.3-0.9,0.2-1.1-0.2c-0.3-0.5,0.5,0,0.9-0.2
		C147,24.4,146.7,23.4,147,23.9z"/>
	<path class="st0" d="M147.8,25.6c0.2,0.4,0.1,0.9-0.3,1.1c-0.4,0.2-0.9,0.1-1.1-0.3c-0.3-0.5,0.5,0,0.9-0.1
		C147.8,26.1,147.5,25.1,147.8,25.6z"/>
	<path class="st0" d="M149.2,23.5c0.2,0.4,0.1,0.9-0.3,1.1c-0.4,0.2-0.9,0.1-1.1-0.3c-0.3-0.5,0.5,0,0.9-0.1
		C149.2,24,149,23,149.2,23.5z"/>
	<path class="st0" d="M162.3,23.9c0.2,0.4,0.2,0.9-0.2,1.1c-0.4,0.2-0.9,0.2-1.1-0.2c-0.3-0.5,0.5,0,0.9-0.2
		C162.3,24.4,162,23.5,162.3,23.9z"/>
	<path class="st0" d="M163.9,25.1c0.2,0.4,0.1,0.9-0.2,1.1c-0.4,0.2-0.9,0.1-1.1-0.2c-0.3-0.5,0.5,0,0.9-0.2
		C163.9,25.6,163.6,24.7,163.9,25.1z"/>
	<path class="st0" d="M163.6,27.3c0.2,0.4,0.1,0.9-0.3,1.1c-0.4,0.2-0.9,0.1-1.1-0.3c-0.3-0.5,0.5,0,0.9-0.1
		C163.6,27.7,163.3,26.8,163.6,27.3z"/>
	<path class="st0" d="M163.6,29.6c0.3,0.3,0.2,0.9-0.1,1.1c-0.3,0.3-0.9,0.2-1.1-0.1c-0.4-0.5,0.5,0,0.9-0.3
		C163.7,30,163.3,29.1,163.6,29.6z"/>
	<path class="st0" d="M164.2,31.7c0.3,0.4,0.2,0.9-0.2,1.1c-0.4,0.3-0.9,0.2-1.1-0.2c-0.4-0.5,0.5,0,0.9-0.2
		C164.3,32.1,163.9,31.2,164.2,31.7z"/>
	<path class="st0" d="M169.8,23.4c0.2,0.4,0,0.9-0.4,1.1c-0.4,0.2-0.9,0-1.1-0.4c-0.3-0.5,0.5,0.1,0.9-0.1
		C169.8,23.8,169.6,22.9,169.8,23.4z"/>
	<path class="st0" d="M172.2,22.8c0.3,0.4,0.2,0.9-0.2,1.1s-0.9,0.2-1.1-0.2c-0.4-0.5,0.5,0,0.9-0.2
		C172.2,23.3,171.9,22.4,172.2,22.8z"/>
	<path class="st0" d="M177.2,23.3c0.2,0.4,0.1,0.9-0.2,1.1c-0.4,0.2-0.9,0.1-1.1-0.2c-0.3-0.5,0.5,0,0.9-0.2
		C177.3,23.8,176.9,22.9,177.2,23.3z"/>
	<path class="st0" d="M180.8,23.6c0.2,0.4,0,0.9-0.5,1c-0.4,0.2-0.9,0-1-0.5c-0.2-0.6,0.5,0.1,0.9,0C180.7,24,180.6,23.1,180.8,23.6
		z"/>
	<path class="st0" d="M181.5,25.2c0.3,0.4,0.2,0.9-0.2,1.1c-0.4,0.3-0.9,0.2-1.1-0.2c-0.4-0.5,0.5,0,0.9-0.2
		C181.6,25.7,181.2,24.8,181.5,25.2z"/>
	<path class="st0" d="M179,24.7c0.2,0.4,0,0.9-0.3,1.1c-0.4,0.2-0.9,0-1.1-0.3c-0.3-0.5,0.5,0.1,0.9-0.1
		C179,25.2,178.8,24.3,179,24.7z"/>
	<path class="st0" d="M180,26.7c0.2,0.4,0,0.9-0.5,1c-0.4,0.2-0.9,0-1-0.5c-0.2-0.6,0.5,0.1,0.9,0C180,27.2,179.8,26.2,180,26.7z"/>
	<path class="st0" d="M180.6,28.3c0.3,0.4,0.2,0.9-0.2,1.1s-0.9,0.2-1.1-0.2c-0.4-0.5,0.5,0,0.9-0.2
		C180.7,28.8,180.3,27.9,180.6,28.3z"/>
	<path class="st0" d="M177.9,27.3c0.3,0.4,0.2,0.9-0.2,1.1c-0.4,0.3-0.9,0.2-1.1-0.2c-0.4-0.5,0.5,0,0.9-0.2
		C177.9,27.8,177.5,26.9,177.9,27.3z"/>
	<path class="st0" d="M178.6,28.9c0.3,0.3,0.2,0.9-0.1,1.1c-0.3,0.3-0.9,0.2-1.1-0.1c-0.4-0.5,0.5,0,0.9-0.3
		C178.7,29.4,178.3,28.5,178.6,28.9z"/>
	<path class="st0" d="M180,30.7c0.2,0.4,0.2,0.9-0.2,1.1c-0.4,0.2-0.9,0.2-1.1-0.2c-0.3-0.5,0.5,0,0.9-0.2
		C180,31.2,179.7,30.3,180,30.7z"/>
	<path class="st0" d="M180.4,32.4c0.2,0.4,0.1,0.9-0.3,1.1c-0.4,0.2-0.9,0.1-1.1-0.3c-0.3-0.5,0.5,0,0.9-0.1
		C180.3,32.9,180.1,32,180.4,32.4z"/>
	<path class="st0" d="M175.3,25.1c0.2,0.4,0,0.9-0.4,1.1c-0.4,0.2-0.9,0-1.1-0.4c-0.3-0.5,0.5,0.1,0.9-0.1
		C175.3,25.6,175.1,24.6,175.3,25.1z"/>
	<path class="st0" d="M177.2,25.7c0.2,0.4,0.1,0.9-0.3,1.1c-0.4,0.2-0.9,0.1-1.1-0.3c-0.3-0.5,0.5,0.1,0.9-0.1
		C177.1,26.1,176.9,25.2,177.2,25.7z"/>
	<path class="st0" d="M175.2,27.1c0.2,0.4,0,0.9-0.4,1c-0.4,0.2-0.9,0-1-0.4c-0.2-0.5,0.5,0.1,0.9,0C175.1,27.6,175,26.6,175.2,27.1
		z"/>
	<path class="st0" d="M174.1,29.7c0.2,0.4,0.1,0.9-0.3,1.1c-0.4,0.2-0.9,0.1-1.1-0.3c-0.3-0.5,0.5,0,0.9-0.1
		C174.1,30.1,173.9,29.2,174.1,29.7z"/>
	<path class="st0" d="M176.1,28.7c0.2,0.4,0,0.9-0.4,1.1c-0.4,0.2-0.9,0-1.1-0.4c-0.3-0.5,0.5,0.1,0.9-0.1
		C176,29.2,175.8,28.2,176.1,28.7z"/>
	<path class="st0" d="M175.5,32.5c0.2,0.4,0,0.9-0.4,1c-0.4,0.2-0.9,0-1-0.4c-0.2-0.5,0.5,0.1,0.9,0C175.4,32.9,175.3,32,175.5,32.5
		z"/>
	<path class="st0" d="M175.4,31.1c0.2,0.4-0.1,0.9-0.5,1c-0.4,0.2-0.9-0.1-1-0.5c-0.2-0.6,0.5,0.1,0.9,0
		C175.3,31.5,175.2,30.6,175.4,31.1z"/>
	<path class="st0" d="M177.3,30.4c0.2,0.4,0.1,0.9-0.2,1.1c-0.4,0.2-0.9,0.1-1.1-0.2c-0.3-0.5,0.5,0,0.9-0.2
		C177.3,30.9,177,30,177.3,30.4z"/>
	<path class="st0" d="M178.1,32.1c0.2,0.4,0,0.9-0.4,1.1c-0.4,0.2-0.9,0-1.1-0.4c-0.2-0.5,0.5,0.1,0.9,0
		C178.1,32.6,177.9,31.6,178.1,32.1z"/>
	<path class="st0" d="M173.5,24c0.3,0.4,0.2,0.9-0.2,1.1c-0.4,0.3-0.9,0.2-1.1-0.2c-0.3-0.5,0.5,0,0.9-0.2
		C173.5,24.5,173.2,23.6,173.5,24z"/>
	<path class="st0" d="M173.2,26.1c0.2,0.4,0.1,0.9-0.3,1.1c-0.4,0.2-0.9,0.1-1.1-0.3c-0.3-0.5,0.5,0,0.9-0.1
		C173.2,26.6,172.9,25.6,173.2,26.1z"/>
	<path class="st0" d="M173.3,28.3c0.2,0.4-0.1,0.9-0.5,1c-0.4,0.2-0.9-0.1-1-0.5c-0.2-0.6,0.5,0.1,0.9,0
		C173.2,28.8,173.1,27.8,173.3,28.3z"/>
	<path class="st0" d="M172.7,30.9c0.3,0.4,0.2,0.9-0.2,1.1c-0.4,0.3-0.9,0.2-1.1-0.2c-0.3-0.5,0.5,0,0.9-0.2
		C172.7,31.4,172.3,30.4,172.7,30.9z"/>
	<path class="st0" d="M172.3,32.7c0.2,0.4,0,0.9-0.5,1c-0.4,0.2-0.9,0-1-0.5c-0.2-0.6,0.5,0.1,0.9,0
		C172.2,33.1,172.1,32.2,172.3,32.7z"/>
	<path class="st0" d="M169.2,25.4c0.3,0.4,0.2,0.9-0.2,1.1c-0.4,0.3-0.9,0.2-1.1-0.2c-0.3-0.5,0.5,0,0.9-0.2
		C169.2,25.9,168.9,25,169.2,25.4z"/>
	<path class="st0" d="M171.4,25.3c0.2,0.4,0.1,0.9-0.3,1.1c-0.4,0.2-0.9,0.1-1.1-0.3c-0.3-0.5,0.5,0,0.9-0.1
		C171.4,25.7,171.2,24.8,171.4,25.3z"/>
	<path class="st0" d="M169.6,27.3c0.2,0.4,0.1,0.9-0.3,1.1c-0.4,0.2-0.9,0.1-1.1-0.3c-0.3-0.5,0.5,0,0.9-0.1
		C169.6,27.8,169.4,26.8,169.6,27.3z"/>
	<path class="st0" d="M171.4,27.2c0.3,0.4,0.2,0.9-0.2,1.1c-0.4,0.3-0.9,0.2-1.1-0.2c-0.4-0.5,0.5,0,0.9-0.2
		C171.4,27.7,171.1,26.8,171.4,27.2z"/>
	<path class="st0" d="M169.2,29.1c0.2,0.4,0.1,0.9-0.2,1.1c-0.4,0.2-0.9,0.1-1.1-0.2c-0.3-0.5,0.5,0,0.9-0.2
		C169.2,29.6,168.9,28.7,169.2,29.1z"/>
	<path class="st0" d="M171.2,29.5c0.2,0.4,0,0.9-0.4,1c-0.4,0.2-0.9,0-1-0.4c-0.2-0.5,0.5,0.1,0.9,0C171.1,30,171,29,171.2,29.5z"/>
	<path class="st0" d="M170.5,31.6c0.2,0.4-0.1,0.9-0.5,1c-0.4,0.2-0.9-0.1-1-0.5c-0.2-0.6,0.5,0.1,0.9,0
		C170.5,32.1,170.4,31.1,170.5,31.6z"/>
	<path class="st0" d="M167.5,24.2c0.2,0.4,0,0.9-0.4,1.1c-0.4,0.2-0.9,0-1.1-0.4c-0.2-0.5,0.5,0.1,0.9,0
		C167.4,24.7,167.3,23.7,167.5,24.2z"/>
	<path class="st0" d="M167.6,26.8c0.2,0.4,0,0.9-0.4,1c-0.4,0.2-0.9,0-1-0.4c-0.2-0.5,0.5,0.1,0.9,0
		C167.5,27.2,167.4,26.3,167.6,26.8z"/>
	<path class="st0" d="M167.3,28.7c0.3,0.4,0.2,0.9-0.2,1.1c-0.4,0.3-0.9,0.2-1.1-0.2c-0.3-0.5,0.5,0,0.9-0.2
		C167.3,29.2,167,28.3,167.3,28.7z"/>
	<path class="st0" d="M168.2,31c0.2,0.4,0.1,0.9-0.3,1.1c-0.4,0.2-0.9,0.1-1.1-0.3c-0.3-0.5,0.5,0,0.9-0.1
		C168.1,31.4,167.9,30.5,168.2,31z"/>
	<path class="st0" d="M168.6,32.8c0.2,0.4,0.1,0.9-0.3,1.1c-0.4,0.2-0.9,0.1-1.1-0.3c-0.3-0.5,0.5,0,0.9-0.2
		C168.6,33.3,168.3,32.3,168.6,32.8z"/>
	<path class="st0" d="M165.3,23.3c0.3,0.3,0.2,0.8-0.1,1.1c-0.3,0.3-0.8,0.2-1.1-0.1c-0.4-0.5,0.5,0,0.9-0.3
		C165.3,23.8,165,22.9,165.3,23.3z"/>
	<path class="st0" d="M165.6,25.8c0.2,0.4,0.1,0.9-0.2,1.1c-0.4,0.2-0.9,0.1-1.1-0.2c-0.3-0.5,0.5,0,0.9-0.2
		C165.7,26.2,165.4,25.3,165.6,25.8z"/>
	<path class="st0" d="M165.4,28.1c0.2,0.4,0,0.9-0.4,1.1c-0.4,0.2-0.9,0-1.1-0.4c-0.2-0.5,0.5,0.1,0.9,0
		C165.4,28.6,165.2,27.6,165.4,28.1z"/>
	<path class="st0" d="M166,30.4c0.2,0.4,0,0.9-0.4,1.1s-0.9,0-1.1-0.4c-0.2-0.5,0.5,0.1,0.9,0C165.9,30.9,165.8,29.9,166,30.4z"/>
	<path class="st0" d="M166.4,32.4c0.2,0.4,0,0.9-0.4,1c-0.4,0.2-0.9,0-1-0.4c-0.2-0.5,0.5,0.1,0.9,0C166.4,32.9,166.2,32,166.4,32.4
		z"/>
	<path class="st0" d="M161.8,25.9c0.2,0.4,0,0.9-0.4,1.1c-0.4,0.2-0.9,0-1.1-0.4c-0.2-0.5,0.5,0.1,0.9,0
		C161.7,26.4,161.6,25.4,161.8,25.9z"/>
	<path class="st0" d="M161.4,28c0.2,0.4,0,0.9-0.4,1.1c-0.4,0.2-0.9,0-1.1-0.4c-0.3-0.5,0.5,0.1,0.9-0.1
		C161.4,28.5,161.2,27.5,161.4,28z"/>
	<path class="st0" d="M161.8,30.1c0.2,0.4,0,0.9-0.4,1.1c-0.4,0.2-0.9,0-1.1-0.4c-0.2-0.5,0.5,0.1,0.9,0
		C161.7,30.6,161.6,29.6,161.8,30.1z"/>
	<path class="st0" d="M162.3,32.2c0.3,0.3,0.2,0.8-0.1,1.1c-0.3,0.3-0.8,0.2-1.1-0.1c-0.4-0.5,0.5,0,0.9-0.3
		C162.3,32.7,161.9,31.8,162.3,32.2z"/>
	<path class="st0" d="M160.7,23.5c0.2,0.4,0,0.9-0.4,1.1c-0.4,0.2-0.9,0-1.1-0.4c-0.2-0.5,0.5,0.1,0.9,0
		C160.6,23.9,160.5,23,160.7,23.5z"/>
	<path class="st0" d="M159.7,25.2c0.2,0.4,0,0.9-0.5,1c-0.4,0.2-0.9,0-1-0.5c-0.2-0.6,0.5,0.1,0.9,0
		C159.6,25.7,159.5,24.7,159.7,25.2z"/>
	<path class="st0" d="M159.4,26.9c0.2,0.4,0.1,0.9-0.2,1.1c-0.4,0.2-0.9,0.1-1.1-0.2c-0.3-0.5,0.5,0,0.9-0.2
		C159.4,27.3,159.1,26.4,159.4,26.9z"/>
	<path class="st0" d="M159.6,28.6c0.2,0.4,0.1,0.9-0.3,1.1c-0.4,0.2-0.9,0.1-1.1-0.3c-0.3-0.5,0.5,0,0.9-0.2
		C159.6,29.1,159.3,28.2,159.6,28.6z"/>
	<path class="st0" d="M159.5,30.6c0.2,0.4,0.1,0.9-0.3,1.1c-0.4,0.2-0.9,0.1-1.1-0.3c-0.3-0.5,0.5,0,0.9-0.2
		C159.5,31.1,159.2,30.1,159.5,30.6z"/>
	<path class="st0" d="M160.2,32c0.2,0.4,0.1,0.9-0.3,1.1c-0.4,0.2-0.9,0.1-1.1-0.3c-0.3-0.5,0.5,0,0.9-0.2
		C160.2,32.5,160,31.5,160.2,32z"/>
	<path class="st0" d="M158.1,24c0.2,0.4,0.1,0.9-0.2,1.1c-0.4,0.2-0.9,0.1-1.1-0.2c-0.3-0.5,0.5,0,0.9-0.2
		C158.1,24.5,157.8,23.6,158.1,24z"/>
	<path class="st0" d="M157.8,26.1c0.2,0.4,0,0.9-0.4,1.1c-0.4,0.2-0.9,0-1.1-0.4c-0.2-0.5,0.5,0.1,0.9,0
		C157.7,26.6,157.5,25.6,157.8,26.1z"/>
	<path class="st0" d="M157.3,28.4c0.2,0.4,0.1,0.9-0.2,1.1c-0.4,0.2-0.9,0.1-1.1-0.2c-0.3-0.5,0.5,0,0.9-0.2
		C157.3,28.9,157,28,157.3,28.4z"/>
	<path class="st0" d="M157.4,30.3c0.2,0.4,0.1,0.9-0.2,1.1c-0.4,0.2-0.9,0.1-1.1-0.2c-0.3-0.5,0.5,0,0.9-0.2
		C157.4,30.8,157.1,29.8,157.4,30.3z"/>
	<path class="st0" d="M158,32.5c0.2,0.4,0.1,0.9-0.3,1.1c-0.4,0.2-0.9,0.1-1.1-0.3c-0.3-0.5,0.5,0,0.9-0.2
		C158,33,157.7,32.1,158,32.5z"/>
	<path class="st0" d="M155.9,25.1c0.2,0.4,0.1,0.9-0.3,1.1c-0.4,0.2-0.9,0.1-1.1-0.3c-0.3-0.5,0.5,0,0.9-0.1
		C155.9,25.6,155.7,24.7,155.9,25.1z"/>
	<path class="st0" d="M155.9,23.3c0.2,0.4,0.1,0.9-0.3,1.1c-0.4,0.2-0.9,0.1-1.1-0.3c-0.3-0.5,0.5,0,0.9-0.1
		C155.9,23.8,155.6,22.9,155.9,23.3z"/>
	<path class="st0" d="M155.9,27.2c0.2,0.4,0,0.9-0.4,1.1c-0.4,0.2-0.9,0-1.1-0.4c-0.2-0.5,0.5,0.1,0.9,0
		C155.9,27.7,155.7,26.7,155.9,27.2z"/>
	<path class="st0" d="M155.4,29.8c0.2,0.4,0.1,0.9-0.3,1.1c-0.4,0.2-0.9,0.1-1.1-0.3c-0.3-0.5,0.5,0.1,0.9-0.1
		C155.4,30.3,155.2,29.3,155.4,29.8z"/>
	<path class="st0" d="M156,31.9c0.2,0.4,0,0.9-0.4,1.1c-0.4,0.2-0.9,0-1.1-0.4c-0.3-0.5,0.5,0.1,0.9-0.1
		C155.9,32.4,155.7,31.5,156,31.9z"/>
	<path class="st0" d="M154.2,26.4c0.2,0.4,0.1,0.9-0.3,1.1c-0.4,0.2-0.9,0.1-1.1-0.3c-0.3-0.5,0.5,0.1,0.9-0.1
		C154.1,26.9,153.9,25.9,154.2,26.4z"/>
	<path class="st0" d="M154,28.5c0.3,0.4,0.2,0.9-0.2,1.1c-0.4,0.3-0.9,0.2-1.1-0.2c-0.4-0.5,0.5,0,0.9-0.2
		C154.1,29,153.7,28.1,154,28.5z"/>
	<path class="st0" d="M154.2,31.3c0.2,0.4-0.1,0.9-0.5,1c-0.4,0.2-0.9-0.1-1-0.5c-0.2-0.6,0.5,0.1,0.9,0
		C154.1,31.8,154,30.8,154.2,31.3z"/>
	<path class="st0" d="M153.7,24.1c0.3,0.3,0.2,0.9-0.1,1.1c-0.3,0.3-0.9,0.2-1.1-0.1c-0.4-0.5,0.5,0,0.9-0.3
		C153.7,24.6,153.4,23.7,153.7,24.1z"/>
	<path class="st0" d="M152.1,26.3c0.2,0.4,0,0.9-0.4,1c-0.4,0.2-0.9,0-1-0.4c-0.2-0.5,0.5,0.1,0.9,0
		C152.1,26.8,151.9,25.8,152.1,26.3z"/>
	<path class="st0" d="M152.2,28.8c0.2,0.4,0,0.9-0.4,1.1c-0.4,0.2-0.9,0-1.1-0.4c-0.2-0.5,0.5,0.1,0.9,0
		C152.1,29.2,151.9,28.3,152.2,28.8z"/>
	<path class="st0" d="M152.4,31c0.2,0.4,0,0.9-0.4,1c-0.4,0.2-0.9,0-1-0.4c-0.2-0.5,0.5,0.1,0.9,0C152.3,31.4,152.2,30.5,152.4,31z"
		/>
	<path class="st0" d="M152.5,32.8c0.2,0.4,0.1,0.9-0.3,1.1c-0.4,0.2-0.9,0.1-1.1-0.3c-0.3-0.5,0.5,0,0.9-0.1
		C152.5,33.3,152.3,32.3,152.5,32.8z"/>
	<path class="st0" d="M151.5,23.9c0.2,0.4,0.1,0.9-0.3,1.1c-0.4,0.2-0.9,0.1-1.1-0.3c-0.3-0.5,0.5,0,0.9-0.2
		C151.5,24.4,151.2,23.5,151.5,23.9z"/>
	<path class="st0" d="M150.1,25.7c0.2,0.4,0,0.9-0.4,1c-0.4,0.2-0.9,0-1-0.4c-0.2-0.5,0.5,0.1,0.9,0C150,26.2,149.8,25.2,150.1,25.7
		z"/>
	<path class="st0" d="M150.2,28c0.3,0.3,0.2,0.8-0.1,1.1c-0.3,0.3-0.8,0.2-1.1-0.1c-0.4-0.5,0.5-0.1,0.9-0.3
		C150.3,28.4,149.9,27.6,150.2,28z"/>
	<path class="st0" d="M150.6,30.4c0.2,0.4,0,0.9-0.4,1.1c-0.4,0.2-0.9,0-1.1-0.4c-0.3-0.5,0.5,0.1,0.9-0.1
		C150.5,30.9,150.3,29.9,150.6,30.4z"/>
	<path class="st0" d="M150.5,32.2c0.2,0.4,0.1,0.9-0.3,1.1c-0.4,0.2-0.9,0.1-1.1-0.3c-0.3-0.5,0.5,0,0.9-0.2
		C150.5,32.7,150.2,31.8,150.5,32.2z"/>
	<path class="st0" d="M148.5,27.6c0.2,0.4,0,0.9-0.4,1.1c-0.4,0.2-0.9,0-1.1-0.4c-0.2-0.5,0.5,0.1,0.9,0
		C148.5,28.1,148.3,27.1,148.5,27.6z"/>
	<path class="st0" d="M148.7,29.5c0.2,0.4,0.1,0.9-0.2,1.1c-0.4,0.2-0.9,0.1-1.1-0.2c-0.3-0.5,0.5,0,0.9-0.2
		C148.7,30,148.4,29.1,148.7,29.5z"/>
	<path class="st0" d="M148.6,31.7c0.2,0.4,0,0.9-0.4,1.1c-0.4,0.2-0.9,0-1.1-0.4c-0.3-0.5,0.5,0.1,0.9-0.1
		C148.5,32.2,148.3,31.3,148.6,31.7z"/>
	<path class="st0" d="M145.9,26.2c0.2,0.4,0,0.9-0.4,1.1c-0.4,0.2-0.9,0-1.1-0.4c-0.3-0.5,0.5,0.1,0.9-0.1
		C145.8,26.6,145.7,25.7,145.9,26.2z"/>
	<path class="st0" d="M146.5,28.4c0.2,0.4,0.1,0.9-0.3,1.1c-0.4,0.2-0.9,0.1-1.1-0.3c-0.3-0.5,0.5,0,0.9-0.1
		C146.5,28.9,146.2,28,146.5,28.4z"/>
	<path class="st0" d="M147,30.7c0.2,0.4,0,0.9-0.4,1s-0.9,0-1-0.4c-0.2-0.5,0.5,0.1,0.9,0C146.9,31.1,146.8,30.2,147,30.7z"/>
	<path class="st0" d="M146.7,32.5c0.2,0.4-0.1,0.9-0.5,1c-0.4,0.2-0.9-0.1-1-0.5c-0.2-0.6,0.5,0.1,0.9,0
		C146.6,32.9,146.5,32,146.7,32.5z"/>
	<path class="st0" d="M144.3,28c0.3,0.3,0.2,0.8-0.1,1.1c-0.3,0.3-0.8,0.2-1.1-0.1c-0.4-0.5,0.5-0.1,0.9-0.3
		C144.4,28.5,144,27.6,144.3,28z"/>
	<path class="st0" d="M145,30.4c0.3,0.4,0.2,0.9-0.1,1.1s-0.9,0.2-1.1-0.1c-0.4-0.5,0.5,0,0.9-0.3C145,30.9,144.6,30,145,30.4z"/>
	<path class="st0" d="M142.8,27.3c0.2,0.4,0,0.9-0.4,1.1c-0.4,0.2-0.9,0-1.1-0.4c-0.2-0.5,0.5,0.1,0.9,0
		C142.7,27.8,142.6,26.8,142.8,27.3z"/>
	<path class="st0" d="M143,29.8c0.2,0.4,0,0.9-0.4,1c-0.4,0.2-0.9,0-1-0.4c-0.2-0.5,0.5,0.1,0.9,0C142.9,30.2,142.8,29.3,143,29.8z"
		/>
	<path class="st0" d="M143.2,31.5c0.2,0.4,0.1,0.9-0.2,1.1c-0.4,0.2-0.9,0.1-1.1-0.2c-0.3-0.5,0.5,0,0.9-0.2
		C143.2,31.9,142.9,31,143.2,31.5z"/>
	<path class="st0" d="M144.3,32.4c0.3,0.4,0.2,0.9-0.2,1.1c-0.4,0.3-0.9,0.2-1.1-0.2c-0.3-0.5,0.5,0,0.9-0.2
		C144.3,32.9,144,32,144.3,32.4z"/>
	<path class="st0" d="M129.2,88.8c0.2,0.4,0.1,0.9-0.3,1.1c-0.4,0.2-0.9,0.1-1.1-0.3c-0.3-0.5,0.5,0,0.9-0.1
		C129.2,89.3,129,88.3,129.2,88.8z"/>
	<path class="st0" d="M128.9,90.9c0.2,0.4,0.1,0.9-0.3,1.1s-0.9,0.1-1.1-0.3c-0.3-0.5,0.5,0,0.9-0.1
		C128.9,91.4,128.7,90.4,128.9,90.9z"/>
	<path class="st0" d="M128.9,93.1c0.3,0.3,0.2,0.8-0.1,1.1c-0.3,0.3-0.8,0.2-1.1-0.1c-0.4-0.5,0.5-0.1,0.9-0.3
		C128.9,93.6,128.5,92.7,128.9,93.1z"/>
	<path class="st0" d="M129.8,95.4c0.2,0.4,0,0.9-0.4,1c-0.4,0.2-0.9,0-1-0.4c-0.2-0.5,0.5,0.1,0.9,0
		C129.7,95.9,129.6,94.9,129.8,95.4z"/>
	<path class="st0" d="M130.2,97.2c0.2,0.4,0,0.9-0.4,1.1c-0.4,0.2-0.9,0-1.1-0.4c-0.2-0.5,0.5,0.1,0.9,0
		C130.2,97.7,130,96.8,130.2,97.2z"/>
	<path class="st0" d="M141.1,101c0.2,0.4,0,0.9-0.4,1.1c-0.4,0.2-0.9,0-1.1-0.4c-0.2-0.5,0.5,0.1,0.9,0
		C141,101.5,140.9,100.6,141.1,101z"/>
	<path class="st0" d="M140.4,88.7c0.2,0.4,0.1,0.9-0.3,1.1c-0.4,0.2-0.9,0.1-1.1-0.3c-0.3-0.5,0.5,0,0.9-0.1
		C140.4,89.1,140.1,88.2,140.4,88.7z"/>
	<path class="st0" d="M140.4,90.7c0.2,0.4,0.1,0.9-0.3,1.1c-0.4,0.2-0.9,0.1-1.1-0.3c-0.3-0.5,0.5,0,0.9-0.2
		C140.4,91.2,140.1,90.3,140.4,90.7z"/>
	<path class="st0" d="M139.4,93.5c0.2,0.4,0.1,0.9-0.3,1.1c-0.4,0.2-0.9,0.1-1.1-0.3c-0.3-0.5,0.5,0,0.9-0.1
		C139.3,94,139.1,93,139.4,93.5z"/>
	<path class="st0" d="M141.2,92.3c0.2,0.4,0.1,0.9-0.2,1.1c-0.4,0.2-0.9,0.1-1.1-0.2c-0.3-0.5,0.5,0,0.9-0.2
		C141.2,92.8,140.9,91.9,141.2,92.3z"/>
	<path class="st0" d="M139.2,96.6c0.3,0.4,0.2,0.9-0.2,1.1c-0.4,0.3-0.9,0.2-1.1-0.2c-0.3-0.5,0.5,0,0.9-0.2
		C139.2,97.1,138.9,96.2,139.2,96.6z"/>
	<path class="st0" d="M140.1,98.8c0.2,0.4,0.1,0.9-0.3,1.1c-0.4,0.2-0.9,0.1-1.1-0.3c-0.3-0.5,0.5,0,0.9-0.2
		C140.1,99.3,139.8,98.4,140.1,98.8z"/>
	<path class="st0" d="M141.4,96.9c0.2,0.4,0.1,0.9-0.3,1.1c-0.4,0.2-0.9,0.1-1.1-0.3c-0.3-0.5,0.5,0,0.9-0.1
		C141.4,97.4,141.1,96.5,141.4,96.9z"/>
	<path class="st0" d="M140.5,95.1c0.2,0.4-0.1,0.9-0.5,1c-0.4,0.2-0.9-0.1-1-0.5c-0.2-0.6,0.5,0.1,0.9,0
		C140.4,95.5,140.3,94.6,140.5,95.1z"/>
	<path class="st0" d="M138.5,89.8c0.2,0.4,0.1,0.9-0.3,1.1c-0.4,0.2-0.9,0.1-1.1-0.3c-0.3-0.5,0.5,0,0.9-0.1
		C138.5,90.3,138.3,89.4,138.5,89.8z"/>
	<path class="st0" d="M138.5,91.9c0.2,0.4,0.1,0.9-0.2,1.1c-0.4,0.2-0.9,0.1-1.1-0.2c-0.3-0.5,0.5,0,0.9-0.2
		C138.5,92.4,138.2,91.5,138.5,91.9z"/>
	<path class="st0" d="M138,94.8c0.2,0.4,0.2,0.9-0.2,1.1c-0.4,0.2-0.9,0.2-1.1-0.2c-0.3-0.5,0.5,0,0.9-0.2
		C138,95.3,137.7,94.4,138,94.8z"/>
	<path class="st0" d="M137.5,97c0.2,0.4,0.1,0.9-0.3,1.1c-0.4,0.2-0.9,0.1-1.1-0.3c-0.3-0.5,0.5,0,0.9-0.1
		C137.5,97.4,137.2,96.5,137.5,97z"/>
	<path class="st0" d="M137.9,99.1c0.2,0.4,0,0.9-0.4,1.1c-0.4,0.2-0.9,0-1.1-0.4c-0.2-0.5,0.5,0.1,0.9,0
		C137.8,99.6,137.7,98.6,137.9,99.1z"/>
	<path class="st0" d="M139,100.6c0.3,0.4,0.2,0.9-0.2,1.1c-0.4,0.3-0.9,0.2-1.1-0.2c-0.3-0.5,0.5,0,0.9-0.2
		C139,101.1,138.7,100.2,139,100.6z"/>
	<path class="st0" d="M139.4,102.5c0.2,0.4,0,0.9-0.4,1.1c-0.4,0.2-0.9,0-1.1-0.4c-0.3-0.5,0.5,0.1,0.9-0.1
		C139.3,102.9,139.1,102,139.4,102.5z"/>
	<path class="st0" d="M134.6,89.2c0.2,0.4,0.1,0.9-0.3,1.1c-0.4,0.2-0.9,0.1-1.1-0.3c-0.3-0.5,0.5,0,0.9-0.1
		C134.6,89.7,134.4,88.8,134.6,89.2z"/>
	<path class="st0" d="M136.8,89c0.2,0.4,0.1,0.9-0.2,1.1s-0.9,0.1-1.1-0.2c-0.3-0.5,0.5,0,0.9-0.2C136.8,89.5,136.5,88.6,136.8,89z"
		/>
	<path class="st0" d="M135,90.9c0.2,0.4,0.2,0.9-0.2,1.1c-0.4,0.2-0.9,0.2-1.1-0.2c-0.3-0.5,0.5,0,0.9-0.2
		C135,91.4,134.7,90.5,135,90.9z"/>
	<path class="st0" d="M136.8,91c0.2,0.4,0,0.9-0.3,1.1c-0.4,0.2-0.9,0-1.1-0.3c-0.3-0.5,0.5,0.1,0.9-0.1
		C136.8,91.5,136.6,90.6,136.8,91z"/>
	<path class="st0" d="M134.7,93c0.2,0.4,0,0.9-0.4,1c-0.4,0.2-0.9,0-1-0.4c-0.2-0.5,0.5,0.1,0.9,0C134.6,93.4,134.5,92.5,134.7,93z"
		/>
	<path class="st0" d="M136.6,93.2c0.2,0.4,0,0.9-0.4,1.1c-0.4,0.2-0.9,0-1.1-0.4c-0.3-0.5,0.5,0.1,0.9-0.1
		C136.5,93.7,136.3,92.7,136.6,93.2z"/>
	<path class="st0" d="M135.8,95.3c0.2,0.4,0.1,0.9-0.2,1.1c-0.4,0.2-0.9,0.1-1.1-0.2c-0.3-0.5,0.5,0,0.9-0.2
		C135.8,95.8,135.5,94.9,135.8,95.3z"/>
	<path class="st0" d="M135.6,97.5c0.2,0.4,0.1,0.9-0.2,1.1c-0.4,0.2-0.9,0.1-1.1-0.2c-0.3-0.5,0.5,0,0.9-0.2
		C135.6,98,135.3,97.1,135.6,97.5z"/>
	<path class="st0" d="M136,99.7c0.2,0.4,0,0.9-0.4,1.1c-0.4,0.2-0.9,0-1.1-0.4c-0.2-0.5,0.5,0.1,0.9,0
		C136,100.2,135.8,99.2,136,99.7z"/>
	<path class="st0" d="M137.2,101.3c0.2,0.4-0.1,0.9-0.5,1c-0.4,0.2-0.9-0.1-1-0.5c-0.2-0.6,0.5,0.1,0.9,0
		C137.1,101.8,137,100.8,137.2,101.3z"/>
	<path class="st0" d="M132.8,88c0.3,0.4,0.2,0.9-0.1,1.1c-0.4,0.3-0.9,0.2-1.1-0.1c-0.4-0.5,0.5,0,0.9-0.3
		C132.8,88.5,132.5,87.6,132.8,88z"/>
	<path class="st0" d="M133,90.5c0.2,0.4,0,0.9-0.5,1c-0.4,0.2-0.9,0-1-0.5c-0.2-0.6,0.5,0.1,0.9,0C132.9,91,132.8,90,133,90.5z"/>
	<path class="st0" d="M132.7,92.4c0.2,0.4,0.1,0.9-0.2,1.1c-0.4,0.2-0.9,0.1-1.1-0.2c-0.3-0.5,0.5,0,0.9-0.2
		C132.7,92.8,132.4,91.9,132.7,92.4z"/>
	<path class="st0" d="M133.6,94.6c0.2,0.4,0.1,0.9-0.3,1.1c-0.4,0.2-0.9,0.1-1.1-0.3c-0.3-0.5,0.5,0,0.9-0.1
		C133.6,95.1,133.3,94.1,133.6,94.6z"/>
	<path class="st0" d="M133.9,96.3c0.3,0.3,0.2,0.8-0.1,1.1c-0.3,0.3-0.8,0.2-1.1-0.1c-0.4-0.5,0.5-0.1,0.9-0.3
		C134,96.8,133.6,95.9,133.9,96.3z"/>
	<path class="st0" d="M131.1,89.5c0.2,0.4,0,0.9-0.4,1.1c-0.4,0.2-0.9,0-1.1-0.4c-0.2-0.5,0.5,0.1,0.9-0.1
		C131.1,89.9,130.9,89,131.1,89.5z"/>
	<path class="st0" d="M130.7,91.6c0.3,0.3,0.2,0.9-0.1,1.1c-0.3,0.3-0.9,0.2-1.1-0.1c-0.4-0.5,0.5,0,0.9-0.3
		C130.8,92,130.4,91.1,130.7,91.6z"/>
	<path class="st0" d="M131.4,94c0.2,0.4,0.1,0.9-0.3,1.1c-0.4,0.2-0.9,0.1-1.1-0.3c-0.3-0.5,0.5,0,0.9-0.1
		C131.3,94.5,131.1,93.5,131.4,94z"/>
	<path class="st0" d="M131.9,96.2c0.2,0.4,0,0.9-0.4,1.1s-0.9,0-1.1-0.4c-0.2-0.5,0.5,0.1,0.9,0C131.9,96.6,131.7,95.7,131.9,96.2z"
		/>
	<path class="st0" d="M131.5,98.8c0.2,0.4-0.1,0.9-0.5,1c-0.4,0.2-0.9-0.1-1-0.5c-0.2-0.6,0.5,0.1,0.9,0
		C131.4,99.3,131.3,98.3,131.5,98.8z"/>
	<path class="st0" d="M133.4,98.4c0.3,0.3,0.2,0.8-0.1,1.1c-0.3,0.3-0.9,0.2-1.1-0.1c-0.4-0.5,0.5,0,0.9-0.3
		C133.4,98.9,133,98,133.4,98.4z"/>
	<path class="st0" d="M134,100.2c0.2,0.4,0.1,0.9-0.3,1.1c-0.4,0.2-0.9,0.1-1.1-0.3c-0.3-0.5,0.5,0,0.9-0.2
		C134,100.6,133.7,99.7,134,100.2z"/>
	<path class="st0" d="M127.2,89.4c0.2,0.4,0,0.9-0.4,1.1c-0.4,0.2-0.9,0-1.1-0.4c-0.3-0.5,0.5,0.1,0.9-0.1
		C127.1,89.9,126.9,88.9,127.2,89.4z"/>
	<path class="st0" d="M126.6,91.6c0.2,0.4,0,0.9-0.4,1.1c-0.4,0.2-0.9,0-1.1-0.4c-0.3-0.5,0.5,0.1,0.9-0.1
		C126.6,92.1,126.4,91.1,126.6,91.6z"/>
	<path class="st0" d="M127,93.8c0.2,0.4,0.1,0.9-0.3,1.1c-0.4,0.2-0.9,0.1-1.1-0.3c-0.3-0.5,0.5,0,0.9-0.2
		C127,94.3,126.7,93.4,127,93.8z"/>
	<path class="st0" d="M127.7,95.6c0.2,0.4,0,0.9-0.4,1c-0.4,0.2-0.9,0-1-0.4c-0.2-0.5,0.5,0.1,0.9,0
		C127.6,96.1,127.5,95.2,127.7,95.6z"/>
	<path class="st0" d="M125.1,89.6c0.2,0.4,0,0.9-0.4,1.1c-0.4,0.2-0.9,0-1.1-0.4c-0.2-0.5,0.5,0.1,0.9,0
		C125,90.1,124.9,89.1,125.1,89.6z"/>
	<path class="st0" d="M124.4,91.6c0.3,0.3,0.2,0.8-0.1,1.1c-0.3,0.3-0.8,0.2-1.1-0.1c-0.4-0.5,0.5-0.1,0.9-0.3
		C124.4,92.1,124,91.2,124.4,91.6z"/>
	<path class="st0" d="M124.8,94c0.2,0.4,0,0.9-0.4,1.1c-0.4,0.2-0.9,0-1.1-0.4c-0.3-0.5,0.5,0.1,0.9-0.1
		C124.7,94.5,124.6,93.5,124.8,94z"/>
	<path class="st0" d="M123.9,88.2c0.2,0.4-0.1,0.9-0.5,1c-0.4,0.2-0.9-0.1-1-0.5c-0.2-0.6,0.5,0.1,0.9,0
		C123.8,88.6,123.7,87.7,123.9,88.2z"/>
	<path class="st0" d="M123,90c0.2,0.4-0.1,0.9-0.5,1c-0.4,0.2-0.9-0.1-1-0.5c-0.2-0.6,0.5,0.1,0.9,0C122.9,90.5,122.8,89.6,123,90z"
		/>
	<path class="st0" d="M122.6,92.6c0.2,0.4,0,0.9-0.4,1.1c-0.4,0.2-0.9,0-1.1-0.4c-0.2-0.5,0.5,0.1,0.9,0
		C122.5,93,122.3,92.1,122.6,92.6z"/>
	<path class="st0" d="M121.3,88.6c0.2,0.4,0.1,0.9-0.3,1.1c-0.4,0.2-0.9,0.1-1.1-0.3c-0.3-0.5,0.5,0,0.9-0.1
		C121.3,89.1,121,88.2,121.3,88.6z"/>
	<path class="st0" d="M121,90.5c0.3,0.3,0.2,0.8-0.1,1.1c-0.3,0.3-0.8,0.2-1.1-0.1c-0.4-0.5,0.5,0,0.9-0.3
		C121,91,120.6,90.1,121,90.5z"/>
	<path class="st0" d="M119.3,89.5c0.2,0.4,0.1,0.9-0.3,1.1c-0.4,0.2-0.9,0.1-1.1-0.3c-0.3-0.5,0.5,0,0.9-0.1
		C119.3,90,119,89.1,119.3,89.5z"/>
	<path class="st0" d="M116.4,71c0.3,0.4,0.2,0.9-0.2,1.1c-0.4,0.3-0.9,0.2-1.1-0.2c-0.4-0.5,0.5,0,0.9-0.2
		C116.4,71.4,116.1,70.5,116.4,71z"/>
</g>
<g id="Wappen">
	<path class="st0" d="M182.7,7.7c-4.2-1.7-8.6-3.1-13.1-4.3c-6.1-1.5-12.4-2.5-18.7-3c-3.1-0.3-5.9-0.4-9-0.4h-0.3
		c-3.1,0-5.9,0.1-9,0.4c-6.3,0.6-12.6,1.5-18.7,3c-4.5,1.1-8.9,2.6-13.1,4.3c-0.2,0.1-0.3,0.1-0.3,0.1s0.5,31.9,0.9,47.7
		c0.1,4.5,0.9,9.1,2.5,13.6c1.7,4.7,4.1,9.5,7.1,14.2c2.8,4.3,6.8,8.6,11.1,12.1c1.7,1.4,3.4,2.7,5.3,3.8c3.1,1.9,6.4,3.4,9,4.5
		c1,0.4,1.9,0.8,2.7,1.1c1.2,0.4,2.1,0.7,2.6,0.8c0.5-0.1,1.4-0.4,2.6-0.8c0.8-0.3,1.7-0.7,2.7-1.1c2.6-1.1,5.9-2.6,9-4.5
		c1.8-1.1,3.6-2.5,5.3-3.8c4.3-3.5,8.2-7.8,11.1-12.1c3.1-4.7,5.5-9.4,7.1-14.2c1.6-4.6,2.4-9.1,2.5-13.6
		c0.4-15.8,0.9-47.7,0.9-47.7S182.8,7.7,182.7,7.7z M103,55c-0.2-9.4-0.5-24.3-0.6-34.5c4.1-1.6,8.3-3,12.6-4.1
		c5.8-1.5,11.9-2.4,18-2.9c2.7-0.2,5.1-0.3,7.8-0.4v20.3h-14.9l0,21.6H103z M140.7,103.9L140.7,103.9c-0.4-0.1-0.9-0.3-1.5-0.5
		c-0.8-0.3-1.6-0.7-2.6-1.1c-2.5-1.1-5.6-2.5-8.6-4.4c-1.8-1.1-3.5-2.4-5.1-3.7c-2-1.6-3.8-3.4-5.6-5.3h23.4V103.9z M140.7,76.7
		h-31.8c-1.4-2.7-2.6-5.4-3.5-8c-0.2-0.6-0.4-1.1-0.6-1.7h25.8c0.2,0.1,0.3,0.3,0.5,0.4c2.7,2.2,6.1,3.7,9.6,4V76.7z M140.8,70.7
		c-3.3-0.3-6.6-1.6-9.2-3.8c-0.2-0.1-0.3-0.3-0.4-0.4l-1.1-1.1c-2.3-2.6-3.5-5.6-3.5-8.8l0-0.4l0-1.2l0-20.9h30.7l0,0.7V36v0.6
		l0,4.1l0,2.4l0,1.4l0,1.8l0,8.2l0,1.2l0,0.8c0,2.2-0.6,4.4-1.8,6.4c0,0-1.5,3-4.4,4.7l0,0c-1,0.7-2,1.3-3.2,1.7v0l-0.7,0.3
		c-0.9,0.4-1.9,0.6-2.9,0.8l-0.8,0.1c-0.4,0.1-0.9,0.1-1.3,0.1C141.5,70.7,140.8,70.7,140.8,70.7z M178,68.6
		c-1.6,4.6-3.9,9.2-6.9,13.7c-2.7,4.2-6.5,8.4-10.6,11.8c-1.6,1.3-3.3,2.6-5.1,3.7c-3,1.9-6.1,3.3-8.6,4.4c-1,0.4-1.8,0.8-2.6,1.1
		c-0.8,0.3-1.6,0.6-2.1,0.7v0l0-32.6h0c0.5,0,0.9,0,1.4-0.1l0.8-0.1c1-0.2,2.1-0.4,3-0.8l0.8-0.3c0,0,0,0,0,0
		c1.2-0.5,2.3-1.1,3.3-1.8l0,0c0,0,0,0,0,0c3.1-1.8,4.6-5,4.6-5c1.2-2,1.8-4.3,1.8-6.7l0-0.8h22.6C180.3,60.1,179.6,64.4,178,68.6z
		 M180.5,54.6h-22.6l0-8.2l0-1.8h22.8C180.6,48.3,180.6,51.7,180.5,54.6z M180.9,33.3h-38.8v-9.7h39C181,26.7,181,30,180.9,33.3z
		 M181.2,19.2C181.2,19.1,181.1,19.1,181.2,19.2c-4.2-1.7-8.3-3.1-12.7-4.2c-5.8-1.5-11.9-2.4-18-2.9c-3-0.3-5.6-0.4-8.6-0.5h-0.3
		c-3,0-5.7,0.2-8.7,0.5c-6.1,0.5-12.2,1.5-18,2.9c-4.3,1.1-8.5,2.5-12.6,4.1c0,0-0.1,0-0.1,0c-0.1-5.9-0.2-10-0.2-10s0.1,0,0.3-0.1
		c4.1-1.6,8.3-3,12.6-4.1c5.8-1.5,11.9-2.4,18-2.9c3-0.3,5.7-0.4,8.6-0.4h0.3c3,0,5.7,0.1,8.6,0.4c6.1,0.5,12.2,1.5,18,2.9
		C172.8,6,177,7.4,181.1,9c0.2,0.1,0.3,0.1,0.3,0.1S181.3,13.2,181.2,19.2z M155.6,35.4l0,21.5l0,0c0,1-0.2,2-0.6,3.1
		c-1,2.8-3.1,5.4-5.9,7.1c-2.1,1.3-4.7,2-7.1,2c0,0,0,0,0,0c-3.3,0-6.7-1.3-9.3-3.5c-2.9-2.5-4.6-6-4.6-9.5l0-20.7L155.6,35.4z
		 M127.5,56.2c0,3.7,1.7,7.4,4.8,10c2.7,2.3,6.2,3.7,9.7,3.7c0,0,0,0,0,0c2.5,0,5.2-0.8,7.5-2.1c2.9-1.8,5.2-4.5,6.2-7.5
		c0.4-1.2,0.6-2.3,0.6-3.3l0-22.1c0-0.1,0-0.1-0.1-0.1l-28.7,0c-0.1,0-0.1,0-0.1,0.1L127.5,56.2z"/>
</g>
<g id="Geweihe">
	<path class="st0" d="M147.3,70.3c-0.6,0.2-3,0.8-3,0.8l0,0.2l0,0c0,0,0,0.1,0.1,0.3c0.2,0.3,0.3,0.3,0.6,0.4c0.3,0,0.6-0.2,0.8-0.7
		c0,0,0.2-0.1,0.2-0.1c0.3,0.4,0.9,0.8,1.3,0.6c0.4-0.2,0.4-0.7,0.2-1C147.5,70.7,147.4,70.3,147.3,70.3z"/>
	<path class="st0" d="M124.8,43c-0.2,0.3-0.3,0.6-0.4,0.9l0,0.1l-0.1,0c-1.2,0-2.4,0.2-3.9,0.4l-0.1,0l0-0.1c-0.1-0.5,0.2-1.4,0.5-2
		c0.5-0.9,2.1-2.5,2.5-2.7l0.1-0.1c0.2-0.1,0.2-0.1,0.2-0.2c0,0-0.4-0.1-0.7-0.1c-1,0-2.2,0.9-2.8,1.7c-0.9,1.1-1.3,2.7-1.2,3.7
		c0,0,0,0.1,0,0.1l0,0.1l-0.1,0c-0.3,0.1-0.7,0.2-1,0.3l0,0c-0.6,0.2-1.4,0.4-1.8,0.6l-0.1,0l0-0.1c-0.2-0.6-0.3-1.5,0-2.4
		c0.5-1.8,1.6-2.6,1.9-2.9c0,0,0.1,0,0.1,0c-0.1,0-0.2,0-0.4,0l-0.1,0c-0.7,0-2.4,1-2.9,2c-0.5,1.2-0.3,3,0.1,3.9l0,0.1l-0.1,0
		c-0.5,0.1-1,0.3-1.5,0.5c-0.4,0.1-0.7,0.3-1.1,0.4l-0.1,0l0-0.1c-0.3-0.6-0.4-1.5-0.4-2.3c0.1-1.6,0.9-2.6,1.2-2.8c0,0,0,0,0,0
		c0,0-0.3-0.1-0.4-0.1c-1.3,0.1-2.2,1.1-2.6,2.5c-0.3,1.1,0.2,2.3,0.6,3.2c0.1,0.1,0.1,0.3,0.2,0.4l0,0.1l-0.1,0
		c-0.4,0.3-0.7,0.5-1,0.7l0,0c-0.2,0.1-0.4,0.2-0.5,0.4l-0.1,0.1l0-0.1l-0.1-0.1l0,0c-0.2-0.4-0.4-0.9-0.8-1.1
		c-0.2-0.1-0.5-0.2-0.8-0.2c-0.2,0-0.5,0.1-0.6,0.2c-0.4,0.3-0.6,0.9-0.4,1.5c0.1,0.2,0.2,0.4,0.4,0.6c0.1,0.1,0.2,0.3,0.3,0.4
		l0,0.1l0,0c-0.2,0.2-0.4,0.3-0.7,0.4l-0.1,0c-0.4,0.2-0.7,0.5-0.7,0.9c-0.1,0.3,0,0.6,0.2,0.9c0.2,0.3,0.6,0.4,0.9,0.4
		c0.3,0,0.5-0.1,0.8-0.2c0.3-0.2,0.5-0.4,0.8-0.6l0,0c0.1-0.1,0.2-0.2,0.3-0.3l0.1-0.1l0.1,0.1c0.1,0.1,0.1,0.2,0.2,0.2l0,0
		c0.1,0.2,0.2,0.3,0.4,0.5c0.2,0.2,0.5,0.3,0.8,0.3c0.3,0,0.6-0.1,0.8-0.2c0.4-0.2,0.7-0.9,0.5-1.3c-0.1-0.2-0.4-0.8-1-1.1l-0.1-0.1
		l0.1-0.1c0.8-0.5,1.2-0.7,4.2-2.1c2.9-1.4,7.4-2.5,10.4-2.5c0.4,0,0.9,0,1.3,0.1l0.3,0v-4.2l-0.3,0.2C125.4,42.2,125,42.5,124.8,43
		z"/>
	<path class="st0" d="M129.7,31.7c0,0,0.5-0.2,0.7-0.2c-0.1-0.1-0.2-0.2-0.4-0.3c-0.4-0.2-1-0.4-1.6-0.4c-0.6,0-1.2,0.1-1.6,0.3
		c-1,0.5-1.7,1.4-2.1,2.7l0,0.1l-0.1,0c-1.2,0-2.4,0.1-3.4,0.2l-0.1,0l0-0.1c0-0.1,0-0.4,0.1-0.8c0.2-0.6,0.5-1.2,0.9-1.7
		c0.9-1.1,2.1-1.4,2.7-1.6c0.1,0,0.2,0,0.3-0.1c-0.1-0.1-0.6-0.3-0.8-0.3c-0.1,0-0.3,0-0.4,0c-0.5,0-2,0.1-3.3,1.4
		c-0.9,1-1.1,1.8-1.2,2.8c0,0.1,0,0.3-0.1,0.4l0,0.1l-0.1,0c-0.4,0.1-0.8,0.2-1.3,0.3c-0.7,0.1-1.4,0.3-2.1,0.5l-0.1,0l0-0.1
		c0-0.2,0.1-1.5,0.6-2.4c0.5-0.8,0.9-1.4,1.5-1.9c0,0,0.3-0.2,0.5-0.4c-0.1,0-0.4-0.1-0.6-0.1l-0.1,0c-1.3,0-2.5,0.8-3,2.1
		c-0.5,1.2-0.5,2.5-0.5,3.3l0,0.1l0,0.1l-0.1,0c-0.8,0.2-1.7,0.6-2.7,0.9l-0.1,0l0-0.1c-0.1-0.5-0.1-1.6,0.1-2.5
		c0.2-0.8,0.5-1.4,1-1.9c0,0,0.2-0.2,0.5-0.4c0,0-0.1,0-0.3,0c-0.2,0-0.4,0-0.5,0.1c-1.7,0.6-1.9,1.2-2.2,2.2l-0.1,0.2l0,0.1
		c-0.3,0.8-0.3,1.8-0.3,2.7c0,0.2,0,0.4,0,0.5l0,0.1l0,0c-0.7,0.4-1.1,0.5-1.7,0.8l-0.1,0l0-0.1c0-0.2-0.1-0.5-0.3-0.8
		c-0.2-0.3-0.6-0.5-1-0.5c-0.2,0-0.4,0.1-0.6,0.2c-0.2,0.1-0.3,0.3-0.4,0.5c-0.1,0.3-0.1,0.6,0.1,0.8c0.1,0.2,0.2,0.3,0.3,0.4
		c0.1,0.1,0.2,0.2,0.2,0.3l0.1,0.1l-0.1,0c-0.4,0.1-0.7,0.3-1,0.5c-0.5,0.5-0.7,1-0.4,1.6c0.2,0.4,0.5,0.5,0.9,0.5
		c0.2,0,0.3,0,0.5-0.1c0.4-0.1,0.7-0.3,1-0.7l0.1-0.1l0.1,0.1c0.1,0.1,0.2,0.2,0.2,0.4c0.1,0.1,0.1,0.2,0.2,0.3
		c0.2,0.3,0.5,0.5,0.9,0.5c0.2,0,0.4,0,0.6-0.1c0.5-0.3,0.6-0.7,0.6-1.1c0-0.4-0.2-0.8-0.5-1l0-0.1l-0.1-0.1l0.1,0l0.8-0.4
		c1.5-0.8,2.8-1.5,4.5-2.1c2.9-1,5.4-1.6,7.7-1.8c0.6-0.1,1.1-0.1,1.6-0.1c1.2,0.1,1.4,0.3,2,0.4l0.5-2.3l0.6-0.4
		C127.6,32.5,128.6,32,129.7,31.7z"/>
	<path class="st0" d="M111.4,25.8c0.4-0.1,0.9-0.3,1.3-0.4c1.2-0.4,2.4-0.8,3.5-1.1l0.1,0l0-0.1c0-0.3,0-0.6,0-0.9c0-0.3,0-0.6,0-1
		c0.1-1.3,0.5-2.7,2.1-3.6c0.6-0.3,1.4-0.5,2-0.5l0.1,0c0.4,0,0.8,0.1,0.9,0.1c-0.1,0.1-0.2,0.2-0.3,0.2l-0.1,0.1
		c-1,0.6-1.6,1.3-2.2,2.4c-0.3,0.5-0.4,1.3-0.5,2.4l0,0.1l0.1,0c1-0.3,2.1-0.5,3.1-0.7c0.4-0.1,0.9-0.2,1.3-0.3l0.1,0l0-0.1
		c0.1-0.8,0.4-2.4,1.1-3.4c0.7-0.9,1.6-1.6,2.5-1.8c0.3-0.1,0.8-0.1,1.1-0.1c0.5,0,0.9,0.1,1,0.1c0.2,0.1,0.6,0.3,0.7,0.4
		c-0.1,0.1-0.3,0.2-0.5,0.2c-1.2,0.4-2.1,1-2.7,1.7c-0.5,0.7-0.9,1.6-1.1,2.9l0,0.1l0.1,0c0.8,0,1.8-0.1,2.8-0.1c0.3,0,0.7,0,1,0
		l0.1,0l0-0.1c0.7-1.4,1.7-2.4,2.8-2.8c0.4-0.2,1-0.3,1.5-0.3l0.1,0c1.4,0,1.9,0.6,2,1c0,0-0.1,0-0.3,0c-0.1,0-0.3,0-0.5,0l-0.1,0
		c-0.1,0-0.1,0-0.2,0c-0.9,0-1.8,0.3-2.2,0.6c-0.5,0.3-1,0.8-1.4,1.5l-0.1,0.1l0.1,0c1.1,0.2,2,0.5,2.7,0.9c0.9,0.5,1.6,1.4,1.7,2.1
		c0.1,0.4,0.1,0.6,0.1,0.7c0,0,0,0,0,0c-0.2-0.2-0.5-0.4-0.5-0.4c-0.6-0.5-1.8-1.2-3.7-1.7c-1.5-0.4-2.1-0.4-3.9-0.2
		c-2.8,0.2-4.4,0.4-7.1,1.1c-4.4,1.1-6.1,1.7-10.7,4.1l-0.1,0l0,0.1c0,0,0,0.1,0,0.1c0.1,0.1,0.1,0.1,0.2,0.2
		c0.2,0.2,0.4,0.5,0.5,0.8c0,0.5-0.2,1-0.6,1.2c-0.2,0.1-0.4,0.2-0.7,0.2c-0.3,0-0.6-0.1-0.8-0.3c-0.1-0.1-0.2-0.2-0.3-0.3
		c-0.1-0.1-0.2-0.2-0.3-0.3l-0.1-0.1l-0.1,0.1c-0.3,0.3-0.9,0.7-1.4,0.8c0,0-0.1,0-0.1,0c0,0-0.1,0-0.1,0c-0.2,0-0.4,0-0.6-0.1
		c-0.2-0.1-0.4-0.3-0.5-0.5c-0.2-0.6,0.2-1.1,0.4-1.4c0.2-0.2,0.6-0.4,0.9-0.6l0.1,0l-0.1-0.1c-0.1-0.2-0.3-0.5-0.4-0.8
		c-0.1-0.8,0.3-1.1,0.6-1.3c0.2-0.1,0.4-0.2,0.6-0.2c0.3,0,0.6,0.1,0.8,0.2c0.3,0.2,0.4,0.5,0.6,0.8c0,0.1,0.1,0.2,0.1,0.3l0,0.1
		l0.1,0c0.4-0.2,0.7-0.4,1-0.5c0.3-0.1,0.5-0.2,0.8-0.4l0.1,0l0-0.1c0,0-0.4-2.1-0.1-3.4c0.3-1,0.8-1.9,1.6-2.6c0.6-0.6,1.6-1,2.3-1
		l0.1,0l0.1,0c0.2,0,0.4,0,0.4,0.1c0,0,0,0.1-0.4,0.4c-0.8,0.5-1.5,1.3-2,2.3c-0.5,0.9-0.5,2.1-0.5,2.9c0,0,0,0.1,0,0.1L111.4,25.8z
		"/>
	<path class="st0" d="M148.3,90.6c-0.1,0.1-0.5,0.4-0.7,0.6c-0.2,0.1-0.3,0.2-0.5,0.4c-0.1,0-0.1,0.1-0.1,0c0,0-0.1-0.1-0.1-0.1
		l-0.4-0.6c-0.2-0.3-0.6-0.5-1-0.5c-0.2,0-0.5,0.1-0.7,0.2c-0.2,0.2-0.3,0.4-0.4,0.8c0,0.3,0.1,0.6,0.3,0.8c0.3,0.2,0.6,0.4,1,0.7
		c0,0,0,0,0,0c-0.1,0.1-0.2,0.1-0.3,0.2c-0.2,0.1-0.3,0.2-0.5,0.4c-0.4,0.5-0.2,1,0,1.3c0.2,0.3,0.6,0.4,0.8,0.4
		c0.3,0,0.4-0.1,0.8-0.4c0.2-0.2,0.2-0.3,0.4-0.5c0.1-0.1,0.3-0.6,0.5-0.6c0,0,0.1,0,0.2,0c0,0,0.1,0,0.1,0c0.1,0.1,0.3,0.4,0.4,0.5
		c0.3,0.4,0.7,0.6,1,0.6c0.4,0,0.5-0.1,0.7-0.3c0.3-0.4,0.1-0.8-0.1-1.1c-0.2-0.3-0.7-0.6-0.9-0.7c-0.1-0.1-0.3-0.1-0.2-0.3
		c0.1-0.1,0.6-0.6,1-0.8c0.2-0.1,0.3-0.2,0.5-0.4c0.9-0.7,2.1-1.3,3.7-1.8c0.9-0.3,1.9-0.5,3-0.5l0.1,0c1,0,2,0.2,3.1,0.6
		c0.5,0.2,1,0.4,1.8,1.2l0.1,0.1c0.4,0.5,0.6-0.2,0.6-0.6c-0.1-0.4-0.2-1-1.3-1.7c-0.2-0.1-0.2-0.2-0.2-0.4c0-0.2,0.1-0.4,0.8-1.2
		c0.8-0.9,1.8-1.1,1.8-1.2c0.1,0-0.1-0.2-0.1-0.2l-0.2-0.1c-0.3-0.2-0.7-0.4-1.2-0.4c-0.3,0-0.5,0-0.8,0.1c-0.3,0.1-0.7,0.3-1,0.6
		c-0.4,0.4-0.9,0.9-1.2,1.5c0,0.1-0.1,0.1-0.1,0.2c0,0-0.1,0-0.1,0c-0.6-0.2-1.2-0.3-1.8-0.4c0,0,0-0.1,0-0.1c0-0.4,0.3-1.1,0.7-1.6
		c0.4-0.5,1.1-1,1.6-1.2c0.5-0.2,0.8-0.1,0.7-0.2c-0.1-0.1-0.2-0.3-0.5-0.4c-0.4-0.1-0.5-0.1-0.8-0.1c-0.4,0-0.7,0.1-1.2,0.3
		c-0.4,0.2-0.8,0.4-1,0.6c-0.9,0.7-1.5,2-1.6,2.9c0,0-0.1,0.1-0.1,0.1c-0.6,0.1-1.2,0.3-1.8,0.4c0,0-0.1,0-0.1,0
		c-0.1-0.6-0.2-1.5,0.2-2.3c0.4-1.1,1.5-1.8,1.5-1.8c0-0.2-0.6-0.2-0.7-0.2h0c-0.8,0-1.9,0.8-2.2,1.6c-0.6,1.1-0.8,2.2-0.4,3.5
		c0,0,0,0.1,0,0.1c-0.5,0.2-1.1,0.5-1.5,0.7c0,0-0.1,0.1-0.2,0c-0.1-0.1-0.4-0.6-0.6-1.8c-0.1-1.1,0.5-1.7,0.5-1.7
		c0-0.1-1.6,0.3-1.8,1.6c-0.1,0.6,0,1.2,0.2,2.1c0.1,0.3,0.2,0.6,0.4,0.9C148.3,90.5,148.3,90.5,148.3,90.6z"/>
	<path class="st0" d="M163.1,58.6c-1.4,0.1-1.9,0.9-2.5,1.6c-1,1.1-1.3,2.2-1.3,2.8c0,0.3-0.3,0.5-0.6,0.6l-2.7,0.6l-0.6,0.2
		l-0.4,0.5c-0.6,0.8-1.1,1.2-1.6,1.8l-0.5,0.5l0.8-0.3c1.3-0.4,2.9-0.9,3.3-1c2.7-0.7,5.1-1.1,7.2-1.1c1.1,0,2.3,0.1,3.2,0.3
		c1.1,0.2,2.6,0.7,3.9,1.5c0.8,0.5,1.3,0.9,2.1,1.6c0.1,0.1,0.5,0.4,0.6,0.4c0.2,0,0.2-0.1,0.2-0.3c0.2-1.7-0.4-2.3-1.5-3.2
		c0,0-0.4-0.3-0.3-0.5c0.8-1.1,2-1.5,2.6-1.6c0.2,0,0.6,0,0.5-0.2c-0.1-0.1-0.2-0.8-1.7-1l-0.1,0c-0.7,0-1.5,0.2-2,0.5
		c-0.7,0.5-1,0.9-1.4,1.4c-0.1,0.1-0.3,0.2-0.4,0.1c-0.7-0.3-2-0.6-2.7-0.8c0,0-0.1-0.1-0.1-0.2c0.2-0.6,0.7-1.3,1.2-1.8
		c1.6-1.6,2.6-1.1,2.5-1.4c-0.2-0.2-0.8-0.9-2-0.9c-0.6,0-0.8,0.1-1.4,0.5c-1.1,0.7-1.7,2-2.2,3.1c0,0.1-0.1,0.2-0.2,0.3
		c0,0.1-0.2,0.1-0.3,0.1c-0.6-0.1-0.9-0.1-1.5-0.1c-0.1,0-0.6,0-0.9,0c-0.4,0-0.2-1.3,0.6-2.4c0.7-1.1,1.5-1.3,1.9-1.4
		C164.8,58.9,164.3,58.5,163.1,58.6z"/>
	<path class="st0" d="M144.7,79.7c-0.4,0.3-0.7,1.1-0.2,1.7c0.3,0.4,0.7,0.6,1.1,0.6c0.3,0,0.6-0.1,0.9-0.3c0.4-0.2,0.5-0.4,0.6-0.6
		c0,0,0-0.1,0-0.1l0.1,0.2c0.2,0.4,0.4,1,1.1,1.2l0.1,0c0.2,0,0.3,0.1,0.5,0.1c0.2,0,0.4-0.1,0.6-0.2c0.5-0.4,0.7-1.1,0.4-1.7
		c-0.2-0.5-0.3-0.5-0.6-0.8l-0.1-0.1c0.7-0.5,2.3-1.3,3.1-1.6l0.3-0.1c0,0,2.7-1,4.9-1.4c1.1-0.2,2.2-0.3,3.4-0.3c0.3,0,0.6,0,0.9,0
		c1.4,0.1,2.6,0.4,3.7,1c1.9,1,2.6,2.5,2.8,2.4c0.2-0.1,0.1-0.6,0.1-0.7c-0.1-1.4-1.1-2.8-2.1-3.7c-0.2-0.2-0.1-0.2,0-0.3
		c0.9-1.1,1.5-1.3,2-1.5c0,0,0.5-0.2,0.7-0.3c0.2-0.1-0.4-1-1.7-1c-0.5,0-1.1,0.3-1.6,0.7c-0.5,0.5-0.8,0.7-1.1,1.3
		c0,0.1-0.2,0.3-0.4,0.3c-0.6-0.1-1.3-0.2-2-0.3c0,0-0.4-0.1-0.3-0.5c0.1-0.5,0.1-0.9,0.7-1.7c0.6-0.9,1.8-1.4,1.9-1.5
		c0.2-0.1-0.2-0.2-0.3-0.2c-0.4-0.2-0.8-0.3-1.1-0.3c-0.6,0-1.1,0.3-1.7,0.7c-0.9,0.6-1.2,2-1.5,3.1c0,0.1-0.1,0.2-0.1,0.3
		c0,0.1-0.1,0.3-0.3,0.3s-2.4,0.5-2.5,0.3c-0.1-0.7-0.1-2.1,0.5-3c0.5-0.8,1.1-1.4,1.5-1.7c0.4-0.3,0.4-0.3,0.7-0.5
		c0.2-0.1-0.5-0.3-0.5-0.3l0,0c-1.1,0-2.3,0.7-2.9,1.5c-0.7,1-1.1,2.4-1.2,4.2c0,0.1,0.1,0.2-0.2,0.2c-0.4,0.1-1,0.2-1.5,0.4
		c-0.4,0.1-0.9,0.4-1.1,0.4c-0.1-0.1-0.2-0.4-0.2-0.6c-0.1-0.5-0.1-1,0-1.6c0.3-1.4,1.1-2.4,1.3-2.6c0.2-0.2-1.7-0.3-2.6,1.3
		c-0.4,0.7-0.7,1.4-0.7,2.2c-0.1,0.7,0.2,1.6,0.3,2c0.1,0.2-0.1,0.2-0.1,0.2l-0.3,0.2c-0.6,0.3-1.5,0.8-2.1,1c0,0-0.1,0-0.1,0
		c-0.1-0.1-0.1-0.3-0.2-0.4c-0.1-0.2-0.1-0.4-0.2-0.6c-0.3-0.6-1-0.8-1.5-0.8c-0.3,0-0.5,0.1-0.7,0.2c-0.4,0.2-0.6,0.5-0.7,0.9
		c-0.1,0.4,0,0.7,0.1,1c0.2,0.3,0.2,0.3,0.4,0.5c0.1,0.1,0.1,0.1,0.2,0.2C145.2,79.3,145.1,79.4,144.7,79.7z"/>
</g>
<g id="Porsche_Schriftzug">
	<g>
		<path class="st0" d="M171.6,8.5c0,0.5,0,1,0,1.6c2.5,0.7,5.1,1.6,7.5,2.5c0,0.5,0,0.9,0,1.4c-2.5-0.9-5-1.8-7.5-2.5
			c0,0.6,0,1.1,0,1.7c2.5,0.7,5.1,1.6,7.5,2.5c0,0.5,0,0.9,0,1.4c-3-1.1-6.1-2.1-9.2-3c0-2.5,0.1-5,0.1-7.5c3.1,0.9,6.2,1.8,9.2,3
			c0,0.5,0,0.9,0,1.4C176.7,10,174.2,9.2,171.6,8.5z"/>
		<path class="st0" d="M166.4,8.7c-1.8-0.4-3.7-0.8-5.5-1.2c0-1,0-2,0-3.1c-0.6-0.1-1.1-0.2-1.7-0.3c0,2.5,0,5,0,7.5
			c0.6,0.1,1.1,0.2,1.7,0.3c0-1,0-1.9,0-2.9c1.9,0.3,3.7,0.7,5.5,1.2c0,1,0,1.9,0,2.9c0.5,0.1,1.1,0.3,1.6,0.4c0-2.5,0-5,0.1-7.5
			c-0.5-0.1-1.1-0.3-1.6-0.4C166.5,6.7,166.4,7.7,166.4,8.7z"/>
		<path class="st0" d="M148.8,4.3c0,1.6,0,3.3,0,4.9c0,0.9,0.5,1.3,1.1,1.4c2.6,0.2,5.2,0.5,7.9,0.9c0-0.5,0-1,0-1.6
			c-2.3-0.4-4.7-0.6-7-0.8c-0.2,0-0.3-0.2-0.3-0.3c0-1.3,0-2.5,0-3.8c0-0.1,0.1-0.3,0.3-0.3c2.3,0.2,4.7,0.5,7,0.8c0-0.5,0-1,0-1.6
			c-2.6-0.4-5.2-0.7-7.9-0.9C149.3,3,148.8,3.4,148.8,4.3z"/>
		<path class="st0" d="M145.8,5.9c-2-0.1-4-0.1-6.1-0.1c-0.2,0-0.3-0.1-0.3-0.3c0-0.4,0-0.7,0-1.1c0-0.2,0.1-0.3,0.3-0.3
			c2.4,0,4.7,0,7.1,0.1c0-0.5,0-0.9,0-1.4c-2.6-0.1-5.3-0.2-7.9-0.1c-0.6,0-1.1,0.4-1.1,1.3c0,0.6,0,1.3,0,1.9
			c0,0.9,0.5,1.3,1.1,1.2c2-0.1,4,0,6,0c0.2,0,0.3,0.2,0.3,0.3c0,0.4,0,0.7,0,1.1c0,0.2-0.1,0.3-0.3,0.3c-2.4-0.1-4.7-0.1-7.1,0
			c0,0.5,0,0.9,0,1.4c2.6-0.1,5.3-0.1,7.9,0c0.6,0,1.1-0.3,1.1-1.2c0-0.6,0-1.3,0-1.9C147,6.3,146.5,5.9,145.8,5.9z"/>
		<path class="st0" d="M136.4,10.4c-0.6,0-1.2,0.1-1.7,0.1c-0.3-1.1-0.8-2.2-1.7-2.2c-1.5,0.1-3.1,0.3-4.6,0.5c0,0.8,0,1.5,0,2.3
			c-0.6,0.1-1.1,0.1-1.7,0.2c0-2.5,0-5-0.1-7.5c2.6-0.4,5.3-0.6,7.9-0.8v0c0.6,0,1.1,0.3,1.1,1.2c0,0.6,0,1.2,0,1.9
			c0,0.6-0.2,1.2-0.9,1.4C135.7,8.2,136.1,8.9,136.4,10.4z M134.1,4.9c0-0.2-0.1-0.3-0.3-0.3c-1.8,0.1-3.6,0.3-5.4,0.5
			c0,0.7,0,1.4,0,2.1c1.8-0.2,3.6-0.4,5.4-0.5c0.2,0,0.3-0.1,0.3-0.3C134.1,5.9,134.1,5.4,134.1,4.9z"/>
		<path class="st0" d="M125,5.3c0,1.6,0,3.3,0,4.9h0c0,0.9-0.5,1.4-1.1,1.5c-2.5,0.4-5,0.9-7.4,1.5c-0.6,0.1-1.1-0.1-1.1-1
			c0-1.6,0-3.3-0.1-4.9c0-0.9,0.5-1.4,1.1-1.6c2.5-0.6,5-1.1,7.5-1.5v0C124.5,4.1,125,4.4,125,5.3z M123.3,6.2
			c0-0.2-0.1-0.3-0.3-0.3c-1.9,0.3-3.9,0.7-5.8,1.2c-0.2,0-0.3,0.2-0.3,0.3c0,1.3,0,2.5,0,3.8c0,0.1,0.1,0.2,0.3,0.2
			c1.9-0.5,3.9-0.8,5.8-1.2c0.2,0,0.3-0.2,0.3-0.4C123.4,8.7,123.3,7.5,123.3,6.2z"/>
		<path class="st0" d="M113.8,7.7c0,0.9,0,1.8,0,2.7c0,0.9-0.5,1.4-1.1,1.6c-2.4,0.7-4.8,1.5-7.2,2.3c0,0.8,0,1.5,0,2.3
			c-0.5,0.2-1.1,0.4-1.6,0.6c0-2.5-0.1-5-0.1-7.5c2.9-1.1,5.8-2.1,8.8-2.9v0C113.3,6.6,113.8,6.8,113.8,7.7z M112.1,8.8
			c0-0.2-0.1-0.3-0.3-0.2c-2.1,0.6-4.3,1.3-6.4,2.1c0,0.7,0,1.4,0,2.1c2.1-0.8,4.2-1.4,6.4-2.1c0.2-0.1,0.3-0.2,0.3-0.4
			C112.2,9.8,112.2,9.3,112.1,8.8z"/>
	</g>
</g>
<g id="Stuttgart_Schriftzug">
	<g>
		<path class="st0" d="M154.2,37.3c0.2,0,0.3-0.1,0.3-0.3c0-0.2-0.1-0.3-0.3-0.3h-1.6c-0.2,0-0.3,0.1-0.3,0.3c0,0.2,0.1,0.3,0.3,0.3
			h0.4h0.1v0.1v3c0,0.2,0.1,0.3,0.3,0.3c0.2,0,0.3-0.1,0.3-0.3v-3v-0.1h0.1H154.2z"/>
		<path class="st0" d="M151.1,39.2L151.1,39.2l0-0.1c0.2-0.1,0.4-0.2,0.5-0.3c0.2-0.2,0.3-0.5,0.3-0.9c0-0.5-0.3-0.8-0.5-0.9
			c-0.3-0.2-0.8-0.3-0.9-0.3h-0.8c-0.1,0-0.2,0-0.2,0.1c0,0.1-0.1,0.1-0.1,0.2v3.2c0,0.2,0.1,0.3,0.3,0.3c0.2,0,0.3-0.1,0.3-0.3v-1
			v-0.1l0.1,0l0.4,0l0,0l0,0l0.8,1.1c0.1,0.1,0.1,0.1,0.2,0.1c0.2,0,0.3-0.1,0.3-0.2c0-0.1,0-0.2-0.1-0.2L151.1,39.2z M150,38.7
			L150,38.7L150,38.7l-0.1-1.4v-0.1h0.1l0.6,0c0.2,0,0.4,0.1,0.6,0.2c0.2,0.2,0.2,0.3,0.2,0.5c0,0.6-0.5,0.8-0.9,0.8H150z"/>
		<path class="st0" d="M147.4,36.7c-0.2,0-0.3,0.2-0.4,0.3l-1,3.2c0,0.1,0,0.2,0,0.2c0,0.1,0.1,0.1,0.2,0.1c0.1,0,0.3,0,0.3-0.2
			l0.1-0.3l0.1-0.2l0,0h0.1h1.4h0l0,0l0.1,0.3l0.1,0.3c0,0.1,0.1,0.2,0.3,0.2c0.1,0,0.2,0,0.2-0.1c0.1-0.1,0.1-0.2,0-0.3l-1.1-3.2
			C147.7,36.9,147.5,36.7,147.4,36.7z M148,39.4h-0.1h-1h-0.1l0.6-2.1L148,39.4z"/>
		<path class="st0" d="M145.2,38.3h-0.8c-0.2,0-0.3,0.1-0.3,0.2c0,0.2,0.1,0.3,0.3,0.3h0.5h0.1v0.1V39c0,0.7-0.5,1.1-0.7,1.1
			c-0.3,0-0.5-0.1-0.7-0.5c-0.1-0.3-0.2-0.6-0.2-1c0-0.3,0.1-0.6,0.2-1c0.1-0.3,0.3-0.4,0.6-0.4c0.2,0,0.5,0.2,0.6,0.4
			c0,0.1,0.1,0.1,0.2,0.1c0.1,0,0.1,0,0.2-0.1c0.1-0.1,0.1-0.1,0.1-0.2c-0.1-0.4-0.5-0.7-1-0.7l-0.1,0c-0.4,0-0.7,0.2-1,0.6
			c-0.2,0.4-0.4,0.8-0.4,1.3c0,0.5,0.1,1,0.3,1.4c0.2,0.4,0.6,0.6,1,0.6c0.2,0,0.4-0.1,0.7-0.2c0.5-0.3,0.7-1,0.7-1
			c0-0.2,0.1-0.5,0.1-0.7c0-0.1,0-0.2-0.1-0.3C145.3,38.4,145.3,38.3,145.2,38.3z"/>
		<path class="st0" d="M142.2,37.3c0.2,0,0.3-0.1,0.3-0.3c0-0.2-0.1-0.3-0.3-0.3h-1.6c-0.2,0-0.3,0.1-0.3,0.3c0,0.2,0.1,0.3,0.3,0.3
			h0.4h0.1v0.1v3c0,0.2,0.1,0.3,0.3,0.3c0.2,0,0.3-0.1,0.3-0.3v-3v-0.1h0.1H142.2z"/>
		<path class="st0" d="M139.7,37.3c0.2,0,0.3-0.1,0.3-0.3c0-0.2-0.1-0.3-0.3-0.3h-1.6c-0.2,0-0.3,0.1-0.3,0.3c0,0.2,0.1,0.3,0.3,0.3
			h0.4h0.1v0.1v3c0,0.2,0.1,0.3,0.3,0.3c0.2,0,0.3-0.1,0.3-0.3v-3v-0.1h0.1H139.7z"/>
		<path class="st0" d="M136.9,37.1v1v1c0,0.3,0,0.5-0.2,0.7c-0.1,0.2-0.3,0.2-0.5,0.2c-0.3,0-0.4-0.1-0.6-0.2
			c-0.1-0.2-0.2-0.4-0.2-0.7v-2.1c0-0.2-0.1-0.3-0.3-0.3c-0.2,0-0.3,0.1-0.3,0.3V39c0,0.5,0.1,0.9,0.3,1.2c0.2,0.3,0.6,0.5,1,0.5
			c0.5,0,0.8-0.2,1-0.5c0.2-0.3,0.2-0.6,0.2-1.2v-1.9c0-0.2-0.1-0.3-0.3-0.3C137,36.8,136.9,36.9,136.9,37.1z"/>
		<path class="st0" d="M134.2,37.3c0.2,0,0.3-0.1,0.3-0.3c0-0.2-0.1-0.3-0.3-0.3h-1.6c-0.2,0-0.3,0.1-0.3,0.3c0,0.2,0.1,0.3,0.3,0.3
			h0.4h0.1v0.1v3c0,0.2,0.1,0.3,0.3,0.3c0.2,0,0.3-0.1,0.3-0.3v-3v-0.1h0.1H134.2z"/>
		<path class="st0" d="M131.8,38.7c-0.2-0.1-0.4-0.2-0.6-0.3c-0.1,0-0.3-0.1-0.4-0.1l0,0c-0.1,0-0.2,0-0.2,0c-0.1,0-0.3-0.1-0.3-0.2
			c-0.1-0.1-0.1-0.2-0.1-0.4c0.1-0.3,0.3-0.4,0.7-0.4c0.3,0,0.6,0.1,0.7,0.3c0,0.1,0.1,0.1,0.2,0.1c0.1,0,0.1,0,0.2-0.1
			c0,0,0.1-0.1,0.1-0.2c0-0.1-0.1-0.3-0.3-0.4c-0.2-0.1-0.5-0.2-0.7-0.2h0c-0.3,0-0.6,0.1-0.8,0.2c-0.3,0.2-0.4,0.4-0.4,0.7
			c0,0.3,0.1,0.7,0.3,0.9c0.2,0.2,0.5,0.3,0.8,0.3c0.4,0,0.7,0.2,0.8,0.4c0.1,0.1,0.1,0.3-0.1,0.5c-0.1,0.1-0.4,0.2-0.6,0.2
			c-0.3,0-0.5-0.2-0.7-0.3c-0.1-0.1-0.1-0.1-0.2-0.1c0,0,0,0-0.1,0c-0.1,0-0.2,0-0.2,0.1c0,0.1-0.1,0.2,0,0.3
			c0.1,0.3,0.8,0.6,1.2,0.6l0,0c0.4,0,0.8-0.2,1-0.4c0.1-0.1,0.3-0.4,0.3-0.8C132.1,39.1,132,38.9,131.8,38.7z"/>
	</g>
</g>
<g id="Pferd">
	<path class="st0" d="M154.3,54.1c-0.2,0-0.3,0-0.4,0c-0.1,0-0.3-0.1-0.4-0.2c-0.1-0.1-0.2-0.2-0.2-0.4c0-0.1,0.1-0.2,0.2-0.2
		c0.1-0.1,0.4-0.3,0.6-0.6c0.1-0.2,0.2-0.4,0.2-0.7c0,0-0.1-0.1-0.1,0c-0.2,0.1-0.2,0.4-0.4,0.5c-0.2,0.1-0.4,0.2-0.6,0.2
		c-0.2,0-0.2-0.1-0.4-0.2c-0.1-0.1-0.2-0.3-0.2-0.4c0-0.1,0.1-0.2,0.3-0.2c0.3,0,0.5-0.1,0.7-0.2c0.2-0.1,0.2-0.2,0.3-0.4
		c0-0.1,0.1-0.3,0.1-0.4c0-0.1,0-0.1,0-0.1c-0.1,0-0.2,0.1-0.3,0.2c-0.2,0.1-0.5,0.1-0.7,0c-0.2-0.1-0.4-0.4-0.5-0.6
		c0,0,0-0.1,0-0.1c0.2,0,0.4-0.3,0.6-0.6c0,0,0.1-0.1,0.1-0.2c0-0.1,0.1-0.2,0.1-0.2c0-0.2,0-0.3,0-0.5c0-0.1-0.1-0.3-0.2-0.4
		c0,0-0.1,0-0.2,0c-0.1,0.2,0,0.4-0.1,0.6c-0.1,0.2-0.3,0.3-0.4,0.5c-0.1,0.1-0.2,0.2-0.3,0.1c-0.2-0.1-0.3-0.2-0.3-0.4
		c0-0.2,0-0.4,0.1-0.6c0.2-0.4,0.4-0.7,0.7-1.1c0.2-0.2,0.4-0.4,0.6-0.7c0.1-0.2,0.2-0.6,0.1-0.6c-0.2-0.1-0.3,0.3-0.4,0.4
		c-0.5,0.3-1.1,0.4-1.6,0.9c-0.3,0.3-0.3,0.7-0.5,1c-0.1,0.2,0,0.5-0.1,0.7c0,0.1-0.2,0.1-0.2,0.1c-0.2-0.1-0.3-0.4-0.4-0.6
		c0-0.1,0-0.4,0-0.5c0-0.1,0-0.1-0.1-0.1c-0.2,0.1-0.4,0.3-0.5,0.6c-0.1,0.4-0.1,0.6,0.1,1c0.2,0.4,0.6,0.9,0.9,1.3
		c0.2,0.4,0.5,0.8,0.7,1.2c0.2,0.4,0.3,0.6,0.2,1.1c0,0.2-0.3,0.9-0.6,1c0,0-0.1,0.1-0.2,0c-0.3-0.3-0.6-0.6-1-0.8
		c-0.4-0.2-0.8-0.4-1.3-0.5c-0.6-0.1-1.2,0-1.7,0c-0.6,0-1.2,0.1-1.8,0.1c-0.5,0-1,0-1.5-0.2c-0.4-0.2-0.6-0.4-0.8-0.7
		c-0.2-0.3-0.2-0.8-0.2-1.1c0-0.3,0.1-0.6,0.3-0.9c0.2-0.3,0.3-0.4,0.6-0.6c0.2-0.1,0.7-0.2,0.9-0.1c0.2,0.1,0.3,0.2,0.4,0.3
		c0.1,0.1,0.2,0.2,0.3,0.3c0,0,0.1,0,0.1,0c0.1-0.4,0-0.8-0.2-1.2c-0.1-0.3-0.5-0.8-0.5-0.8c0-0.1,0.2-0.1,0.2-0.1
		c0.3,0,0.6,0.1,0.9,0.3c0.2,0.1,0.4,0.3,0.5,0.5c0,0,0.1,0,0.1,0c0-0.7-0.2-1-0.5-1.4c-0.1-0.2-0.4-0.4-0.6-0.5
		c-0.1-0.1,0.1-0.2,0.2-0.2c0.3,0,0.5,0,0.8,0.1c0.1,0,0.2,0.1,0.2,0.2c0.1,0.1,0.1,0.1,0.2,0.1c0,0,0.1-0.1,0.1-0.1
		c-0.1-0.1-0.1-0.3-0.2-0.4c-0.4-0.4-0.8-0.7-1.2-1.1c0,0-0.1-0.1-0.1-0.1c-0.1-0.2-0.2-0.3-0.3-0.5c0-0.1-0.1-0.1-0.2-0.3
		c0-0.1,0-0.2,0-0.3c0.1-0.2,0.2-0.3,0.5-0.4c0.2-0.1,0.4-0.1,0.6-0.1c0.1,0,0.1,0.1,0.2,0c0,0,0.1-0.1,0-0.2
		c-0.3-0.2-0.5-0.3-0.9-0.3c-0.5,0-0.8-0.1-1.2,0.1c-0.4,0.2-0.5,0.3-0.9,0.3c-0.2,0-0.4,0-0.6-0.1c-0.1-0.1-0.3-0.2-0.3-0.3
		c0-0.2,0.1-0.5,0.2-0.7c0.1-0.2,0.3-0.3,0.4-0.4c0.1-0.1,0.2-0.1,0.2-0.2c0-0.1-0.2,0-0.2,0c-0.4,0.1-0.7,0.2-1,0.4
		c-0.2,0.2-0.5,0.5-0.6,0.7c0,0-0.1,0.1-0.2,0.1c-0.1,0-0.1,0-0.2,0c-0.3,0.1-0.5,0.2-0.8,0.3c-0.2,0.1-0.5,0.3-0.7,0.4
		c-0.2,0.1-0.4,0.1-0.6,0.1l0,0c-0.4,0-1,0-1.1,0.5c0,0.1,0,0.2,0.1,0.3c0.1,0,0.2,0.1,0.2,0.1c0.1,0,0.2,0.1,0.3,0.1
		c0.1,0,0.1,0,0.2,0.1c0,0,0,0,0,0c0,0,0,0,0,0c0,0,0,0,0,0c0,0,0,0,0,0c0,0.1-0.1,0.1-0.2,0.1c-0.2,0-0.5,0-0.7-0.1c0,0,0,0,0,0
		c-0.1-0.1-0.2,0-0.3,0c-0.4,0.4-0.9,0.7-1.4,1c0,0-0.1,0.1-0.1,0.1c0,0,0,0.1-0.1,0.1c0,0,0,0.1,0,0.1c0,0.1-0.1,0.2-0.2,0.2
		c-0.1,0-0.2,0.1-0.2,0.2c0,0.1,0,0.2,0,0.2c0,0.2,0.2,0.3,0.4,0.2c0.1,0,0.2-0.1,0.4-0.1c0.1,0,0.1,0,0.2,0c0,0,0,0,0,0
		c0,0,0,0,0,0c0,0,0,0,0,0c0,0,0,0.1,0,0.1c0,0.1-0.1,0.2-0.2,0.2c-0.1,0.1-0.1,0.2,0,0.3c0.2,0.1,0.4,0.1,0.6,0
		c0.1-0.1,0.1-0.2,0.2-0.3c0-0.1,0.1-0.2,0.2-0.2c0.2-0.1,0.4-0.1,0.7-0.1l0,0c0.2,0,0.3,0,0.4,0.1c0,0,0.1,0.1,0.1,0.1c0,0,0,0,0,0
		c0,0,0,0,0,0c0,0,0,0,0,0l0,0c0,0.2-0.1,0.3-0.2,0.4c0,0.1-0.1,0.2-0.1,0.3c0,0.1-0.1,0.2-0.1,0.3c0,0.1-0.1,0.1-0.1,0.2
		c-0.2,0.2-0.5,0.3-0.7,0.5c-0.3,0.3-0.6,0.7-0.9,1.1c-0.1,0.1-0.1,0.3-0.2,0.4l0,0c-0.1,0.3-0.1,0.8-0.6,0.5
		c-0.4-0.2-0.8-0.5-1.1-0.7c-0.1-0.1-0.2-0.2-0.3-0.4c-0.4-0.5-0.8-0.1-1,0.3c-0.4,0.6-0.8,1.1-1.2,1.7c-0.1,0.1-0.1,0.2-0.2,0.3
		c-0.1,0.1-0.1,0.3-0.3,0.4c-0.1,0.2-0.2,0.4-0.2,0.6c0,0.4-0.1,0.7-0.3,1c-0.2,0.2-0.2,0.4-0.3,0.6c0,0.2,0,0.4,0,0.6
		c0,0.1,0.1,0.3,0.2,0.3c0,0,0.1,0,0.1,0c0.3-0.1,0.6-0.3,0.8-0.5c0,0,0.1-0.1,0.1-0.1c0.1-0.1,0.1-0.2,0.1-0.3c0,0,0-0.1-0.1-0.1
		c0,0,0,0-0.1-0.1c-0.1,0-0.1-0.1-0.1-0.2c0,0,0,0,0,0c0-0.1,0-0.1,0-0.2c0-0.1,0-0.1,0.1-0.3c0-0.1,0.1-0.2,0.1-0.3
		c0.1-0.1,0.3-0.2,0.4-0.3c0.2-0.2,0.3-0.4,0.2-0.7c0,0,0-0.1,0-0.1c0,0,0,0,0-0.1c0-0.1,0.1-0.2,0.1-0.3c0.1-0.1,0.2-0.3,0.3-0.4
		c0.1-0.2,0.3-0.4,0.6-0.4c0.3,0,0.6,0.1,0.8,0.3c0.3,0.3,0.4,0.7,0.5,1c0.1,0.3,0.2,0.6,0.4,0.9c0.1,0.1,0.2,0.2,0.3,0.2
		c0.1,0,0.3,0,0.4-0.1c0,0,0,0,0,0c0,0,0,0,0,0c0.1,0,0.2,0,0.2,0.1c0.1,0.1,0.2,0.3,0.4,0.4c0.2,0.1,0,0.2-0.1,0.2
		c-0.1,0-0.2,0-0.3,0c-0.1,0-0.2,0-0.3,0c-0.6,0.2-1.3,0.3-2,0.3c0,0-0.1,0-0.1,0c-0.1,0-0.1,0.1-0.2,0.1c0,0,0,0,0,0.1
		c0,0.1,0,0.1-0.1,0.2c-0.1,0.2-0.1,0.3,0,0.5c0.3,0.9,0.3,1.9,0.2,2.8c-0.1,0.4,0,0.7,0.2,1c0.1,0.1,0.2,0.2,0.3,0.2
		c0,0,0.1,0,0.1,0.1c0.1,0.1,0.1,0.2,0.1,0.4c0,0.2,0.1,0.3,0.2,0.5c0.2,0.2,0.4,0.4,0.6,0.5c0,0,0.1,0,0.1,0c0.1,0,0.3,0,0.3-0.1
		c0.1-0.3,0.2-0.6,0.2-1c0-0.2-0.1-0.3-0.3-0.3c0,0,0,0,0,0c-0.1,0-0.1,0-0.2,0.1c0,0,0,0,0,0c0,0-0.1,0-0.1,0c0,0,0,0,0,0
		c0,0,0,0,0,0c0,0,0,0,0,0c0,0,0,0,0,0c-0.1-0.1-0.1-0.1-0.2-0.2c-0.1-0.2-0.1-0.4,0-0.6c0-0.1,0-0.1,0-0.2c0-0.1,0-0.2,0-0.3
		c0-0.2,0-0.2-0.1-0.3c-0.1-0.2-0.1-0.2-0.2-0.3c0,0,0,0,0,0c-0.1,0-0.1,0-0.2-0.1c0,0,0,0,0,0c0,0,0-0.1,0-0.1
		c0.1-0.4,0.1-0.9,0-1.3c0-0.1,0-0.3,0.1-0.4c0.3-0.3,0.8-0.1,1.1,0.1c0.4,0.2,0.9,0.3,1.3,0.3l0,0c0.7,0.1,1.6-0.2,2-0.6
		c0.1,0,0.1-0.1,0.1,0c0.2,0.1,0.4,0.3,0.6,0.4c0.5,0.3,1.1,0.6,1.7,0.8c0.8,0.2,1.6-0.1,2.5,0c0.2,0,0.4,0.1,0.6,0.1
		c0,0,0.1,0.1,0.1,0.1c0,0.3-0.1,0.6-0.1,0.9c0,0.2,0.1,0.3,0.2,0.5c0.1,0.1,0.1,0.3,0.2,0.5l0.1,0.2c0.5,0.6,0.5,1.4,0,2
		c-0.3,0.3-0.6,0.6-1,0.8c-0.4,0.3-0.7,0.4-1.2,0.4c-0.3,0-0.5,0.1-0.7,0.3c-0.2,0.2-0.5,0.4-0.8,0.6c-0.1,0.1-0.2,0.1-0.2,0.3
		c-0.1,0.3-0.3,0.7-0.3,1c0,0.2,0.1,0.3,0.3,0.3c0.3,0,0.6-0.1,0.9-0.2c0.2-0.1,0.2-0.2,0.2-0.4c0-0.1-0.1-0.2-0.1-0.3
		c0,0,0-0.1,0-0.1c0,0,0,0,0,0c0,0,0,0,0,0c0,0,0-0.1,0-0.1c0.1-0.1,0.1-0.1,0.2-0.2c0.1-0.1,0.2-0.1,0.3-0.1c0.1,0,0.1,0,0.2,0
		c0.4,0.1,0.8,0,1-0.4c0,0,0.1-0.1,0.1-0.1c0.1-0.1,0.2-0.2,0.3-0.3c0.8-0.5,1.6-0.9,2.5-1.2c0.1,0,0.1-0.1,0.2-0.1
		c0-0.1,0-0.2,0-0.3c0-0.3,0-0.6,0-0.9c0-0.2,0.1-0.6,0.4-0.6c0.1,0,0.2,0.1,0.3,0.2c0.3,0.4,0.6,0.6,1.1,0.8c0.1,0,0.3,0.1,0.4,0.1
		c0.3,0.2,0.6,0.5,0.6,0.8c0,0.2,0,0.4-0.1,0.6c-0.3,0.4-0.6,0.8-0.8,1.2c-0.1,0.2-0.3,0.4-0.5,0.5c-0.3,0.2-0.6,0.5-0.9,0.7
		c-0.2,0.2-0.5,0.3-0.6,0.6c-0.2,0.4-0.3,0.9-0.4,1.3c-0.1,0.3,0.1,0.3,0.3,0.3c0.3-0.1,0.6-0.2,1-0.4c0,0,0.1-0.1,0.1-0.1
		c0-0.1,0.1-0.1,0.1-0.2c0-0.1-0.1-0.2-0.1-0.3c-0.1-0.1-0.1-0.2-0.1-0.4c0,0,0,0,0-0.1c0,0,0,0,0,0c0,0,0.1-0.1,0.2-0.1
		c0.2-0.1,0.5-0.1,0.7-0.2c0.6-0.1,0.8-0.3,0.8-0.4c0.1-0.1,0.1-0.1,0.1-0.2l0,0c0,0,0,0,0,0c0,0,0,0,0-0.1c0.3-1,1-1.8,1.8-2.3
		c0.1-0.1,0.2-0.2,0.2-0.3c0-0.1,0-0.3,0-0.4c-0.2-0.3-0.4-0.7-0.7-1c-0.2-0.3-0.3-0.6-0.4-0.9c0-0.3,0.2-0.9,0.3-1
		c0.1-0.1,0.1-0.2,0.2-0.3c0.1-0.3,0.3-0.4,0.5-0.6c0.2-0.2,0.4-0.5,0.5-0.7c0.2-0.3,0.2-0.7,0.4-1c0.1-0.3,0-0.6,0-0.8
		c0-0.1,0.1-0.2,0.1-0.3c0.1-0.2,0.3-0.3,0.5-0.4c0.2-0.1,0.4,0,0.6,0c0.4,0.1,0.6,0.2,0.9,0.3c0.2,0,0.4,0,0.6,0
		c0.2-0.1,0.4-0.1,0.5-0.3C154.3,54.2,154.3,54.1,154.3,54.1z M142,48.4c0,0.3-0.2,0.5-0.4,0.7c-0.1,0.1-0.2,0.1-0.4,0.1
		c-0.1,0-0.2-0.2-0.2-0.5c0-0.2,0-0.3,0-0.4c0-0.1,0-0.3,0-0.4c0-0.1,0-0.2,0-0.3c0-0.1,0-0.2,0-0.4c0-0.3,0-0.5,0-0.8
		c0-0.3-0.1-0.6-0.2-0.9c-0.1-0.2-0.1-0.4-0.2-0.5c0-0.1-0.1-0.2-0.1-0.3c0-0.1-0.1-0.1-0.2-0.2c-0.1-0.1-0.2-0.1-0.3-0.2
		c0,0,0-0.1,0-0.1c0.3-0.2,0.8-0.1,1.1,0.1c0.6,0.4,0.7,1,0.8,1.6C142.1,46.8,142.1,47.5,142,48.4z"/>
</g>
<g id="Textmarke">
	<g>
		<polygon class="st0" points="283.5,127 283.5,123.4 245.6,123.4 245.6,142.8 283.5,142.8 283.5,139.2 249.9,139.2 249.9,134.9 
			283.5,134.9 283.5,131.3 249.9,131.3 249.9,127 		"/>
		<polygon class="st0" points="236.3,131.3 210.3,131.3 210.3,123.4 206.1,123.4 206.1,142.8 210.3,142.8 210.3,135.5 236.3,135.5 
			236.3,142.8 240.6,142.8 240.6,135.5 240.6,131.3 240.6,123.4 236.3,123.4 		"/>
		<path class="st0" d="M165.9,127.7l0,10.8c0,2.4,1.9,4.3,4.3,4.3l30.9,0v-4.3h-30.4c-0.3,0-0.6-0.2-0.6-0.5v-9.7
			c0-0.3,0.4-0.6,0.7-0.6h30.2v-4.3h-30.9C167.8,123.4,165.9,125.3,165.9,127.7z"/>
		<path class="st0" d="M156.5,131.3l-27.3,0l0,0c-0.4,0-0.7-0.3-0.7-0.7v-2.9c0-0.4,0.3-0.7,0.7-0.7h30.9v-3.6h-31.7
			c-2.4,0-4.2,2-4.2,4.3v2.9c0,2.4,1.9,4.3,4.3,4.3l27.3,0c0.4,0,0.7,0.3,0.7,0.7h0l0,2.9c0,0.4-0.3,0.7-0.7,0.7h-31v3.6h31.7
			c2.4,0,4.3-1.9,4.3-4.3h0v-2.9v0C160.8,133.2,158.9,131.3,156.5,131.3z"/>
		<path class="st0" d="M115.1,136.2c2.3-0.1,4.1-2,4.1-4.3l0-4.2c0-2.4-1.9-4.3-4.3-4.3v0l-32.3,0v19.5h4.3v-5.1h23.8l0,0
			c2.4,0,4.3,1.9,4.3,4.3v0.8h4.3l0-0.1C119.3,139.8,117.6,137.3,115.1,136.2z M115,132.7L115,132.7c0,0.4-0.3,0.7-0.7,0.7H86.9
			v-5.8l27.4,0c0.4,0,0.7,0.3,0.7,0.7V132.7z"/>
		<path class="st0" d="M73.3,123.4L73.3,123.4l-27.4,0c-2.4,0-4.3,1.9-4.3,4.3l0,10.8c0,2.4,2,4.3,4.3,4.3h27.3
			c2.4,0,4.3-1.9,4.3-4.3h0h0l0-10.8C77.5,125.3,75.6,123.4,73.3,123.4z M73.2,137.8c0,0.4-0.3,0.7-0.7,0.7H46.4
			c-0.3,0-0.6-0.2-0.6-0.5v-9.7c0-0.3,0.4-0.6,0.7-0.6l25.9,0c0.4,0,0.7,0.3,0.7,0.7V137.8z"/>
		<path class="st0" d="M32.2,123.4L32.2,123.4l-32.2,0v19.4h4.3v-5.1h28c2.4,0,4.3-1.9,4.3-4.3l0-5.7
			C36.5,125.3,34.6,123.4,32.2,123.4z M32.3,132.7c0,0.4-0.3,0.7-0.6,0.7H4.3v-5.8l27.3,0c0.4,0,0.7,0.3,0.7,0.7L32.3,132.7z"/>
	</g>
</g>
<g id="Registered_Trademark">
	<g>
		<path class="st0" d="M194.7,6.6c0-0.1,0-0.3-0.1-0.4c0-0.1-0.1-0.3-0.2-0.4c-0.1-0.1-0.2-0.2-0.4-0.3c-0.2-0.1-0.4-0.1-0.7-0.1
			h-1.4v4.3h0.5V7.8h0.8l0.8,1.9h0.6l-0.9-2c0.3-0.1,0.5-0.2,0.7-0.4C194.6,7.1,194.7,6.9,194.7,6.6z M194,6.9
			c0,0.1-0.1,0.2-0.1,0.2c-0.1,0.1-0.2,0.1-0.3,0.2c-0.1,0-0.3,0.1-0.5,0.1h-0.7V5.9h0.8c0.3,0,0.5,0.1,0.7,0.2
			c0.2,0.1,0.2,0.3,0.2,0.6C194.1,6.7,194.1,6.8,194,6.9z"/>
		<path class="st0" d="M196.4,6.1c-0.2-0.4-0.4-0.8-0.7-1.1c-0.3-0.3-0.7-0.6-1.1-0.7c-0.4-0.2-0.9-0.3-1.3-0.3
			c-0.5,0-0.9,0.1-1.3,0.3c-0.4,0.2-0.8,0.4-1.1,0.7c-0.3,0.3-0.6,0.7-0.7,1.1c-0.2,0.4-0.3,0.9-0.3,1.3c0,0.5,0.1,0.9,0.3,1.3
			c0.2,0.4,0.4,0.8,0.7,1.1c0.3,0.3,0.7,0.6,1.1,0.7c0.4,0.2,0.9,0.3,1.3,0.3c0.5,0,0.9-0.1,1.3-0.3c0.4-0.2,0.8-0.4,1.1-0.7
			c0.3-0.3,0.6-0.7,0.7-1.1c0.2-0.4,0.3-0.9,0.3-1.3C196.7,7,196.6,6.5,196.4,6.1z M195.9,8.6c-0.1,0.4-0.4,0.7-0.6,0.9
			c-0.3,0.3-0.6,0.5-0.9,0.6c-0.4,0.2-0.7,0.2-1.1,0.2c-0.4,0-0.8-0.1-1.1-0.2c-0.4-0.1-0.7-0.4-0.9-0.6c-0.3-0.3-0.5-0.6-0.6-0.9
			c-0.2-0.4-0.2-0.7-0.2-1.1c0-0.4,0.1-0.8,0.2-1.1c0.1-0.4,0.4-0.7,0.6-0.9c0.3-0.3,0.6-0.5,0.9-0.6c0.4-0.2,0.7-0.2,1.1-0.2
			c0.4,0,0.8,0.1,1.1,0.2c0.4,0.1,0.7,0.4,0.9,0.6c0.3,0.3,0.5,0.6,0.6,0.9c0.2,0.4,0.2,0.7,0.2,1.1C196.1,7.9,196,8.3,195.9,8.6z"
			/>
	</g>
</g>
</svg>
