<?xml version="1.0" encoding="utf-8"?>
<!-- Generator: Adobe Illustrator 22.1.0, SVG Export Plug-In . SVG Version: 6.00 Build 0)  -->
<svg version="1.1" id="svg8" xmlns="http://www.w3.org/2000/svg" xmlns:xlink="http://www.w3.org/1999/xlink" x="0px" y="0px"
	 viewBox="0 0 588.9 145.7" style="enable-background:new 0 0 588.9 145.7;" xml:space="preserve">
<style type="text/css">
	.st0{fill:#FFFFFF;}
</style>
<g id="layer1" transform="translate(-0.78255912,-1.2057655)" inkscape:groupmode="layer" inkscape:label="Layer 1">
	<path id="path53" inkscape:connector-curvature="0" class="st0" d="M0.8,74.1V1.2h294.5h294.5v72.8v72.8H295.3H0.8L0.8,74.1z
		 M579.8,73.3V10.7H295.3H10.7v62.7V136h284.5h284.5V73.3z M63.3,94.6c-3.3-0.9-5.9-2.3-8.2-4.3l-1.9-1.7l2.5-3l2.5-3l1.9,1.6
		c2.2,1.9,6.2,3.5,8.6,3.5c2.2,0,4.7-1.1,5.4-2.3c0.3-0.5,0.5-1.6,0.5-2.3c0-2.6-0.9-3.3-9.6-6.8c-7.3-2.9-10-6.2-10-12
		c0-2.8,0.2-3.7,1.3-5.6c4.2-7.2,14.4-8.5,23.4-3.1c1.4,0.8,2.5,1.7,2.5,1.9c0,0.4-4.3,6.5-4.6,6.5c-0.1,0-0.9-0.5-1.7-1.2
		c-2.2-1.7-5.5-3.1-7.4-3.1c-2.3,0-4.6,1.5-5,3.3c-0.5,2.3,0.9,3.7,5.3,5.6C79.9,73.5,82,75,83.1,79.4
		C85.7,89.8,75.2,97.8,63.3,94.6L63.3,94.6z M265.7,94.8c-3.2-0.6-8-3.1-10.2-5.4c-4-4-6.1-10.2-5.7-16.8c0.3-5.2,1.3-8.3,3.8-11.9
		c6.8-9.9,22.3-11.3,31.9-3l2,1.7l-2.4,2.2c-3.4,3.1-3.6,3.2-4.8,2c-3.5-3.3-10.8-4.2-15.2-1.9c-2.7,1.4-5.2,4.3-6,7.2
		c-0.3,1.1-0.6,3.5-0.6,5.3c0,5.4,2.5,9.8,7,12.2c2.7,1.4,8.6,1.4,11.7,0l2.2-1v-3.1v-3.1h-4.7h-4.7v-3.5v-3.5h8.8h8.8v9.2v9.2
		l-2.8,1.5C279.2,94.9,271.7,96,265.7,94.8L265.7,94.8z M318.8,94.2c-4.4-3.7,0.4-10.3,5.5-7.6c0.7,0.4,1.6,1.2,1.9,1.9
		C328.3,93.2,322.7,97.5,318.8,94.2z M371.2,94.8c-3.2-0.6-8-3.1-10.2-5.4c-6.2-6.2-7.7-17.1-3.5-26c5.8-12.4,23.8-14.9,33.7-4.7
		c1,1,1.7,1.9,1.7,2.1c0,0.3-5.4,4.8-5.8,4.8c-0.1,0-0.9-0.7-1.8-1.5c-2.8-2.6-5-3.5-9-3.5c-7.8,0-12.5,5.2-12.4,13.7
		c0.1,5.3,2.1,9,6.3,11.3c4.8,2.6,10.7,2,14.8-1.6l2.2-1.9l2.9,2.4c1.6,1.3,2.9,2.6,2.9,2.8c0,0.7-4.7,4.7-6.9,5.8
		C381.9,95.2,376.4,95.8,371.2,94.8L371.2,94.8z M439.8,94.8C434.4,93.8,428.3,89,426,84c-4.1-8.8-2.6-19.2,3.8-25.6
		c3-3,6.6-4.9,10.4-5.6c10.6-2,19.9,2.4,24.1,11.3c1.7,3.5,1.7,3.6,1.7,9.7c0,6.1,0,6.2-1.7,9.7C460,92.5,450.5,96.9,439.8,94.8
		L439.8,94.8z M450.4,86.6c2.4-1.2,4.9-3.7,6.1-6.3c1.4-3.1,1.4-9.3,0-12.4c-1.2-2.6-3.6-5.1-6.1-6.4c-2.7-1.3-8.3-1.3-10.8,0.1
		c-4.6,2.4-7,6.8-7,12.4c0,6.5,3.4,11.4,9.2,13.3C443.5,88,448.4,87.5,450.4,86.6L450.4,86.6z M118.6,88.8c-1-3.3-4-12.7-6.6-20.9
		L107.3,53l4.3-0.1c2.3-0.1,4.4-0.1,4.5,0.1c0.1,0.1,1.9,6.3,4.1,13.7c2.2,7.4,4,13.6,4.2,13.8c0.1,0.1,1.8-5.6,3.7-12.9
		c1.9-7.2,3.6-13.5,3.7-14c0.2-0.7,0.8-0.8,4.7-0.8c2.4,0,4.4,0.1,4.4,0.2c0,0.3,7.2,27.9,7.3,28.1c0.1,0.1,1.9-6,4-13.6
		c2.2-7.5,4.1-13.9,4.3-14.2c0.2-0.3,1.8-0.5,4.6-0.4l4.2,0.1l-5.6,17.7c-3.1,9.8-6,19.2-6.6,20.9l-1,3.2h-3.9h-3.9l-3.7-14.1
		c-2-7.7-3.9-14.4-4-14.7c-0.4-0.7-0.7,0.5-5.5,18.5l-2.8,10.3l-3.9,0l-3.9,0L118.6,88.8L118.6,88.8z M185.8,91
		c0.8-2.1,4.2-11.6,7.7-20.9l6.3-17l4.1-0.1c3.5-0.1,4.1,0,4.4,0.7c0.3,0.7,9.8,26.2,14,37.6l1.4,3.7h-4.4h-4.4l-1.4-4.1l-1.4-4.1
		l-8.1-0.1l-8.1-0.1l-1.4,4.3l-1.4,4.3h-4.4h-4.4L185.8,91z M209.4,79.1c0-0.3-5.3-15.6-5.4-15.8c-0.1-0.2-5.5,15.1-5.4,15.6
		c0,0.2,2.4,0.4,5.4,0.4C206.9,79.3,209.4,79.2,209.4,79.1z M495.1,73.8V52.8l4.1,0l4.1,0l6.3,11.8c4,7.4,6.5,11.7,6.8,11.4
		c0.2-0.2,3.2-5.5,6.5-11.7l6.1-11.3l4.3-0.1l4.3-0.1v21.1v21.1h-4.2h-4.2l-0.1-12.8l-0.1-12.8l-5,8.8l-5,8.8l-2.8-0.1l-2.8-0.1
		l-5-8.9l-5-8.9l-0.1,13l-0.1,13h-4h-4L495.1,73.8L495.1,73.8z"/>
</g>
</svg>
