<?xml version="1.0" encoding="utf-8"?>
<!-- Generator: Adobe Illustrator 22.1.0, SVG Export Plug-In . SVG Version: 6.00 Build 0)  -->
<svg version="1.1" id="Layer_1" xmlns="http://www.w3.org/2000/svg" xmlns:xlink="http://www.w3.org/1999/xlink" x="0px" y="0px"
	 viewBox="0 0 1399.8 432.4" style="enable-background:new 0 0 1399.8 432.4;" xml:space="preserve">
<style type="text/css">
	.st0{fill:#FFFFFF;}
</style>
<path class="st0" d="M204.9,187.9c7,0,12.3,2.3,15.8,6.8l11.7-11.7c-6.7-8.4-16-12.6-28-12.6c-8.2,0-15.2,2.3-20.9,6.8
	c-5.7,4.4-8.5,10.5-8.5,18.1c0,13.3,7.6,20.5,21.4,25.5c2.5,1,7.6,2.7,9.7,3.5c2.4,0.6,5.9,2.1,7.6,3.3c2.9,1.8,4.8,4,4.8,7.3
	c0,4.7-4.2,8.7-13.1,8.7c-10.1,0-17.4-3.9-22.1-11.6l-12.5,12.5c6.4,10,18.2,16.7,34.5,16.7c21.6,0,32.7-10.6,32.7-26.9
	c0-12.6-6.4-20.1-22.5-26.2c-2.1-0.9-4.7-1.8-7.6-2.8l-6.3-2.1c-1.1-0.5-2.5-1.1-3.9-1.9c-2.7-1.6-3.4-3.4-3.4-6.3
	C194.3,190.9,198.4,187.9,204.9,187.9z"/>
<polygon class="st0" points="335,260.2 351.1,207.7 367.1,260.2 383.6,260.2 410.2,172.1 391.1,172.1 374.6,226.1 358.8,172.1 
	343.5,172.1 327.7,226.1 311.1,172.1 291.9,172.1 318.6,260.2 "/>
<path class="st0" d="M480.3,245.4h36.8l5.9,14.8h20.7l-36.4-88.1h-17.3l-36.4,88.1h20.7L480.3,245.4z M498.8,197.9l12.8,32h-25.7
	L498.8,197.9z"/>
<ellipse class="st0" cx="757.8" cy="251.1" rx="10.3" ry="10.2"/>
<path class="st0" d="M992.1,248.8c9.2,8.7,20.3,13.1,33.4,13.1c13.1,0,24.3-4.4,33.4-13.1c9.1-8.8,13.6-19.7,13.6-32.5
	s-4.5-23.5-13.8-32.3c-9.1-8.8-20.2-13.3-33.2-13.3c-13,0-24.1,4.4-33.4,13.3c-9.1,8.8-13.6,19.6-13.6,32.3S983,240,992.1,248.8z
	 M1005.9,196.7c5.3-5.4,11.9-8.2,19.6-8.2c7.7,0,14.3,2.8,19.6,8.2c5.3,5.4,8,12,8,19.7c0,7.7-2.7,14.4-8.1,19.8
	c-5.3,5.4-11.8,8.1-19.5,8.1c-7.7,0-14.3-2.7-19.6-8c-5.3-5.4-8-12-8-20C997.9,208.7,1000.6,202.1,1005.9,196.7z"/>
<polygon class="st0" points="1154.3,206.5 1182.6,248.2 1210.8,206.5 1210.8,260.2 1229.1,260.2 1229.1,172.1 1212.8,172.1 
	1182.6,217.3 1152.4,172.1 1136.1,172.1 1136.1,260.2 1154.3,260.2 "/>
<path class="st0" d="M642.6,225.2h23.1v11.9c-5.1,4.5-11.5,6.8-19.2,6.8c-8,0-14.5-2.7-20-7.8c-5.3-5.3-8-11.9-8-19.8
	c0-8,2.7-14.5,8.1-19.8c5.4-5.3,12-8,19.8-8c8.6,0,15.5,2.7,21,8.1l12.3-12.3c-9.1-8.9-20.2-13.5-33.3-13.5
	c-13.3,0-24.4,4.3-33.6,13c-9.2,8.7-13.8,19.5-13.8,32.5c0,13,4.5,23.8,13.8,32.5c9.2,8.6,20.3,12.9,33.6,12.9
	c15.3,0,29.2-7,37.4-17.9V208h-41.3V225.2z"/>
<path class="st0" d="M879.2,243.9c-8,0-14.5-2.7-20-7.8c-5.3-5.3-8-11.9-8-19.8s2.7-14.5,8.1-19.8c5.4-5.3,12-8,19.8-8
	c9,0,16.4,3.3,22.4,10l12.3-12.3c-8.9-9.6-21.1-15.4-34.7-15.4c-13.3,0-24.4,4.3-33.6,13c-9.2,8.7-13.8,19.5-13.8,32.5
	c0,13,4.5,23.8,13.8,32.5c9.2,8.6,20.3,12.9,33.6,12.9c13.5,0,25.9-5.7,34.8-15.5l-12.3-12.3C895.7,240.5,888.3,243.9,879.2,243.9z"
	/>
<path class="st0" d="M1339.8,372.4H60V60h1279.8V372.4z M1320.3,79.5H79.5v273.3h1240.8V79.5z"/>
</svg>
