<?xml version="1.0" encoding="utf-8"?>
<!-- Generator: Adobe Illustrator 22.1.0, SVG Export Plug-In . SVG Version: 6.00 Build 0)  -->
<svg version="1.1" id="Layer_1" xmlns="http://www.w3.org/2000/svg" xmlns:xlink="http://www.w3.org/1999/xlink" x="0px" y="0px"
	 viewBox="0 0 1279.8 312.4" style="enable-background:new 0 0 1279.8 312.4;" xml:space="preserve">
<style type="text/css">
	.st0{fill:#FFFFFF;}
</style>
<path class="st0" d="M144.9,127.9c7,0,12.3,2.3,15.8,6.8l11.7-11.7c-6.7-8.4-16-12.6-28-12.6c-8.2,0-15.2,2.3-20.9,6.8
	c-5.7,4.4-8.5,10.5-8.5,18.1c0,13.3,7.6,20.5,21.4,25.5c2.5,1,7.6,2.7,9.7,3.5c2.4,0.6,5.9,2.1,7.6,3.3c2.9,1.8,4.8,4,4.8,7.3
	c0,4.7-4.2,8.7-13.1,8.7c-10.1,0-17.4-3.9-22.1-11.6l-12.5,12.5c6.4,10,18.2,16.7,34.5,16.7c21.6,0,32.7-10.6,32.7-26.9
	c0-12.6-6.4-20.1-22.5-26.2c-2.1-0.9-4.7-1.8-7.6-2.8l-6.3-2.1c-1.1-0.5-2.5-1.1-3.9-1.9c-2.7-1.6-3.4-3.4-3.4-6.3
	C134.3,130.9,138.4,127.9,144.9,127.9z"/>
<polygon class="st0" points="275,200.2 291.1,147.7 307.1,200.2 323.6,200.2 350.2,112.1 331.1,112.1 314.6,166.1 298.8,112.1 
	283.5,112.1 267.7,166.1 251.1,112.1 231.9,112.1 258.6,200.2 "/>
<path class="st0" d="M420.3,185.4h36.8l5.9,14.8h20.7l-36.4-88.1h-17.3l-36.4,88.1h20.7L420.3,185.4z M438.8,137.9l12.8,32h-25.7
	L438.8,137.9z"/>
<ellipse class="st0" cx="697.8" cy="191.1" rx="10.3" ry="10.2"/>
<path class="st0" d="M932.1,188.8c9.2,8.7,20.3,13.1,33.4,13.1c13.1,0,24.3-4.4,33.4-13.1c9.1-8.8,13.6-19.7,13.6-32.5
	s-4.5-23.5-13.8-32.3c-9.1-8.8-20.2-13.3-33.2-13.3c-13,0-24.1,4.4-33.4,13.3c-9.1,8.8-13.6,19.6-13.6,32.3S923,180,932.1,188.8z
	 M945.9,136.7c5.3-5.4,11.9-8.2,19.6-8.2s14.3,2.8,19.6,8.2c5.3,5.4,8,12,8,19.7c0,7.7-2.7,14.4-8.1,19.8
	c-5.3,5.4-11.8,8.1-19.5,8.1s-14.3-2.7-19.6-8c-5.3-5.4-8-12-8-20C937.9,148.7,940.6,142.1,945.9,136.7z"/>
<polygon class="st0" points="1094.3,146.5 1122.6,188.2 1150.8,146.5 1150.8,200.2 1169.1,200.2 1169.1,112.1 1152.8,112.1 
	1122.6,157.3 1092.4,112.1 1076.1,112.1 1076.1,200.2 1094.3,200.2 "/>
<path class="st0" d="M582.6,165.2h23.1v11.9c-5.1,4.5-11.5,6.8-19.2,6.8c-8,0-14.5-2.7-20-7.8c-5.3-5.3-8-11.9-8-19.8
	c0-8,2.7-14.5,8.1-19.8c5.4-5.3,12-8,19.8-8c8.6,0,15.5,2.7,21,8.1l12.3-12.3c-9.1-8.9-20.2-13.5-33.3-13.5
	c-13.3,0-24.4,4.3-33.6,13c-9.2,8.7-13.8,19.5-13.8,32.5c0,13,4.5,23.8,13.8,32.5c9.2,8.6,20.3,12.9,33.6,12.9
	c15.3,0,29.2-7,37.4-17.9V148h-41.3V165.2z"/>
<path class="st0" d="M819.2,183.9c-8,0-14.5-2.7-20-7.8c-5.3-5.3-8-11.9-8-19.8s2.7-14.5,8.1-19.8c5.4-5.3,12-8,19.8-8
	c9,0,16.4,3.3,22.4,10l12.3-12.3c-8.9-9.6-21.1-15.4-34.7-15.4c-13.3,0-24.4,4.3-33.6,13c-9.2,8.7-13.8,19.5-13.8,32.5
	c0,13,4.5,23.8,13.8,32.5c9.2,8.6,20.3,12.9,33.6,12.9c13.5,0,25.9-5.7,34.8-15.5l-12.3-12.3C835.7,180.5,828.3,183.9,819.2,183.9z"
	/>
<path class="st0" d="M1279.8,312.4H0V0h1279.8V312.4z M1260.3,19.5H19.5v273.3h1240.8V19.5z"/>
</svg>
